<svg width="18" height="18" viewBox="0 0 18 18" fill="none" xmlns="http://www.w3.org/2000/svg">
<g clip-path="url(#clip0_201_6895)">
<path d="M14.25 5.99854C15.4926 5.99854 16.5 4.99118 16.5 3.74854C16.5 2.50589 15.4926 1.49854 14.25 1.49854C13.0074 1.49854 12 2.50589 12 3.74854C12 4.99118 13.0074 5.99854 14.25 5.99854Z" fill="#FF0000" stroke="#FF0000" stroke-width="0.75" stroke-linecap="round" stroke-linejoin="round"/>
<path d="M14.5778 7.8668C14.6095 8.1183 14.6253 8.37155 14.625 8.62505V13.5C14.625 13.7984 14.7435 14.0846 14.9545 14.2955C15.1655 14.5065 15.4516 14.625 15.75 14.625H1.5C1.79837 14.625 2.08452 14.5065 2.2955 14.2955C2.50647 14.0846 2.625 13.7984 2.625 13.5V8.62505C2.62583 7.70954 2.83595 6.80634 3.23929 5.98447C3.64263 5.1626 4.22852 4.44382 4.95219 3.88305C5.67585 3.32228 6.51814 2.93437 7.41468 2.74896C8.31121 2.56356 9.23827 2.58556 10.125 2.8133" stroke="black" stroke-width="0.75" stroke-linecap="round" stroke-linejoin="round"/>
<path d="M8.625 0.374023V2.62402" stroke="black" stroke-width="0.75" stroke-linecap="round" stroke-linejoin="round"/>
<path d="M10.4625 16.125C10.3764 16.5489 10.1465 16.9299 9.8116 17.2036C9.47672 17.4774 9.05751 17.6269 8.62501 17.6269C8.1925 17.6269 7.77329 17.4774 7.43841 17.2036C7.10353 16.9299 6.87357 16.5489 6.78751 16.125" stroke="black" stroke-width="0.75" stroke-linecap="round" stroke-linejoin="round"/>
</g>
<defs>
<clipPath id="clip0_201_6895">
<rect width="18" height="18" fill="white"/>
</clipPath>
</defs>
</svg>
