<svg width="18" height="18" viewBox="0 0 18 18" fill="none" xmlns="http://www.w3.org/2000/svg">
<path d="M13.182 9.96526C13.1888 9.33942 13.3543 8.72555 13.6631 8.18116C13.9719 7.63677 14.4138 7.17969 14.9475 6.85276C14.6077 6.37055 14.161 5.97346 13.6422 5.69256C13.1235 5.41166 12.5468 5.25455 11.9573 5.23351C10.6823 5.10451 9.47477 5.98351 8.82827 5.98351C8.18177 5.98351 7.18652 5.25001 6.13202 5.27101C5.43903 5.29069 4.76301 5.48992 4.1701 5.84921C3.57719 6.20851 3.0877 6.71556 2.74952 7.32076C1.30877 9.82126 2.38202 13.5278 3.78677 15.5573C4.47227 16.5495 5.29202 17.6648 6.36602 17.6235C7.40177 17.583 7.79102 16.9545 9.04427 16.9545C10.2975 16.9545 10.6463 17.6235 11.7443 17.6033C12.858 17.583 13.5638 16.5923 14.2448 15.5963C14.7324 14.8799 15.1139 14.0968 15.3773 13.2713C14.7284 12.995 14.1746 12.5346 13.7845 11.9471C13.3943 11.3595 13.1849 10.6705 13.182 9.96526V9.96526Z" stroke="black" stroke-width="0.75" stroke-linecap="round" stroke-linejoin="round"/>
<path d="M11.2575 3.12975C11.908 2.36567 12.2307 1.37567 12.1552 0.375C11.1723 0.469766 10.2629 0.936944 9.61348 1.68075C9.2902 2.04181 9.04275 2.46414 8.88583 2.92267C8.72891 3.38119 8.6657 3.86658 8.69998 4.35C9.19131 4.35639 9.67752 4.24965 10.121 4.03806C10.5645 3.82646 10.9533 3.51568 11.2575 3.12975V3.12975Z" stroke="black" stroke-width="0.75" stroke-linecap="round" stroke-linejoin="round"/>
</svg>
