<svg width="18" height="18" viewBox="0 0 18 18" fill="none" xmlns="http://www.w3.org/2000/svg">
<g clip-path="url(#clip0_162_1738)">
<path d="M0.375 5.625V2.625C0.375 2.42609 0.454018 2.23532 0.59467 2.09467C0.735322 1.95402 0.926088 1.875 1.125 1.875H16.875C17.0739 1.875 17.2647 1.95402 17.4053 2.09467C17.546 2.23532 17.625 2.42609 17.625 2.625V5.625H0.375Z" fill="#9FEAFF"/>
<path d="M0.375 3.75V2.625C0.375 2.42609 0.454018 2.23532 0.59467 2.09467C0.735322 1.95402 0.926088 1.875 1.125 1.875H16.875C17.0739 1.875 17.2647 1.95402 17.4053 2.09467C17.546 2.23532 17.625 2.42609 17.625 2.625V3.75H0.375Z" fill="#DFF9FF"/>
<path d="M0.375 5.625H17.625V16.875C17.625 17.0739 17.546 17.2647 17.4053 17.4053C17.2647 17.546 17.0739 17.625 16.875 17.625H1.125C0.926088 17.625 0.735322 17.546 0.59467 17.4053C0.454018 17.2647 0.375 17.0739 0.375 16.875V5.625Z" fill="white"/>
<path d="M16.875 1.87573H1.125C0.710786 1.87573 0.375 2.21152 0.375 2.62573V16.8757C0.375 17.2899 0.710786 17.6257 1.125 17.6257H16.875C17.2892 17.6257 17.625 17.2899 17.625 16.8757V2.62573C17.625 2.21152 17.2892 1.87573 16.875 1.87573Z" stroke="#00303E" stroke-width="0.75" stroke-linecap="round" stroke-linejoin="round"/>
<path d="M4.125 0.375732V4.12573" stroke="#00303E" stroke-width="0.75" stroke-linecap="round" stroke-linejoin="round"/>
<path d="M13.875 0.375732V4.12573" stroke="#00303E" stroke-width="0.75" stroke-linecap="round" stroke-linejoin="round"/>
<path d="M0.375 5.62573H17.625" stroke="#00303E" stroke-width="0.75" stroke-linecap="round" stroke-linejoin="round"/>
</g>
<defs>
<clipPath id="clip0_162_1738">
<rect width="18" height="18" fill="white"/>
</clipPath>
</defs>
</svg>
