<svg width="13" height="13" viewBox="0 0 13 13" fill="none" xmlns="http://www.w3.org/2000/svg">
<path d="M7.90783 10.9945L10.9083 7.60758C11.5595 6.87254 11.892 5.90893 11.8326 4.92873C11.7733 3.94853 11.3271 3.03204 10.592 2.38088C9.85699 1.72971 8.89338 1.39721 7.91319 1.45652C6.93299 1.51583 6.0165 1.9621 5.36534 2.69714L1.2733 7.31627C0.839194 7.8063 0.617527 8.44871 0.657067 9.10217C0.696607 9.75563 0.994115 10.3666 1.48414 10.8007C1.97417 11.2348 2.61658 11.4565 3.27004 11.417C3.92351 11.3774 4.5345 11.0799 4.96861 10.5899L9.06064 5.97076C9.2777 5.72575 9.38853 5.40455 9.36876 5.07782C9.34899 4.75108 9.20024 4.44559 8.95522 4.22853C8.71021 4.01148 8.389 3.90064 8.06227 3.92041C7.73554 3.94018 7.43004 4.08894 7.21299 4.33395L3.66656 8.3372" stroke="url(#paint0_linear_518_40)" stroke-width="1.2" stroke-linecap="round" stroke-linejoin="round"/>
<defs>
<linearGradient id="paint0_linear_518_40" x1="8.84356" y1="-1.22912" x2="14.047" y2="10.4858" gradientUnits="userSpaceOnUse">
<stop stop-color="white"/>
<stop offset="0.484375" stop-color="white"/>
<stop offset="0.979167" stop-color="white"/>
</linearGradient>
</defs>
</svg>
