<svg width="18" height="18" viewBox="0 0 18 18" fill="none" xmlns="http://www.w3.org/2000/svg">
<g clip-path="url(#clip0_162_1477)">
<path d="M11.2462 9.12524L15.8947 13.7737H13.7737V15.8947L9.12524 11.247" fill="#9FEAFF"/>
<path d="M11.2462 9.12524L15.8947 13.7737H13.7737V15.8947L9.12524 11.247" stroke="#00303E" stroke-width="0.75" stroke-linecap="round" stroke-linejoin="round"/>
<path d="M6.74172 8.88603L0.516724 13.2428C0.516724 14.5688 3.43422 17.4855 4.76022 17.4855L9.12747 11.2448L11.2462 9.12603L17.4877 4.75728C17.4877 3.43128 14.5702 0.514526 13.2442 0.514526L8.89422 6.74628L6.74172 8.88603Z" fill="#DFF9FF"/>
<path d="M15.855 2.13303C14.961 1.24053 13.905 0.514526 13.242 0.514526L8.89197 6.74628L6.74172 8.88603L0.516724 13.2428C0.516724 13.9043 1.24197 14.9618 2.13447 15.855L15.855 2.13303Z" fill="white"/>
<path d="M8.98877 11.244C10.2314 11.244 11.2388 10.2367 11.2388 8.99402C11.2388 7.75138 10.2314 6.74402 8.98877 6.74402C7.74613 6.74402 6.73877 7.75138 6.73877 8.99402C6.73877 10.2367 7.74613 11.244 8.98877 11.244Z" fill="#9FEAFF"/>
<path d="M7.39796 10.5855C6.97596 10.1635 6.73889 9.59112 6.73889 8.99433C6.73889 8.69883 6.79709 8.40623 6.91018 8.13322C7.02326 7.86022 7.18901 7.61216 7.39796 7.40321C7.60691 7.19426 7.85497 7.02851 8.12797 6.91543C8.40098 6.80234 8.69358 6.74414 8.98908 6.74414C9.58587 6.74414 10.1582 6.98121 10.5802 7.40321L7.39796 10.5855Z" fill="#DFF9FF"/>
<path d="M8.98877 11.244C10.2314 11.244 11.2388 10.2367 11.2388 8.99402C11.2388 7.75138 10.2314 6.74402 8.98877 6.74402C7.74613 6.74402 6.73877 7.75138 6.73877 8.99402C6.73877 10.2367 7.74613 11.244 8.98877 11.244Z" stroke="#00303E" stroke-width="0.75" stroke-linecap="round" stroke-linejoin="round"/>
<path d="M8.8905 6.74628L13.2405 0.514526C14.5665 0.514526 17.4825 3.43128 17.484 4.75728L11.2425 9.12603" stroke="#00303E" stroke-width="0.75" stroke-linecap="round" stroke-linejoin="round"/>
<path d="M6.74172 8.88599L0.516724 13.2427C0.516724 14.5687 3.43422 17.4855 4.76022 17.4855L9.12747 11.2447" stroke="#00303E" stroke-width="0.75" stroke-linecap="round" stroke-linejoin="round"/>
<path d="M7.4085 10.5916L6.34875 11.6521" stroke="#00303E" stroke-width="0.75" stroke-linecap="round" stroke-linejoin="round"/>
<path d="M10.5907 7.40925L11.6519 6.34875" stroke="#00303E" stroke-width="0.75" stroke-linecap="round" stroke-linejoin="round"/>
</g>
<defs>
<clipPath id="clip0_162_1477">
<rect width="18" height="18" fill="white"/>
</clipPath>
</defs>
</svg>
