<svg width="18" height="18" viewBox="0 0 18 18" fill="none" xmlns="http://www.w3.org/2000/svg">
<path d="M11.625 12.375C11.625 12.4745 11.6645 12.5698 11.7348 12.6402C11.8052 12.7105 11.9005 12.75 12 12.75H13.875C14.0739 12.75 14.2647 12.671 14.4053 12.5303C14.546 12.3897 14.625 12.1989 14.625 12V3C14.625 2.80109 14.546 2.61032 14.4053 2.46967C14.2647 2.32902 14.0739 2.25 13.875 2.25H1.125C0.926088 2.25 0.735322 2.32902 0.59467 2.46967C0.454018 2.61032 0.375 2.80109 0.375 3V12C0.375 12.1989 0.454018 12.3897 0.59467 12.5303C0.735322 12.671 0.926088 12.75 1.125 12.75H2.625C2.72446 12.75 2.81984 12.7105 2.89016 12.6402C2.96049 12.5698 3 12.4745 3 12.375C3 11.9772 3.15804 11.5956 3.43934 11.3143C3.72064 11.033 4.10218 10.875 4.5 10.875C4.89782 10.875 5.27936 11.033 5.56066 11.3143C5.84196 11.5956 6 11.9772 6 12.375C6 12.4745 6.03951 12.5698 6.10983 12.6402C6.18016 12.7105 6.27554 12.75 6.375 12.75H8.25C8.34946 12.75 8.44484 12.7105 8.51517 12.6402C8.58549 12.5698 8.625 12.4745 8.625 12.375C8.625 11.9772 8.78304 11.5956 9.06434 11.3143C9.34564 11.033 9.72718 10.875 10.125 10.875C10.5228 10.875 10.9044 11.033 11.1857 11.3143C11.467 11.5956 11.625 11.9772 11.625 12.375Z" fill="#9FEAFF"/>
<path d="M14.625 15.375C14.625 15.4745 14.6645 15.5698 14.7348 15.6402C14.8052 15.7105 14.9005 15.75 15 15.75H16.875C17.0739 15.75 17.2647 15.671 17.4053 15.5303C17.546 15.3897 17.625 15.1989 17.625 15V6C17.625 5.80109 17.546 5.61032 17.4053 5.46967C17.2647 5.32902 17.0739 5.25 16.875 5.25H4.125C3.92609 5.25 3.73532 5.32902 3.59467 5.46967C3.45402 5.61032 3.375 5.80109 3.375 6V15C3.375 15.1989 3.45402 15.3897 3.59467 15.5303C3.73532 15.671 3.92609 15.75 4.125 15.75H5.625C5.72446 15.75 5.81984 15.7105 5.89016 15.6402C5.96049 15.5698 6 15.4745 6 15.375C6 14.9772 6.15804 14.5956 6.43934 14.3143C6.72064 14.033 7.10218 13.875 7.5 13.875C7.89782 13.875 8.27936 14.033 8.56066 14.3143C8.84196 14.5956 9 14.9772 9 15.375C9 15.4745 9.03951 15.5698 9.10983 15.6402C9.18016 15.7105 9.27554 15.75 9.375 15.75H11.25C11.3495 15.75 11.4448 15.7105 11.5152 15.6402C11.5855 15.5698 11.625 15.4745 11.625 15.375C11.625 14.9772 11.783 14.5956 12.0643 14.3143C12.3456 14.033 12.7272 13.875 13.125 13.875C13.5228 13.875 13.9044 14.033 14.1857 14.3143C14.467 14.5956 14.625 14.9772 14.625 15.375Z" fill="#DFF9FF"/>
<path d="M16.875 5.25H4.125C3.92609 5.25 3.73532 5.32902 3.59467 5.46967C3.45402 5.61032 3.375 5.80109 3.375 6V15C3.375 15.1989 3.45402 15.3897 3.59467 15.5303C3.73532 15.671 3.92609 15.75 4.125 15.75H5.625C5.72446 15.75 5.81984 15.7105 5.89016 15.6402C5.96049 15.5698 6 15.4745 6 15.375C5.99911 15.1241 6.0614 14.877 6.18114 14.6565C6.30087 14.4359 6.47419 14.2491 6.68512 14.1132C6.89604 13.9773 7.13779 13.8967 7.38808 13.8788C7.63836 13.8609 7.88912 13.9062 8.11725 14.0107L16.875 5.25Z" fill="white"/>
<path d="M14.625 3.75V3C14.625 2.80109 14.546 2.61032 14.4053 2.46967C14.2647 2.32902 14.0739 2.25 13.875 2.25H1.125C0.926088 2.25 0.735322 2.32902 0.59467 2.46967C0.454018 2.61032 0.375 2.80109 0.375 3V12C0.375 12.1989 0.454018 12.3897 0.59467 12.5303C0.735322 12.671 0.926088 12.75 1.125 12.75H1.875" stroke="#00303E" stroke-width="0.75" stroke-linecap="round" stroke-linejoin="round"/>
<path d="M12 8.25H15.375" stroke="#00303E" stroke-width="0.75" stroke-linecap="round" stroke-linejoin="round"/>
<path d="M12 10.5H13.875" stroke="#00303E" stroke-width="0.75" stroke-linecap="round" stroke-linejoin="round"/>
<path d="M4.875 12.75C4.88753 12.383 4.97642 12.0225 5.136 11.6918C5.31975 11.3243 6.08775 11.0693 7.05225 10.7115C7.31325 10.6148 7.2705 9.93451 7.155 9.80701C6.97114 9.60767 6.83147 9.37173 6.74513 9.11466C6.65879 8.85759 6.62774 8.58517 6.654 8.31526C6.64225 8.14772 6.6651 7.97955 6.72114 7.82122C6.77718 7.66289 6.8652 7.51779 6.97973 7.39495C7.09426 7.2721 7.23285 7.17414 7.38687 7.10716C7.54089 7.04018 7.70705 7.00562 7.875 7.00562C8.04295 7.00562 8.20911 7.04018 8.36313 7.10716C8.51715 7.17414 8.65574 7.2721 8.77027 7.39495C8.8848 7.51779 8.97282 7.66289 9.02886 7.82122C9.0849 7.97955 9.10775 8.14772 9.096 8.31526C9.12226 8.58517 9.09121 8.85759 9.00487 9.11466C8.91853 9.37173 8.77886 9.60767 8.595 9.80701C8.4795 9.93451 8.43675 10.6148 8.69775 10.7115C9.66225 11.0693 10.4303 11.3243 10.614 11.6918C10.7736 12.0225 10.8625 12.383 10.875 12.75H4.875Z" fill="#9FEAFF" stroke="#00303E" stroke-width="0.75" stroke-linecap="round" stroke-linejoin="round"/>
<path d="M14.625 15.375C14.625 15.4745 14.6645 15.5698 14.7348 15.6402C14.8052 15.7105 14.9005 15.75 15 15.75H16.875C17.0739 15.75 17.2647 15.671 17.4053 15.5303C17.546 15.3897 17.625 15.1989 17.625 15V6C17.625 5.80109 17.546 5.61032 17.4053 5.46967C17.2647 5.32902 17.0739 5.25 16.875 5.25H4.125C3.92609 5.25 3.73532 5.32902 3.59467 5.46967C3.45402 5.61032 3.375 5.80109 3.375 6V15C3.375 15.1989 3.45402 15.3897 3.59467 15.5303C3.73532 15.671 3.92609 15.75 4.125 15.75H5.625C5.72446 15.75 5.81984 15.7105 5.89016 15.6402C5.96049 15.5698 6 15.4745 6 15.375C6 14.9772 6.15804 14.5956 6.43934 14.3143C6.72064 14.033 7.10218 13.875 7.5 13.875C7.89782 13.875 8.27936 14.033 8.56066 14.3143C8.84196 14.5956 9 14.9772 9 15.375C9 15.4745 9.03951 15.5698 9.10983 15.6402C9.18016 15.7105 9.27554 15.75 9.375 15.75H11.25C11.3495 15.75 11.4448 15.7105 11.5152 15.6402C11.5855 15.5698 11.625 15.4745 11.625 15.375C11.625 14.9772 11.783 14.5956 12.0643 14.3143C12.3456 14.033 12.7272 13.875 13.125 13.875C13.5228 13.875 13.9044 14.033 14.1857 14.3143C14.467 14.5956 14.625 14.9772 14.625 15.375V15.375Z" stroke="#00303E" stroke-width="0.75" stroke-linecap="round" stroke-linejoin="round"/>
</svg>
