<svg width="18" height="18" viewBox="0 0 18 18" fill="none" xmlns="http://www.w3.org/2000/svg">
<path d="M15.7192 7.875L14.2192 6.375L12.7192 7.875V1.875C12.7192 1.77554 12.7587 1.68016 12.8291 1.60984C12.8994 1.53951 12.9948 1.5 13.0942 1.5H15.3442C15.4437 1.5 15.5391 1.53951 15.6094 1.60984C15.6797 1.68016 15.7192 1.77554 15.7192 1.875V7.875Z" stroke="white" stroke-width="0.75" stroke-linecap="round" stroke-linejoin="round"/>
<path d="M11.25 2.25C9.75 2.25 9 3.375 9 4.875C9 3.375 8.25 2.25 6.75 2.25H1.5C1.30109 2.25 1.11032 2.32902 0.96967 2.46967C0.829018 2.61032 0.75 2.80109 0.75 3V13.5C0.75 13.6989 0.829018 13.8897 0.96967 14.0303C1.11032 14.171 1.30109 14.25 1.5 14.25H6.75C7.05563 14.2064 7.36721 14.2345 7.66008 14.3322C7.95296 14.4298 8.21908 14.5943 8.43738 14.8126C8.65568 15.0309 8.82016 15.297 8.91782 15.5899C9.01547 15.8828 9.04361 16.1944 9 16.5C8.95639 16.1944 8.98453 15.8828 9.08218 15.5899C9.17984 15.297 9.34432 15.0309 9.56262 14.8126C9.78092 14.5943 10.047 14.4298 10.3399 14.3322C10.6328 14.2345 10.9444 14.2064 11.25 14.25H16.5C16.6989 14.25 16.8897 14.171 17.0303 14.0303C17.171 13.8897 17.25 13.6989 17.25 13.5V3C17.25 2.80109 17.171 2.61032 17.0303 2.46967C16.8897 2.32902 16.6989 2.25 16.5 2.25H15.75" stroke="white" stroke-width="0.75" stroke-linecap="round" stroke-linejoin="round"/>
<path d="M9 4.875V16.125" stroke="white" stroke-width="0.75" stroke-linecap="round" stroke-linejoin="round"/>
</svg>
