<svg width="16" height="16" viewBox="0 0 16 16" fill="none" xmlns="http://www.w3.org/2000/svg">
<path d="M6.05733 4.93328C6.34617 4.64392 6.5084 4.25178 6.5084 3.84294C6.5084 3.4341 6.34617 3.04196 6.05733 2.75261L4.42133 1.11861C4.13215 0.829443 3.73995 0.666992 3.331 0.666992C2.92205 0.666992 2.52984 0.829443 2.24066 1.11861L1.344 2.01594C0.966726 2.39261 0.731444 2.88825 0.678096 3.41869C0.624748 3.94913 0.756623 4.48169 1.05133 4.92594C3.69193 8.90054 7.0994 12.308 11.074 14.9486C11.5184 15.2429 12.0509 15.3747 12.5812 15.3216C13.1116 15.2685 13.6074 15.0338 13.9847 14.6573L14.8813 13.7599C15.0246 13.6168 15.1382 13.4468 15.2158 13.2597C15.2933 13.0727 15.3332 12.8721 15.3332 12.6696C15.3332 12.4671 15.2933 12.2666 15.2158 12.0795C15.1382 11.8924 15.0246 11.7224 14.8813 11.5793L13.246 9.94394C13.1029 9.80068 12.9329 9.68704 12.7458 9.6095C12.5587 9.53196 12.3582 9.49205 12.1557 9.49205C11.9531 9.49205 11.7526 9.53196 11.5655 9.6095C11.3784 9.68704 11.2085 9.80068 11.0653 9.94394L10.52 10.4893C8.69257 8.98541 7.01538 7.30777 5.512 5.47994L6.05733 4.93328Z" stroke="black" stroke-width="0.75" stroke-linecap="round" stroke-linejoin="round"/>
</svg>
