<svg width="16" height="16" viewBox="0 0 16 16" fill="none" xmlns="http://www.w3.org/2000/svg">
<path d="M11.644 13H14.3334C14.687 13 15.0261 12.8595 15.2762 12.6095C15.5262 12.3594 15.6667 12.0203 15.6667 11.6667V6.078C15.6668 5.77284 15.5622 5.47691 15.3703 5.23959C15.1785 5.00227 14.9111 4.83792 14.6127 4.774L11.862 4.18466" stroke="black" stroke-width="0.666667" stroke-linecap="round" stroke-linejoin="round"/>
<path d="M3.00004 4.33334H1.00004C0.631851 4.33334 0.333374 4.63182 0.333374 5.00001V13C0.333374 13.3682 0.631851 13.6667 1.00004 13.6667H3.00004C3.36823 13.6667 3.66671 13.3682 3.66671 13V5.00001C3.66671 4.63182 3.36823 4.33334 3.00004 4.33334Z" stroke="black" stroke-width="0.666667" stroke-linecap="round" stroke-linejoin="round"/>
<path d="M6.79463 4.21799L3.66663 4.99999" stroke="black" stroke-width="0.666667" stroke-linecap="round" stroke-linejoin="round"/>
<path d="M12.4834 6.35733L11.6093 3.30066C11.5298 3.02201 11.3616 2.77686 11.1303 2.60232C10.899 2.42778 10.6171 2.33335 10.3274 2.33333H8.33935C8.04957 2.33335 7.76769 2.42778 7.53637 2.60232C7.30505 2.77686 7.13689 3.02201 7.05735 3.30066L6.18335 6.35733" stroke="black" stroke-width="0.666667" stroke-linecap="round" stroke-linejoin="round"/>
<path d="M6.95667 3.66666H11.714" stroke="black" stroke-width="0.666667" stroke-linecap="round" stroke-linejoin="round"/>
<path d="M9.33333 13.6667C11.7266 13.6667 13.6667 11.7266 13.6667 9.33333C13.6667 6.9401 11.7266 5 9.33333 5C6.9401 5 5 6.9401 5 9.33333C5 11.7266 6.9401 13.6667 9.33333 13.6667Z" stroke="black" stroke-width="0.666667" stroke-linecap="round" stroke-linejoin="round"/>
<path d="M9.33337 12.3333C10.9902 12.3333 12.3334 10.9902 12.3334 9.33334C12.3334 7.67649 10.9902 6.33334 9.33337 6.33334C7.67652 6.33334 6.33337 7.67649 6.33337 9.33334C6.33337 10.9902 7.67652 12.3333 9.33337 12.3333Z" stroke="black" stroke-width="0.666667" stroke-linecap="round" stroke-linejoin="round"/>
<path d="M3.66663 13H7.02263" stroke="black" stroke-width="0.666667" stroke-linecap="round" stroke-linejoin="round"/>
</svg>
