<svg width="18" height="18" viewBox="0 0 18 18" fill="none" xmlns="http://www.w3.org/2000/svg">
<path d="M2.0625 9.375H4.3125C4.3626 9.37168 4.41284 9.37911 4.45984 9.39678C4.50684 9.41446 4.54952 9.44197 4.58502 9.47747C4.62053 9.51298 4.64804 9.55566 4.66571 9.60266C4.68339 9.64966 4.69081 9.69989 4.6875 9.75V16.5C4.69081 16.5501 4.68339 16.6003 4.66571 16.6473C4.64804 16.6943 4.62053 16.737 4.58502 16.7725C4.54952 16.808 4.50684 16.8355 4.45984 16.8532C4.41284 16.8709 4.3626 16.8783 4.3125 16.875H2.0625" stroke="black" stroke-width="0.75" stroke-linecap="round" stroke-linejoin="round"/>
<path d="M7.785 8.3775L6.375 10.125C6.28504 10.2386 6.17125 10.331 6.04166 10.3958C5.91207 10.4606 5.76984 10.4962 5.625 10.5H4.6875" stroke="black" stroke-width="0.75" stroke-linecap="round" stroke-linejoin="round"/>
<path d="M4.6875 15C6.1875 16.125 7.74 16.875 8.625 16.875H14.0625C14.61 16.875 14.9475 16.8375 15.1875 16.125C15.5452 14.3921 15.7957 12.6388 15.9375 10.875C15.9375 10.5 15.5625 10.125 14.8125 10.125H8.8125" stroke="black" stroke-width="0.75" stroke-linecap="round" stroke-linejoin="round"/>
<path d="M7.87498 9L6.81748 1.5525C6.80845 1.4995 6.81116 1.44517 6.82541 1.39334C6.83966 1.3415 6.86512 1.29343 6.89997 1.2525C6.93614 1.21276 6.98012 1.18093 7.02916 1.15899C7.0782 1.13705 7.13125 1.12547 7.18498 1.125H12.375" stroke="black" stroke-width="0.75" stroke-linecap="round" stroke-linejoin="round"/>
<path d="M9.74998 10.125L9.04498 3.0375C9.03856 2.98457 9.04397 2.93087 9.06083 2.88028C9.07769 2.8297 9.10558 2.78349 9.14248 2.745C9.17815 2.70719 9.22116 2.67705 9.26887 2.65642C9.31658 2.63579 9.368 2.6251 9.41998 2.625H15.5025C15.5562 2.62547 15.6093 2.63705 15.6583 2.65899C15.7073 2.68093 15.7513 2.71276 15.7875 2.7525C15.8223 2.79343 15.8478 2.8415 15.862 2.89334C15.8763 2.94517 15.879 2.9995 15.87 3.0525L14.8125 10.125" stroke="black" stroke-width="0.75" stroke-linecap="round" stroke-linejoin="round"/>
<path d="M12.4575 7.5C12.9753 7.5 13.395 7.08027 13.395 6.5625C13.395 6.04473 12.9753 5.625 12.4575 5.625C11.9398 5.625 11.52 6.04473 11.52 6.5625C11.52 7.08027 11.9398 7.5 12.4575 7.5Z" stroke="black" stroke-width="0.75" stroke-linecap="round" stroke-linejoin="round"/>
</svg>
