<svg width="16" height="16" viewBox="0 0 16 16" fill="none" xmlns="http://www.w3.org/2000/svg">
<g clip-path="url(#clip0_455_3679)">
<path d="M6.66675 0.333496H13.6667C13.2247 0.333496 12.8008 0.509091 12.4882 0.821651C12.1757 1.13421 12.0001 1.55814 12.0001 2.00016V14.0002C12.0001 14.4422 11.8245 14.8661 11.5119 15.1787C11.1994 15.4912 10.7754 15.6668 10.3334 15.6668" stroke="black" stroke-width="0.666667" stroke-linecap="round" stroke-linejoin="round"/>
<path d="M3.33325 12.3332V9.6665" stroke="black" stroke-width="0.666667" stroke-linecap="round" stroke-linejoin="round"/>
<path d="M12 2.00016C12 2.44219 12.1756 2.86611 12.4882 3.17867C12.8007 3.49123 13.2246 3.66683 13.6667 3.66683C14.1087 3.66683 14.5326 3.49123 14.8452 3.17867C15.1577 2.86611 15.3333 2.44219 15.3333 2.00016C15.3333 1.55814 15.1577 1.13421 14.8452 0.821651C14.5326 0.509091 14.1087 0.333496 13.6667 0.333496C13.2246 0.333496 12.8007 0.509091 12.4882 0.821651C12.1756 1.13421 12 1.55814 12 2.00016V2.00016Z" stroke="black" stroke-width="0.666667" stroke-linecap="round" stroke-linejoin="round"/>
<path d="M10.3334 15.6668C9.89139 15.6668 9.46746 15.4912 9.1549 15.1787C8.84234 14.8661 8.66675 14.4422 8.66675 14.0002C8.66675 13.5581 8.84234 13.1342 9.1549 12.8217C9.46746 12.5091 9.89139 12.3335 10.3334 12.3335H3.33341C2.89139 12.3335 2.46746 12.5091 2.1549 12.8217C1.84234 13.1342 1.66675 13.5581 1.66675 14.0002C1.66675 14.4422 1.84234 14.8661 2.1549 15.1787C2.46746 15.4912 2.89139 15.6668 3.33341 15.6668H10.3334Z" stroke="black" stroke-width="0.666667" stroke-linecap="round" stroke-linejoin="round"/>
<path d="M3.33333 5.66673C2.86522 5.66744 2.40524 5.5444 2 5.31006V8.66673L3.33333 7.66673L4.66667 8.66673V5.31006C4.26155 5.54469 3.80149 5.66776 3.33333 5.66673V5.66673Z" stroke="black" stroke-width="0.666667" stroke-linecap="round" stroke-linejoin="round"/>
<path d="M0.666748 3.00016C0.666748 3.70741 0.9477 4.38568 1.4478 4.88578C1.94789 5.38588 2.62617 5.66683 3.33341 5.66683C4.04066 5.66683 4.71894 5.38588 5.21903 4.88578C5.71913 4.38568 6.00008 3.70741 6.00008 3.00016C6.00008 2.29292 5.71913 1.61464 5.21903 1.11454C4.71894 0.614448 4.04066 0.333496 3.33341 0.333496C2.62617 0.333496 1.94789 0.614448 1.4478 1.11454C0.9477 1.61464 0.666748 2.29292 0.666748 3.00016V3.00016Z" stroke="black" stroke-width="0.666667" stroke-linecap="round" stroke-linejoin="round"/>
<path d="M2.33325 3C2.33325 3.26522 2.43861 3.51957 2.62615 3.70711C2.81368 3.89464 3.06804 4 3.33325 4C3.59847 4 3.85282 3.89464 4.04036 3.70711C4.2279 3.51957 4.33325 3.26522 4.33325 3C4.33325 2.73478 4.2279 2.48043 4.04036 2.29289C3.85282 2.10536 3.59847 2 3.33325 2C3.06804 2 2.81368 2.10536 2.62615 2.29289C2.43861 2.48043 2.33325 2.73478 2.33325 3Z" stroke="black" stroke-width="0.666667" stroke-linecap="round" stroke-linejoin="round"/>
</g>
<defs>
<clipPath id="clip0_455_3679">
<rect width="16" height="16" fill="white"/>
</clipPath>
</defs>
</svg>
