<svg width="19" height="18" viewBox="0 0 19 18" fill="none" xmlns="http://www.w3.org/2000/svg">
<path d="M10.5175 17.0622C10.5552 17.207 10.6353 17.3373 10.7476 17.4362C10.8599 17.5351 10.9991 17.5981 11.1475 17.6172C11.2887 17.6388 11.433 17.613 11.5578 17.5438C11.6827 17.4746 11.7811 17.3659 11.8375 17.2347L18.5875 1.37223C18.6302 1.24396 18.6373 1.10654 18.6083 0.974514C18.5793 0.842492 18.5151 0.720773 18.4225 0.622234C18.324 0.529694 18.2023 0.465507 18.0703 0.436462C17.9382 0.407417 17.8008 0.414594 17.6725 0.457234L1.75003 7.16223C1.6189 7.2187 1.51021 7.31707 1.44099 7.44194C1.37177 7.5668 1.34593 7.71111 1.36753 7.85223C1.38665 8.00063 1.44971 8.13991 1.54862 8.25217C1.64752 8.36444 1.77774 8.44456 1.92253 8.48223L8.77753 10.2072L10.5175 17.0622Z" stroke="#403F61" stroke-width="0.75" stroke-linecap="round" stroke-linejoin="round"/>
</svg>
