<svg width="24" height="26" viewBox="0 0 24 26" fill="none" xmlns="http://www.w3.org/2000/svg">
<g filter="url(#filter0_d_201_5693)">
<path d="M12.642 0.650175C12.5592 0.563222 12.4596 0.493995 12.3492 0.446693C12.2389 0.399391 12.1201 0.375 12 0.375C11.8799 0.375 11.7611 0.399391 11.6508 0.446693C11.5404 0.493995 11.4408 0.563222 11.358 0.650175C10.1505 1.91842 5.25 7.30492 5.25 11.2499C5.25 14.9782 8.27175 17.6249 12 17.6249C15.7283 17.6249 18.75 14.9782 18.75 11.2499C18.75 7.30492 13.8495 1.91842 12.642 0.650175Z" stroke="white" stroke-width="0.75" stroke-linecap="round" stroke-linejoin="round"/>
<path d="M12 17.625V0.375" stroke="white" stroke-width="0.75" stroke-linecap="round" stroke-linejoin="round"/>
<path d="M14.25 2.4585V17.2837" stroke="white" stroke-width="0.75" stroke-linecap="round" stroke-linejoin="round"/>
<path d="M16.5 5.46924V16.0735" stroke="white" stroke-width="0.75" stroke-linecap="round" stroke-linejoin="round"/>
</g>
<defs>
<filter id="filter0_d_201_5693" x="-1" y="0" width="26" height="26" filterUnits="userSpaceOnUse" color-interpolation-filters="sRGB">
<feFlood flood-opacity="0" result="BackgroundImageFix"/>
<feColorMatrix in="SourceAlpha" type="matrix" values="0 0 0 0 0 0 0 0 0 0 0 0 0 0 0 0 0 0 127 0" result="hardAlpha"/>
<feOffset dy="4"/>
<feGaussianBlur stdDeviation="2"/>
<feComposite in2="hardAlpha" operator="out"/>
<feColorMatrix type="matrix" values="0 0 0 0 0 0 0 0 0 0 0 0 0 0 0 0 0 0 0.25 0"/>
<feBlend mode="normal" in2="BackgroundImageFix" result="effect1_dropShadow_201_5693"/>
<feBlend mode="normal" in="SourceGraphic" in2="effect1_dropShadow_201_5693" result="shape"/>
</filter>
</defs>
</svg>
