<svg width="18" height="18" viewBox="0 0 18 18" fill="none" xmlns="http://www.w3.org/2000/svg">
<path d="M5.625 0.375H12.8175C13.0143 0.375828 13.2028 0.453942 13.3425 0.5925L15.1575 2.4075C15.2961 2.5472 15.3742 2.73575 15.375 2.9325V14.625C15.375 14.8239 15.296 15.0147 15.1553 15.1553C15.0147 15.296 14.8239 15.375 14.625 15.375H5.625C5.42609 15.375 5.23532 15.296 5.09467 15.1553C4.95402 15.0147 4.875 14.8239 4.875 14.625V1.125C4.875 0.926088 4.95402 0.735322 5.09467 0.59467C5.23532 0.454018 5.42609 0.375 5.625 0.375Z" stroke="white" stroke-width="0.75" stroke-linecap="round" stroke-linejoin="round"/>
<path d="M12.375 17.625H3.375C3.17609 17.625 2.98532 17.546 2.84467 17.4053C2.70402 17.2647 2.625 17.0739 2.625 16.875V4.125" stroke="white" stroke-width="0.75" stroke-linecap="round" stroke-linejoin="round"/>
</svg>
