<svg width="18" height="18" viewBox="0 0 18 18" fill="none" xmlns="http://www.w3.org/2000/svg">
<g clip-path="url(#clip0_400_1670)">
<path d="M13.125 6.375H1.875C1.04657 6.375 0.375 7.04657 0.375 7.875V15.375C0.375 16.2034 1.04657 16.875 1.875 16.875H13.125C13.9534 16.875 14.625 16.2034 14.625 15.375V7.875C14.625 7.04657 13.9534 6.375 13.125 6.375Z" stroke="black" stroke-width="0.75" stroke-linecap="round" stroke-linejoin="round"/>
<path d="M3.75 7.875H2.25C2.04289 7.875 1.875 8.04289 1.875 8.25V9.75C1.875 9.95711 2.04289 10.125 2.25 10.125H3.75C3.95711 10.125 4.125 9.95711 4.125 9.75V8.25C4.125 8.04289 3.95711 7.875 3.75 7.875Z" stroke="black" stroke-width="0.75" stroke-linecap="round" stroke-linejoin="round"/>
<path d="M1.875 12.375H5.625" stroke="black" stroke-width="0.75" stroke-linecap="round" stroke-linejoin="round"/>
<path d="M1.875 13.875H4.875" stroke="black" stroke-width="0.75" stroke-linecap="round" stroke-linejoin="round"/>
<path d="M11.625 12C11.412 12.0003 11.2015 12.0459 11.0076 12.1338C10.8136 12.2218 10.6406 12.35 10.5 12.51C10.3594 12.35 10.1864 12.2218 9.99243 12.1338C9.79846 12.0459 9.58798 12.0003 9.375 12C8.97718 12 8.59564 12.158 8.31434 12.4393C8.03304 12.7206 7.875 13.1022 7.875 13.5C7.875 13.8978 8.03304 14.2794 8.31434 14.5607C8.59564 14.842 8.97718 15 9.375 15C9.58798 14.9997 9.79846 14.9541 9.99243 14.8662C10.1864 14.7782 10.3594 14.65 10.5 14.49C10.6656 14.6785 10.8758 14.8224 11.1113 14.9086C11.3469 14.9948 11.6003 15.0206 11.8484 14.9836C12.0965 14.9465 12.3314 14.8478 12.5315 14.6965C12.7316 14.5453 12.8906 14.3462 12.9939 14.1176C13.0971 13.889 13.1414 13.6381 13.1227 13.388C13.104 13.1378 13.0228 12.8964 12.8866 12.6857C12.7504 12.475 12.5636 12.3019 12.3432 12.1821C12.1228 12.0623 11.8759 11.9997 11.625 12V12Z" stroke="black" stroke-width="0.75" stroke-linecap="round" stroke-linejoin="round"/>
<path d="M10.5 12.51C10.6741 12.6995 10.7934 12.9328 10.845 13.185" stroke="black" stroke-width="0.75" stroke-linecap="round" stroke-linejoin="round"/>
<path d="M16.125 10.875C16.5228 10.875 16.9044 10.717 17.1857 10.4357C17.467 10.1544 17.625 9.77282 17.625 9.375V2.625C17.625 2.22718 17.467 1.84564 17.1857 1.56434C16.9044 1.28304 16.5228 1.125 16.125 1.125H4.875C4.47718 1.125 4.09564 1.28304 3.81434 1.56434C3.53304 1.84564 3.375 2.22718 3.375 2.625V4.875" stroke="black" stroke-width="0.75" stroke-linecap="round" stroke-linejoin="round"/>
<path d="M3.375 4.125H17.625" stroke="black" stroke-width="0.75" stroke-linecap="round" stroke-linejoin="round"/>
</g>
<defs>
<clipPath id="clip0_400_1670">
<rect width="18" height="18" fill="white"/>
</clipPath>
</defs>
</svg>
