<svg width="121" height="121" viewBox="0 0 121 121" fill="none" xmlns="http://www.w3.org/2000/svg">
<path d="M60.5001 108.9C87.2307 108.9 108.9 87.2306 108.9 60.5C108.9 33.7694 87.2307 12.1 60.5001 12.1C33.7695 12.1 12.1001 33.7694 12.1001 60.5C12.1001 87.2306 33.7695 108.9 60.5001 108.9Z" fill="#D9EDFF"/>
<path d="M94.4187 25.0228C94.5504 25.0471 94.6747 25.1015 94.7819 25.1816C94.8891 25.2618 94.9765 25.3656 95.037 25.485C95.0975 25.6045 95.1297 25.7364 95.131 25.8702C95.1322 26.0041 95.1026 26.1365 95.0443 26.257L91.5486 33.4541C91.4641 33.6288 91.3236 33.7703 91.1494 33.8558C90.9753 33.9414 90.7774 33.9662 90.5875 33.9262C90.3976 33.8863 90.2265 33.7838 90.1016 33.6354C89.9767 33.4869 89.905 33.3008 89.8981 33.1068L89.6017 25.2152C89.5968 25.0853 89.6213 24.9558 89.6732 24.8365C89.725 24.7172 89.803 24.6111 89.9014 24.5259C89.9998 24.4408 90.1159 24.3789 90.2415 24.3446C90.367 24.3104 90.4986 24.3048 90.6265 24.3283L94.4187 25.0228Z" fill="#B0D9FF" stroke="#020064" stroke-width="1.21" stroke-linejoin="round"/>
<path d="M76.6559 25.531C76.5257 25.5626 76.4045 25.6238 76.3019 25.71C76.1992 25.796 76.1178 25.9048 76.0641 26.0276C76.0105 26.1504 75.986 26.2839 75.9925 26.4178C75.999 26.5517 76.0364 26.6821 76.1018 26.7991L79.9992 33.7869C80.0935 33.9561 80.2418 34.089 80.4202 34.1643C80.5987 34.2396 80.7973 34.2531 80.9843 34.2026C81.1714 34.1522 81.3362 34.0406 81.4526 33.8857C81.569 33.7307 81.6302 33.5413 81.6266 33.3476L81.4766 25.4512C81.474 25.3211 81.4424 25.1933 81.3839 25.0772C81.3253 24.9609 81.2415 24.8594 81.1385 24.78C81.0355 24.7005 80.916 24.6452 80.7887 24.6181C80.6614 24.5911 80.5297 24.5929 80.4033 24.6235L76.6559 25.531Z" fill="#B0D9FF" stroke="#020064" stroke-width="1.21" stroke-linejoin="round"/>
<path d="M45.3449 29.1344C45.2412 29.0495 45.1192 28.9899 44.9886 28.96C44.858 28.9301 44.7222 28.9308 44.5919 28.9621C44.4617 28.9934 44.3403 29.0544 44.2376 29.1403C44.1347 29.2262 44.0532 29.3347 43.9993 29.4574L40.7832 36.784C40.7063 36.9611 40.6907 37.1587 40.7387 37.3457C40.7868 37.5326 40.8957 37.6983 41.0483 37.8165C41.2008 37.9346 41.3884 37.9986 41.5814 37.9983C41.7745 37.9981 41.9619 37.9336 42.1142 37.8149L48.3166 32.9265C48.419 32.846 48.502 32.7436 48.5595 32.6267C48.6169 32.5098 48.6473 32.3815 48.6485 32.2512C48.6496 32.121 48.6215 31.9921 48.5661 31.8743C48.5108 31.7564 48.4296 31.6524 48.3287 31.5701L45.3449 29.1344Z" fill="#B0D9FF" stroke="#020064" stroke-width="1.21" stroke-linejoin="round"/>
<path d="M30.544 23.9072C30.4102 23.9027 30.2771 23.9292 30.1552 23.9846C30.0334 24.04 29.9258 24.1229 29.8412 24.2266C29.7565 24.3303 29.697 24.4523 29.6671 24.5827C29.6373 24.7133 29.638 24.8489 29.6692 24.9792L31.541 32.7583C31.5864 32.9466 31.6935 33.1143 31.8451 33.2348C31.9968 33.3553 32.1844 33.4218 32.3781 33.4235C32.5718 33.425 32.7606 33.362 32.9143 33.244C33.0681 33.1262 33.1779 32.9603 33.2266 32.7728L35.211 25.1281C35.2444 25.0019 35.2488 24.8698 35.2242 24.7417C35.1994 24.6136 35.1461 24.4927 35.0682 24.388C34.9903 24.2834 34.8897 24.1977 34.774 24.1372C34.6585 24.0768 34.5307 24.0432 34.4003 24.0391L30.544 23.9072Z" fill="#B0D9FF" stroke="#020064" stroke-width="1.21" stroke-linejoin="round"/>
<path d="M37.268 50.2828C37.0901 46.3709 36.3907 38.0267 33.1734 38.4974C32.8683 38.5418 32.575 38.6458 32.3103 38.8038C32.0455 38.9617 31.8145 39.1701 31.6304 39.4175C31.4463 39.6647 31.3127 39.9457 31.2375 40.2446C31.1621 40.5436 31.1465 40.8543 31.1914 41.1594L31.3039 41.9338C32.134 47.6087 30.5392 53.9031 25.7778 54.5989L27.5081 66.4665L28.1131 66.3782C31.0897 65.9426 32.7995 67.8012 38.1295 67.0219L47.1658 65.703C47.7132 65.6228 48.2064 65.3283 48.5368 64.8845C48.8672 64.4406 49.0078 63.8837 48.9276 63.3363C48.8473 62.7887 48.5528 62.2955 48.109 61.9652C47.6652 61.6348 47.1082 61.4943 46.5608 61.5745L47.5929 61.4245C48.1403 61.3442 48.6335 61.0497 48.964 60.6059C49.2943 60.1621 49.4349 59.6051 49.3547 59.0577C49.2745 58.5102 48.9799 58.017 48.5361 57.6867C48.0923 57.3562 47.5353 57.2157 46.9879 57.2959L48.0201 57.1459C48.5675 57.0657 49.0607 56.7712 49.3911 56.3273C49.7214 55.8835 49.862 55.3265 49.7818 54.7791C49.7015 54.2316 49.4071 53.7384 48.9632 53.4081C48.5194 53.0776 47.9625 52.9372 47.4151 53.0174L48.446 52.8673C48.9934 52.7871 49.4866 52.4926 49.817 52.0488C50.1474 51.6049 50.288 51.048 50.2077 50.5006C50.1274 49.9531 49.833 49.4599 49.3892 49.1295C48.9453 48.7991 48.3884 48.6586 47.841 48.7388L37.268 50.2828Z" fill="white"/>
<path d="M35.2061 50.5841L37.2703 50.2828" stroke="#020064" stroke-width="1.21" stroke-linecap="round" stroke-linejoin="round"/>
<path d="M46.5622 61.5721L45.53 61.7233" stroke="#020064" stroke-width="1.21" stroke-linecap="round" stroke-linejoin="round"/>
<path d="M46.9904 57.2935L45.9595 57.4448" stroke="#020064" stroke-width="1.21" stroke-linecap="round" stroke-linejoin="round"/>
<path d="M47.4198 53.015L46.3877 53.1662" stroke="#020064" stroke-width="1.21" stroke-linecap="round" stroke-linejoin="round"/>
<path d="M24.5086 67.5555C24.5362 67.7419 24.5268 67.9318 24.4809 68.1145C24.4351 68.2972 24.3535 68.4691 24.2411 68.6202C24.1288 68.7713 23.9876 68.8989 23.8259 68.9954C23.6642 69.092 23.485 69.1557 23.2986 69.183L14.2914 70.7947C13.7235 67.5815 13.44 64.3245 13.4444 61.0614C13.4451 58.8781 13.57 56.6966 13.8183 54.5274L21.3203 53.1468C21.4603 53.1258 21.6029 53.1324 21.7403 53.1667C21.8776 53.2008 22.0068 53.2617 22.1206 53.3459C22.2343 53.4301 22.3304 53.5358 22.4032 53.6572C22.4759 53.7786 22.5241 53.9131 22.5448 54.0531L24.5086 67.5555Z" fill="#B0D9FF"/>
<path d="M13.8157 54.5395V54.5249L21.3177 53.1444C21.4575 53.1232 21.6003 53.13 21.7377 53.1641C21.875 53.1982 22.0042 53.2592 22.118 53.3433C22.2317 53.4275 22.3278 53.5334 22.4005 53.6548C22.4733 53.7761 22.5215 53.9106 22.5422 54.0506L24.5145 67.5555C24.5421 67.7417 24.5326 67.9317 24.4868 68.1144C24.4408 68.2971 24.3594 68.4689 24.247 68.62C24.1346 68.7713 23.9935 68.8987 23.8318 68.9954C23.67 69.0919 23.4908 69.1556 23.3045 69.1828L14.2973 70.7945" stroke="#020064" stroke-width="1.21" stroke-linecap="round" stroke-linejoin="round"/>
<path d="M24.5703 67.9488L26.2413 67.7068C26.618 67.6497 26.9567 67.4458 27.1834 67.1398C27.4102 66.8336 27.5065 66.4502 27.4513 66.0733L25.8311 54.9909C25.7744 54.6143 25.5707 54.2756 25.2649 54.0489C24.959 53.8221 24.5756 53.7257 24.1988 53.7809L22.5278 54.0229L24.5703 67.9488Z" fill="white" stroke="#020064" stroke-width="1.21" stroke-linecap="round" stroke-linejoin="round"/>
<path d="M37.268 50.2828C37.0901 46.3709 36.3907 38.0267 33.1734 38.4974C32.8683 38.5418 32.575 38.6458 32.3103 38.8038C32.0455 38.9617 31.8145 39.1701 31.6304 39.4175C31.4463 39.6647 31.3127 39.9457 31.2375 40.2446C31.1621 40.5436 31.1465 40.8543 31.1914 41.1594L31.3039 41.9338C32.134 47.6087 30.5392 53.9031 25.7778 54.5989L27.5081 66.4665L28.1131 66.3782C31.0897 65.9426 32.7995 67.8012 38.1295 67.0219L47.1658 65.703C47.7132 65.6228 48.2064 65.3283 48.5368 64.8845C48.8672 64.4406 49.0078 63.8837 48.9276 63.3363C48.8473 62.7887 48.5528 62.2955 48.109 61.9652C47.6652 61.6348 47.1082 61.4943 46.5608 61.5745L47.5929 61.4245C48.1403 61.3442 48.6335 61.0497 48.964 60.6059C49.2943 60.1621 49.4349 59.6051 49.3547 59.0577C49.2745 58.5102 48.9799 58.017 48.5361 57.6867C48.0923 57.3562 47.5353 57.2157 46.9879 57.2959L48.0201 57.1459C48.5675 57.0657 49.0607 56.7712 49.3911 56.3273C49.7214 55.8835 49.862 55.3265 49.7818 54.7791C49.7015 54.2316 49.4071 53.7384 48.9632 53.4081C48.5194 53.0776 47.9625 52.9372 47.4151 53.0174L48.446 52.8673C48.9934 52.7871 49.4866 52.4926 49.817 52.0488C50.1474 51.6049 50.288 51.048 50.2077 50.5006C50.1274 49.9531 49.833 49.4599 49.3892 49.1295C48.9453 48.7991 48.3884 48.6586 47.841 48.7388L37.268 50.2828Z" stroke="#020064" stroke-width="1.21" stroke-linejoin="round"/>
<path d="M83.4247 50.2828C83.6026 46.3709 84.302 38.0267 87.5193 38.4974C87.8244 38.5418 88.1176 38.6458 88.3823 38.8038C88.6471 38.9617 88.8782 39.1701 89.0622 39.4175C89.2463 39.6647 89.3798 39.9457 89.4551 40.2446C89.5305 40.5436 89.5462 40.8543 89.5013 41.1594L89.3888 41.9338C88.5587 47.6087 90.1535 53.9031 94.9149 54.5989L93.1846 66.4665L92.5796 66.3782C89.6042 65.9426 87.8932 67.8012 82.5632 67.0219L73.5293 65.703C72.9818 65.6228 72.4886 65.3283 72.1583 64.8845C71.8278 64.4406 71.6873 63.8837 71.7676 63.3363C71.8478 62.7887 72.1422 62.2955 72.586 61.9652C73.0298 61.6348 73.5868 61.4943 74.1343 61.5745L73.1022 61.4245C72.5547 61.3442 72.0615 61.0497 71.7311 60.6059C71.4007 60.1621 71.2602 59.6051 71.3404 59.0577C71.4207 58.5102 71.715 58.017 72.1589 57.6867C72.6027 57.3562 73.1597 57.2157 73.7072 57.2959L72.6751 57.1459C72.1275 57.0657 71.6343 56.7712 71.304 56.3273C70.9736 55.8835 70.8331 55.3265 70.9133 54.7791C70.9935 54.2316 71.2879 53.7384 71.7317 53.4081C72.1756 53.0776 72.7325 52.9372 73.2801 53.0174L72.2479 52.8673C71.7004 52.7871 71.2072 52.4926 70.8769 52.0488C70.5464 51.6049 70.4059 51.048 70.4862 50.5006C70.5664 49.9531 70.8608 49.4599 71.3046 49.1295C71.7484 48.7991 72.3054 48.6586 72.8529 48.7388L83.4247 50.2828Z" fill="white"/>
<path d="M85.4888 50.5841L83.4246 50.2828" stroke="#020064" stroke-width="1.21" stroke-linecap="round" stroke-linejoin="round"/>
<path d="M74.1331 61.5721L75.1652 61.7233" stroke="#020064" stroke-width="1.21" stroke-linecap="round" stroke-linejoin="round"/>
<path d="M73.7048 57.2935L74.737 57.4448" stroke="#020064" stroke-width="1.21" stroke-linecap="round" stroke-linejoin="round"/>
<path d="M73.2764 53.015L74.3085 53.1662" stroke="#020064" stroke-width="1.21" stroke-linecap="round" stroke-linejoin="round"/>
<path d="M107.268 60.7419C107.269 63.9899 106.989 67.2317 106.433 70.4315L97.405 69.1828C97.2173 69.1574 97.0365 69.0948 96.8732 68.999C96.7098 68.9032 96.567 68.776 96.4532 68.6246C96.3393 68.4733 96.2566 68.3008 96.2097 68.1173C96.1629 67.9339 96.153 67.7428 96.1804 67.5554L98.1503 54.0506C98.1953 53.7668 98.3507 53.5122 98.5825 53.3425C98.8144 53.1727 99.1039 53.1015 99.3882 53.1443L106.879 54.1655C107.14 56.348 107.269 58.544 107.268 60.7419Z" fill="#B0D9FF"/>
<path d="M106.433 70.434L97.405 69.1828C97.2173 69.1574 97.0365 69.0948 96.8732 68.999C96.7098 68.9032 96.567 68.776 96.4532 68.6246C96.3393 68.4733 96.2566 68.3008 96.2097 68.1173C96.1629 67.9339 96.153 67.7428 96.1804 67.5554L98.1503 54.0506C98.1953 53.7668 98.3507 53.5122 98.5825 53.3425C98.8144 53.1727 99.1039 53.1015 99.3882 53.1443L106.879 54.1655" stroke="#020064" stroke-width="1.21" stroke-linecap="round" stroke-linejoin="round"/>
<path d="M96.126 67.9488L94.4538 67.7068C94.076 67.6511 93.7359 67.4478 93.5078 67.1416C93.2798 66.8353 93.1827 66.4511 93.2377 66.0733L94.864 54.9897C94.9208 54.6131 95.1244 54.2744 95.4304 54.0477C95.7363 53.8209 96.1195 53.7245 96.4963 53.7797L98.1685 54.0217L96.126 67.9488Z" fill="white" stroke="#020064" stroke-width="1.21" stroke-linecap="round" stroke-linejoin="round"/>
<path d="M83.4247 50.2828C83.6026 46.3709 84.302 38.0267 87.5193 38.4974C87.8244 38.5418 88.1176 38.6458 88.3823 38.8038C88.6471 38.9617 88.8782 39.1701 89.0622 39.4175C89.2463 39.6647 89.3798 39.9457 89.4551 40.2446C89.5305 40.5436 89.5462 40.8543 89.5013 41.1594L89.3888 41.9338C88.5587 47.6087 90.1535 53.9031 94.9149 54.5989L93.1846 66.4665L92.5796 66.3782C89.6042 65.9426 87.8932 67.8012 82.5632 67.0219L73.5293 65.703C72.9818 65.6228 72.4886 65.3283 72.1583 64.8845C71.8278 64.4406 71.6873 63.8837 71.7676 63.3363C71.8478 62.7887 72.1422 62.2955 72.586 61.9652C73.0298 61.6348 73.5868 61.4943 74.1343 61.5745L73.1022 61.4245C72.5547 61.3442 72.0615 61.0497 71.7311 60.6059C71.4007 60.1621 71.2602 59.6051 71.3404 59.0577C71.4207 58.5102 71.715 58.017 72.1589 57.6867C72.6027 57.3562 73.1597 57.2157 73.7072 57.2959L72.6751 57.1459C72.1275 57.0657 71.6343 56.7712 71.304 56.3273C70.9736 55.8835 70.8331 55.3265 70.9133 54.7791C70.9935 54.2316 71.2879 53.7384 71.7317 53.4081C72.1756 53.0776 72.7325 52.9372 73.2801 53.0174L72.2479 52.8673C71.7004 52.7871 71.2072 52.4926 70.8769 52.0488C70.5464 51.6049 70.4059 51.048 70.4862 50.5006C70.5664 49.9531 70.8608 49.4599 71.3046 49.1295C71.7484 48.7991 72.3054 48.6586 72.8529 48.7388L83.4247 50.2828Z" stroke="#020064" stroke-width="1.21" stroke-linejoin="round"/>
<path d="M56.9534 80.0113C57.3588 74.7575 58.6474 63.5613 62.9611 64.3297C63.7854 64.4771 64.5176 64.9458 64.9966 65.6328C65.4756 66.3199 65.6621 67.1691 65.5154 67.9936L65.3302 69.0305C63.9726 76.6305 65.8518 85.1647 72.2272 86.3021L69.397 102.194L68.5815 102.049C64.597 101.338 62.2169 103.765 55.0791 102.491L42.9888 100.333C42.2558 100.202 41.6048 99.7858 41.179 99.1751C40.7532 98.5643 40.5874 97.8095 40.7182 97.0765C40.8489 96.3435 41.2655 95.6925 41.8763 95.2667C42.487 94.8409 43.2419 94.6751 43.9749 94.8059L42.5931 94.5639C42.2301 94.4991 41.8836 94.3634 41.5731 94.1646C41.2626 93.9658 40.9942 93.7079 40.7835 93.4054C40.5727 93.103 40.4236 92.7619 40.3446 92.4018C40.2656 92.0417 40.2583 91.6695 40.3232 91.3066C40.3879 90.9437 40.5237 90.5971 40.7223 90.2866C40.9212 89.9761 41.1791 89.7079 41.4816 89.4971C41.7841 89.2863 42.1251 89.1371 42.4852 89.0581C42.8454 88.9791 43.2175 88.9718 43.5805 89.0367L42.1987 88.7947C41.8357 88.7299 41.4891 88.5943 41.1785 88.3956C40.868 88.1969 40.5997 87.939 40.3889 87.6366C40.178 87.3342 40.0288 86.9932 39.9498 86.6331C39.8706 86.273 39.8633 85.9008 39.9281 85.5379C39.9928 85.1751 40.1284 84.8284 40.3272 84.5179C40.5258 84.2073 40.7837 83.9391 41.0862 83.7282C41.3886 83.5174 41.7296 83.3682 42.0896 83.289C42.4497 83.21 42.8218 83.2027 43.1848 83.2674L41.803 83.0254C41.07 82.8946 40.419 82.478 39.9932 81.8673C39.5674 81.2565 39.4016 80.5017 39.5324 79.7687C39.6631 79.0357 40.0797 78.3847 40.6905 77.9589C41.3012 77.5331 42.0561 77.3673 42.7891 77.4981L56.9534 80.0113Z" fill="white"/>
<path d="M59.7173 80.5049L56.9536 80.0112" stroke="#020064" stroke-width="1.21" stroke-linecap="round" stroke-linejoin="round"/>
<path d="M43.9749 94.806L45.3567 95.0517" stroke="#020064" stroke-width="1.21" stroke-linecap="round" stroke-linejoin="round"/>
<path d="M43.5806 89.0318L44.9624 89.2774" stroke="#020064" stroke-width="1.21" stroke-linecap="round" stroke-linejoin="round"/>
<path d="M43.1848 83.2577L44.5666 83.5045" stroke="#020064" stroke-width="1.21" stroke-linecap="round" stroke-linejoin="round"/>
<path d="M99.307 88.2852C92.8612 96.399 84.253 102.525 74.4754 105.957L74.4197 105.944C74.0552 105.876 73.7322 105.667 73.5218 105.362C73.3113 105.056 73.2304 104.68 73.2969 104.315L76.6231 85.6607C76.6544 85.4786 76.7214 85.3045 76.8204 85.1484C76.9195 84.9925 77.0485 84.8577 77.1999 84.7518C77.3514 84.646 77.5224 84.5714 77.7029 84.5322C77.8835 84.4928 78.0701 84.4899 78.2518 84.5233L99.307 88.2852Z" fill="#B0D9FF"/>
<path d="M74.4899 105.957H74.4754L74.4197 105.944C74.0552 105.876 73.7322 105.667 73.5218 105.362C73.3113 105.056 73.2304 104.68 73.2969 104.315L76.6231 85.6607C76.6544 85.4786 76.7214 85.3045 76.8204 85.1484C76.9195 84.9925 77.0485 84.8577 77.1999 84.7518C77.3514 84.646 77.5224 84.5714 77.7029 84.5322C77.8835 84.4928 78.0701 84.4899 78.2518 84.5233L99.3058 88.2852" stroke="#020064" stroke-width="1.21" stroke-linecap="round" stroke-linejoin="round"/>
<path d="M73.2897 104.315L70.526 103.818C70.1598 103.753 69.8345 103.544 69.6217 103.239C69.4088 102.934 69.326 102.557 69.3911 102.191L72.2273 86.2984C72.2934 85.9323 72.5018 85.6071 72.8071 85.3944C73.1124 85.1817 73.4896 85.0986 73.856 85.1634L76.6196 85.6571L73.2897 104.315Z" fill="white" stroke="#020064" stroke-width="1.21" stroke-linecap="round" stroke-linejoin="round"/>
<path d="M56.9534 80.0113C57.3588 74.7575 58.6474 63.5613 62.9611 64.3297C63.7854 64.4771 64.5176 64.9458 64.9966 65.6328C65.4756 66.3199 65.6621 67.1691 65.5154 67.9936L65.3302 69.0305C63.9726 76.6305 65.8518 85.1647 72.2272 86.3021L69.397 102.194L68.5815 102.049C64.597 101.338 62.2169 103.765 55.0791 102.491L42.9888 100.333C42.2558 100.202 41.6048 99.7858 41.179 99.1751C40.7532 98.5643 40.5874 97.8095 40.7182 97.0765C40.8489 96.3435 41.2655 95.6925 41.8763 95.2667C42.487 94.8409 43.2419 94.6751 43.9749 94.8059L42.5931 94.5639C42.2301 94.4991 41.8836 94.3634 41.5731 94.1646C41.2626 93.9658 40.9942 93.7079 40.7835 93.4054C40.5727 93.103 40.4236 92.7619 40.3446 92.4018C40.2656 92.0417 40.2583 91.6695 40.3232 91.3066C40.3879 90.9437 40.5237 90.5971 40.7223 90.2866C40.9212 89.9761 41.1791 89.7079 41.4816 89.4971C41.7841 89.2863 42.1251 89.1371 42.4852 89.0581C42.8454 88.9791 43.2175 88.9718 43.5805 89.0367L42.1987 88.7947C41.8357 88.7299 41.4891 88.5943 41.1785 88.3956C40.868 88.1969 40.5997 87.939 40.3889 87.6366C40.178 87.3342 40.0288 86.9932 39.9498 86.6331C39.8706 86.273 39.8633 85.9008 39.9281 85.5379C39.9928 85.1751 40.1284 84.8284 40.3272 84.5179C40.5258 84.2073 40.7837 83.9391 41.0862 83.7282C41.3886 83.5174 41.7296 83.3682 42.0896 83.289C42.4497 83.21 42.8218 83.2027 43.1848 83.2674L41.803 83.0254C41.07 82.8946 40.419 82.478 39.9932 81.8673C39.5674 81.2565 39.4016 80.5017 39.5324 79.7687C39.6631 79.0357 40.0797 78.3847 40.6905 77.9589C41.3012 77.5331 42.0561 77.3673 42.7891 77.4981L56.9534 80.0113Z" stroke="#020064" stroke-width="1.21" stroke-linejoin="round"/>
</svg>
