<svg width="16" height="16" viewBox="0 0 16 16" fill="none" xmlns="http://www.w3.org/2000/svg">
<g clip-path="url(#clip0_400_1870)">
<path d="M2.37792 12.0887C1.83575 12.0887 1.31579 11.8733 0.932357 11.49C0.548926 11.1067 0.333429 10.5868 0.333252 10.0447V7.99999C0.333252 7.45771 0.548672 6.93764 0.932121 6.55419C1.31557 6.17074 1.83564 5.95532 2.37792 5.95532V12.0887Z" stroke="black" stroke-width="0.666667" stroke-linecap="round" stroke-linejoin="round"/>
<path d="M13.6221 5.95532C14.1643 5.95532 14.6844 6.17074 15.0679 6.55419C15.4513 6.93764 15.6667 7.45771 15.6667 7.99999V10.0447C15.6666 10.5868 15.4511 11.1067 15.0676 11.49C14.6842 11.8733 14.1642 12.0887 13.6221 12.0887V5.95532Z" stroke="black" stroke-width="0.666667" stroke-linecap="round" stroke-linejoin="round"/>
<path d="M2.37793 5.95525C2.37793 4.4642 2.97025 3.03423 4.02458 1.9799C5.07891 0.925568 6.50888 0.333252 7.99993 0.333252V0.333252C9.49098 0.333252 10.921 0.925568 11.9753 1.9799C13.0296 3.03423 13.6219 4.4642 13.6219 5.95525" stroke="black" stroke-width="0.666667" stroke-linecap="round" stroke-linejoin="round"/>
<path d="M10.0447 14.6446H11.578C12.1202 14.6444 12.6401 14.4289 13.0234 14.0455C13.4067 13.6621 13.622 13.1421 13.622 12.6V12.0886" stroke="black" stroke-width="0.666667" stroke-linecap="round" stroke-linejoin="round"/>
<path d="M9.02203 15.6667H8.00003C7.86582 15.6667 7.73292 15.6403 7.60893 15.5889C7.48493 15.5376 7.37227 15.4623 7.27736 15.3674C7.18246 15.2725 7.10718 15.1598 7.05582 15.0358C7.00446 14.9118 6.97803 14.7789 6.97803 14.6447V14.6447C6.97794 14.5105 7.00431 14.3775 7.05563 14.2534C7.10695 14.1294 7.18222 14.0166 7.27713 13.9216C7.37204 13.8267 7.48473 13.7513 7.60877 13.6999C7.73281 13.6485 7.86576 13.6221 8.00003 13.6221H9.02203C9.29326 13.6221 9.55337 13.7298 9.74516 13.9216C9.93695 14.1134 10.0447 14.3735 10.0447 14.6447V14.6447C10.0447 14.779 10.0182 14.912 9.96684 15.036C9.91543 15.16 9.84009 15.2727 9.74512 15.3676C9.65015 15.4625 9.53741 15.5378 9.41333 15.5891C9.28926 15.6405 9.15629 15.6668 9.02203 15.6667V15.6667Z" stroke="black" stroke-width="0.666667" stroke-linecap="round" stroke-linejoin="round"/>
<path d="M7.98067 8.62271C8.5127 8.62271 8.944 8.19141 8.944 7.65938C8.944 7.12734 8.5127 6.69604 7.98067 6.69604C7.44863 6.69604 7.01733 7.12734 7.01733 7.65938C7.01733 8.19141 7.44863 8.62271 7.98067 8.62271Z" stroke="black" stroke-width="0.666667" stroke-linecap="round" stroke-linejoin="round"/>
<path d="M8.79992 3.9334L9.08392 4.86674C9.13068 5.02153 9.23449 5.15279 9.37433 5.23397C9.51418 5.31516 9.67964 5.34021 9.83725 5.30407L10.7832 5.08474C10.9622 5.04519 11.149 5.06382 11.3166 5.13791C11.4842 5.212 11.6237 5.33768 11.7149 5.49662C11.806 5.65557 11.844 5.83947 11.8234 6.02153C11.8027 6.20359 11.7244 6.37429 11.5999 6.50874L10.9386 7.22207C10.8283 7.34102 10.7671 7.49722 10.7671 7.6594C10.7671 7.82159 10.8283 7.97779 10.9386 8.09674L11.5999 8.81007C11.7249 8.94454 11.8036 9.11548 11.8244 9.29788C11.8453 9.48028 11.8072 9.66456 11.7158 9.82377C11.6244 9.98298 11.4844 10.1088 11.3164 10.1827C11.1483 10.2567 10.9611 10.2749 10.7819 10.2347L9.83592 10.0154C9.67829 9.9791 9.51276 10.0041 9.37288 10.0853C9.23299 10.1665 9.12921 10.2979 9.08258 10.4527L8.79858 11.3861C8.74582 11.562 8.63774 11.7162 8.49038 11.8259C8.34303 11.9355 8.16425 11.9947 7.98058 11.9947C7.79691 11.9947 7.61813 11.9355 7.47078 11.8259C7.32343 11.7162 7.21535 11.562 7.16258 11.3861L6.87858 10.4527C6.83181 10.2978 6.72791 10.1664 6.58791 10.0852C6.44791 10.004 6.28229 9.97907 6.12458 10.0154L5.17925 10.2347C4.99999 10.2754 4.81241 10.2575 4.64408 10.1837C4.47574 10.1098 4.33551 9.98397 4.24399 9.82457C4.15246 9.66516 4.11446 9.48061 4.13557 9.29801C4.15667 9.11541 4.23577 8.94439 4.36125 8.81007L5.02258 8.09674C5.13283 7.97779 5.19409 7.82159 5.19409 7.6594C5.19409 7.49722 5.13283 7.34102 5.02258 7.22207L4.36125 6.50874C4.23577 6.37441 4.15667 6.20339 4.13557 6.0208C4.11446 5.8382 4.15246 5.65365 4.24399 5.49424C4.33551 5.33483 4.47574 5.20898 4.64408 5.13515C4.81241 5.06133 4.99999 5.04342 5.17925 5.08407L6.12458 5.3034C6.28219 5.3396 6.44767 5.31466 6.58761 5.23362C6.72755 5.15257 6.83154 5.02146 6.87858 4.86674L7.16258 3.9334C7.21498 3.75695 7.32299 3.60215 7.47051 3.49207C7.61804 3.38198 7.79718 3.32251 7.98125 3.32251C8.16532 3.32251 8.34446 3.38198 8.49198 3.49207C8.63951 3.60215 8.74752 3.75695 8.79992 3.9334V3.9334Z" stroke="black" stroke-width="0.666667" stroke-linecap="round" stroke-linejoin="round"/>
</g>
<defs>
<clipPath id="clip0_400_1870">
<rect width="16" height="16" fill="white"/>
</clipPath>
</defs>
</svg>
