<svg width="18" height="18" viewBox="0 0 18 18" fill="none" xmlns="http://www.w3.org/2000/svg">
<g clip-path="url(#clip0_400_1886)">
<path d="M4.125 15.375H13.875C14.2728 15.375 14.6544 15.533 14.9357 15.8143C15.217 16.0956 15.375 16.4772 15.375 16.875V17.25C15.375 17.3495 15.3355 17.4448 15.2652 17.5152C15.1948 17.5855 15.0995 17.625 15 17.625H3C2.90054 17.625 2.80516 17.5855 2.73484 17.5152C2.66451 17.4448 2.625 17.3495 2.625 17.25V16.875C2.625 16.4772 2.78304 16.0956 3.06434 15.8143C3.34564 15.533 3.72718 15.375 4.125 15.375V15.375Z" stroke="black" stroke-width="0.75" stroke-linecap="round" stroke-linejoin="round"/>
<path d="M15.75 8.625H17.625" stroke="black" stroke-width="0.75" stroke-linecap="round" stroke-linejoin="round"/>
<path d="M14.25 4.125L15.75 2.625" stroke="black" stroke-width="0.75" stroke-linecap="round" stroke-linejoin="round"/>
<path d="M2.25 8.25H0.375" stroke="black" stroke-width="0.75" stroke-linecap="round" stroke-linejoin="round"/>
<path d="M3.75 4.125L2.25 2.625" stroke="black" stroke-width="0.75" stroke-linecap="round" stroke-linejoin="round"/>
<path d="M9 2.625V0.375" stroke="black" stroke-width="0.75" stroke-linecap="round" stroke-linejoin="round"/>
<path d="M11.625 9.75C11.625 9.65054 11.5855 9.55516 11.5152 9.48483C11.4448 9.41451 11.3495 9.375 11.25 9.375H10.125V8.25C10.125 8.15054 10.0855 8.05516 10.0152 7.98483C9.94484 7.91451 9.84946 7.875 9.75 7.875H8.25C8.15054 7.875 8.05516 7.91451 7.98483 7.98483C7.91451 8.05516 7.875 8.15054 7.875 8.25V9.375H6.75C6.65054 9.375 6.55516 9.41451 6.48483 9.48483C6.41451 9.55516 6.375 9.65054 6.375 9.75V11.25C6.375 11.3495 6.41451 11.4448 6.48483 11.5152C6.55516 11.5855 6.65054 11.625 6.75 11.625H7.875V12.75C7.875 12.8495 7.91451 12.9448 7.98483 13.0152C8.05516 13.0855 8.15054 13.125 8.25 13.125H9.75C9.84946 13.125 9.94484 13.0855 10.0152 13.0152C10.0855 12.9448 10.125 12.8495 10.125 12.75V11.625H11.25C11.3495 11.625 11.4448 11.5855 11.5152 11.5152C11.5855 11.4448 11.625 11.3495 11.625 11.25V9.75Z" stroke="black" stroke-width="0.75" stroke-linecap="round" stroke-linejoin="round"/>
<path d="M13.875 15.375H4.125V9.75C4.125 8.45707 4.63861 7.21709 5.55285 6.30285C6.46709 5.38861 7.70707 4.875 9 4.875C10.2929 4.875 11.5329 5.38861 12.4471 6.30285C13.3614 7.21709 13.875 8.45707 13.875 9.75V15.375Z" stroke="black" stroke-width="0.75" stroke-linecap="round" stroke-linejoin="round"/>
</g>
<defs>
<clipPath id="clip0_400_1886">
<rect width="18" height="18" fill="white"/>
</clipPath>
</defs>
</svg>
