<svg width="121" height="121" viewBox="0 0 121 121" fill="none" xmlns="http://www.w3.org/2000/svg">
<path d="M12.1001 60.5001C12.1001 73.3366 17.1994 85.6473 26.2761 94.7241C35.3529 103.801 47.6636 108.9 60.5001 108.9C73.3366 108.9 85.6473 103.801 94.7241 94.7241C103.801 85.6473 108.9 73.3366 108.9 60.5001C108.9 47.6636 103.801 35.3529 94.7241 26.2761C85.6473 17.1994 73.3366 12.1001 60.5001 12.1001C47.6636 12.1001 35.3529 17.1994 26.2761 26.2761C17.1994 35.3529 12.1001 47.6636 12.1001 60.5001Z" fill="#D9EDFF"/>
<path d="M60.7022 26.1929C54.2119 26.1929 47.8675 28.1175 42.471 31.7232C37.0746 35.329 32.8686 40.454 30.3849 46.4502C27.9012 52.4464 27.2513 59.0445 28.5175 65.41C29.7837 71.7755 32.909 77.6226 37.4983 82.2119C42.0876 86.8012 47.9347 89.9266 54.3003 91.1927C60.6658 92.4589 67.2638 91.8091 73.26 89.3254C79.2562 86.8417 84.3812 82.6357 87.987 77.2392C91.5928 71.8428 93.5174 65.4983 93.5174 59.0081C93.5174 54.6987 92.6686 50.4316 91.0195 46.4502C89.3703 42.4689 86.9532 38.8514 83.906 35.8042C80.8589 32.757 77.2413 30.3399 73.26 28.6908C69.2787 27.0417 65.0115 26.1929 60.7022 26.1929ZM60.7022 77.0032C57.1431 77.0032 53.6639 75.9478 50.7046 73.9705C47.7453 71.9931 45.4389 69.1827 44.0769 65.8945C42.7148 62.6063 42.3585 58.9881 43.0528 55.4974C43.7472 52.0067 45.461 48.8003 47.9777 46.2836C50.4944 43.7669 53.7008 42.0531 57.1915 41.3587C60.6822 40.6644 64.3004 41.0207 67.5886 42.3828C70.8768 43.7448 73.6872 46.0512 75.6646 49.0105C77.6419 51.9698 78.6973 55.449 78.6973 59.0081C78.6973 63.7807 76.8014 68.3578 73.4266 71.7325C70.0519 75.1073 65.4748 77.0032 60.7022 77.0032Z" fill="#B0D9FF"/>
<path d="M60.7022 26.1929C54.2119 26.1929 47.8675 28.1175 42.471 31.7232C37.0746 35.329 32.8686 40.454 30.3849 46.4502C27.9012 52.4464 27.2513 59.0445 28.5175 65.41C29.7837 71.7755 32.909 77.6226 37.4983 82.2119C42.0876 86.8012 47.9347 89.9266 54.3003 91.1927C60.6658 92.4589 67.2638 91.8091 73.26 89.3254C79.2562 86.8417 84.3812 82.6357 87.987 77.2392C91.5928 71.8428 93.5174 65.4983 93.5174 59.0081C93.5174 54.6987 92.6686 50.4316 91.0195 46.4502C89.3703 42.4689 86.9532 38.8514 83.906 35.8042C80.8589 32.757 77.2413 30.3399 73.26 28.6908C69.2787 27.0417 65.0115 26.1929 60.7022 26.1929V26.1929ZM60.7022 77.0032C57.1431 77.0032 53.6639 75.9478 50.7046 73.9705C47.7453 71.9931 45.4389 69.1827 44.0769 65.8945C42.7148 62.6063 42.3585 58.9881 43.0528 55.4974C43.7472 52.0067 45.461 48.8003 47.9777 46.2836C50.4944 43.7669 53.7008 42.0531 57.1915 41.3587C60.6822 40.6644 64.3004 41.0207 67.5886 42.3828C70.8768 43.7448 73.6872 46.0512 75.6646 49.0105C77.6419 51.9698 78.6973 55.449 78.6973 59.0081C78.6973 63.7807 76.8014 68.3578 73.4266 71.7325C70.0519 75.1073 65.4748 77.0032 60.7022 77.0032Z" stroke="#020064" stroke-width="1.21" stroke-linecap="round" stroke-linejoin="round"/>
<path d="M55.4094 21.959H65.9945V43.1304H55.4094V21.959Z" fill="white" stroke="#020064" stroke-width="1.21" stroke-linecap="round" stroke-linejoin="round"/>
<path d="M55.4094 74.8857H65.9945V96.0571H55.4094V74.8857Z" fill="white" stroke="#020064" stroke-width="1.21" stroke-linecap="round" stroke-linejoin="round"/>
<path d="M76.5796 53.7156H97.751V64.3007H76.5796V53.7156Z" fill="white" stroke="#020064" stroke-width="1.21" stroke-linecap="round" stroke-linejoin="round"/>
<path d="M23.6531 53.7156H44.8244V64.3007H23.6531V53.7156Z" fill="white" stroke="#020064" stroke-width="1.21" stroke-linecap="round" stroke-linejoin="round"/>
<path d="M25.7729 64.3005L28.1433 82.0754C28.646 85.8451 30.5786 89.2772 33.5412 91.6616C36.5039 94.0461 40.2697 95.2004 44.0597 94.8857L55.4095 93.9395" stroke="#020064" stroke-width="1.21" stroke-linecap="round" stroke-linejoin="round"/>
<path d="M95.6336 64.3005L93.2632 82.0754C92.7608 85.8459 90.8277 89.2787 87.8642 91.6633C84.9008 94.0479 81.1338 95.2017 77.3432 94.8857L65.9946 93.9395" stroke="#020064" stroke-width="1.21" stroke-linecap="round" stroke-linejoin="round"/>
</svg>
