<svg width="24" height="24" viewBox="0 0 24 24" fill="none" xmlns="http://www.w3.org/2000/svg">
<g clip-path="url(#clip0_136_3431)">
<path d="M12 1C5.649 1 0.5 5.253 0.5 10.5C0.526674 11.8063 0.845968 13.09 1.43438 14.2567C2.02279 15.4233 2.86534 16.4431 3.9 17.241L1.5 23L7.872 19.359C9.20681 19.7839 10.5992 20.0001 12 20C18.351 20 23.5 15.747 23.5 10.5C23.5 5.253 18.351 1 12 1Z" fill="#9FEAFF"/>
<path d="M12 5C14.1915 4.94232 16.3671 5.38678 18.3604 6.29935C20.3536 7.21191 22.1117 8.5684 23.5 10.265C23.346 5.127 18.256 1 12 1C5.744 1 0.654 5.127 0.5 10.265C1.88832 8.5684 3.64639 7.21191 5.63965 6.29935C7.63291 5.38678 9.80853 4.94232 12 5Z" fill="#DFF9FF"/>
<path d="M12 1C5.649 1 0.5 5.253 0.5 10.5C0.526674 11.8063 0.845968 13.09 1.43438 14.2567C2.02279 15.4233 2.86534 16.4431 3.9 17.241L1.5 23L7.872 19.359C9.20681 19.7839 10.5992 20.0001 12 20C18.351 20 23.5 15.747 23.5 10.5C23.5 5.253 18.351 1 12 1Z" stroke="#00303E" stroke-linecap="round" stroke-linejoin="round"/>
<path d="M9 8.00001C9.00026 7.4592 9.14671 6.92852 9.42385 6.46412C9.70098 5.99972 10.0985 5.61887 10.5743 5.36186C11.0502 5.10486 11.5866 4.98127 12.127 5.00415C12.6673 5.02704 13.1914 5.19556 13.6438 5.49188C14.0962 5.78821 14.4601 6.20131 14.6969 6.68748C14.9338 7.17366 15.0348 7.71482 14.9894 8.25371C14.9439 8.79261 14.7536 9.30919 14.4386 9.74879C14.1236 10.1884 13.6957 10.5347 13.2 10.751C12.8432 10.9067 12.5396 11.1632 12.3264 11.489C12.1133 11.8148 11.9998 12.1957 12 12.585V13" stroke="#00303E" stroke-linecap="round" stroke-linejoin="round"/>
<path d="M12 15.25C12.0494 15.25 12.0978 15.2647 12.1389 15.2921C12.18 15.3196 12.212 15.3586 12.231 15.4043C12.2499 15.45 12.2548 15.5003 12.2452 15.5488C12.2356 15.5973 12.2117 15.6418 12.1768 15.6768C12.1418 15.7117 12.0973 15.7356 12.0488 15.7452C12.0003 15.7548 11.95 15.7499 11.9043 15.731C11.8586 15.712 11.8196 15.68 11.7921 15.6389C11.7647 15.5978 11.75 15.5494 11.75 15.5C11.75 15.4337 11.7763 15.3701 11.8232 15.3232C11.8701 15.2763 11.9337 15.25 12 15.25Z" stroke="#00303E" stroke-linecap="round" stroke-linejoin="round"/>
</g>
<defs>
<clipPath id="clip0_136_3431">
<rect width="24" height="24" fill="white"/>
</clipPath>
</defs>
</svg>
