<svg width="18" height="18" viewBox="0 0 18 18" fill="none" xmlns="http://www.w3.org/2000/svg">
<path d="M14.625 14.625C14.625 14.2272 14.467 13.8456 14.1857 13.5643C13.9044 13.283 13.5228 13.125 13.125 13.125C12.7272 13.125 12.3456 13.283 12.0643 13.5643C11.783 13.8456 11.625 14.2272 11.625 14.625V15C11.625 15.0995 11.5855 15.1948 11.5152 15.2652C11.4448 15.3355 11.3495 15.375 11.25 15.375H6.375C6.27554 15.375 6.18016 15.3355 6.10983 15.2652C6.03951 15.1948 6 15.0995 6 15V14.625C6 14.2272 5.84196 13.8456 5.56066 13.5643C5.27936 13.283 4.89782 13.125 4.5 13.125C4.10218 13.125 3.72064 13.283 3.43934 13.5643C3.15804 13.8456 3 14.2272 3 14.625V15C3 15.0995 2.96049 15.1948 2.89016 15.2652C2.81984 15.3355 2.72446 15.375 2.625 15.375H1.125C0.926088 15.375 0.735322 15.296 0.59467 15.1553C0.454018 15.0147 0.375 14.8239 0.375 14.625V3.375C0.375 3.17609 0.454018 2.98532 0.59467 2.84467C0.735322 2.70402 0.926088 2.625 1.125 2.625H16.875C17.0739 2.625 17.2647 2.70402 17.4053 2.84467C17.546 2.98532 17.625 3.17609 17.625 3.375V14.625C17.625 14.8239 17.546 15.0147 17.4053 15.1553C17.2647 15.296 17.0739 15.375 16.875 15.375H15C14.9005 15.375 14.8052 15.3355 14.7348 15.2652C14.6645 15.1948 14.625 15.0995 14.625 15V14.625Z" fill="#DFF9FF"/>
<path d="M1.125 2.625C0.926088 2.625 0.735322 2.70402 0.59467 2.84467C0.454018 2.98532 0.375 3.17609 0.375 3.375V14.625C0.375 14.8239 0.454018 15.0147 0.59467 15.1553C0.735322 15.296 0.926088 15.375 1.125 15.375H2.625C2.72446 15.375 2.81984 15.3355 2.89016 15.2652C2.96049 15.1948 3 15.0995 3 15V14.625C3.00092 14.3323 3.08745 14.0463 3.24893 13.8022C3.41041 13.5581 3.63977 13.3665 3.90877 13.2512C4.17776 13.1358 4.47463 13.1017 4.76279 13.1529C5.05095 13.2042 5.31782 13.3387 5.5305 13.5397L16.4445 2.625H1.125Z" fill="white"/>
<path d="M10.125 10.875H15.375" stroke="#00303E" stroke-width="0.75" stroke-linecap="round" stroke-linejoin="round"/>
<path d="M10.125 8.625H15.375" stroke="#00303E" stroke-width="0.75" stroke-linecap="round" stroke-linejoin="round"/>
<path d="M12.375 6.375H15" stroke="#00303E" stroke-width="0.75" stroke-linecap="round" stroke-linejoin="round"/>
<path d="M2.25 10.875C2.26253 10.5079 2.35142 10.1475 2.511 9.8167C2.69475 9.4492 3.46275 9.1942 4.42725 8.83645C4.68825 8.7397 4.6455 8.05945 4.53 7.93195C4.34614 7.73261 4.20647 7.49668 4.12013 7.2396C4.03379 6.98253 4.00274 6.71011 4.029 6.4402C4.01323 6.27207 4.03332 6.1025 4.08796 5.9427C4.14259 5.78291 4.23052 5.63653 4.34594 5.51325C4.46135 5.38997 4.60162 5.29259 4.75746 5.22755C4.91331 5.16251 5.08119 5.13129 5.25 5.13595C5.41881 5.13129 5.58669 5.16251 5.74254 5.22755C5.89838 5.29259 6.03865 5.38997 6.15406 5.51325C6.26948 5.63653 6.35741 5.78291 6.41204 5.9427C6.46668 6.1025 6.48677 6.27207 6.471 6.4402C6.49726 6.71011 6.46621 6.98253 6.37987 7.2396C6.29353 7.49668 6.15386 7.73261 5.97 7.93195C5.8545 8.05945 5.81175 8.7397 6.07275 8.83645C7.03725 9.1942 7.80525 9.4492 7.989 9.8167C8.14858 10.1475 8.23747 10.5079 8.25 10.875H2.25Z" fill="#9FEAFF" stroke="#00303E" stroke-width="0.75" stroke-linecap="round" stroke-linejoin="round"/>
<path d="M14.625 14.625C14.625 14.2272 14.467 13.8456 14.1857 13.5643C13.9044 13.283 13.5228 13.125 13.125 13.125C12.7272 13.125 12.3456 13.283 12.0643 13.5643C11.783 13.8456 11.625 14.2272 11.625 14.625V15C11.625 15.0995 11.5855 15.1948 11.5152 15.2652C11.4448 15.3355 11.3495 15.375 11.25 15.375H6.375C6.27554 15.375 6.18016 15.3355 6.10983 15.2652C6.03951 15.1948 6 15.0995 6 15V14.625C6 14.2272 5.84196 13.8456 5.56066 13.5643C5.27936 13.283 4.89782 13.125 4.5 13.125C4.10218 13.125 3.72064 13.283 3.43934 13.5643C3.15804 13.8456 3 14.2272 3 14.625V15C3 15.0995 2.96049 15.1948 2.89016 15.2652C2.81984 15.3355 2.72446 15.375 2.625 15.375H1.125C0.926088 15.375 0.735322 15.296 0.59467 15.1553C0.454018 15.0147 0.375 14.8239 0.375 14.625V3.375C0.375 3.17609 0.454018 2.98532 0.59467 2.84467C0.735322 2.70402 0.926088 2.625 1.125 2.625H16.875C17.0739 2.625 17.2647 2.70402 17.4053 2.84467C17.546 2.98532 17.625 3.17609 17.625 3.375V14.625C17.625 14.8239 17.546 15.0147 17.4053 15.1553C17.2647 15.296 17.0739 15.375 16.875 15.375H15C14.9005 15.375 14.8052 15.3355 14.7348 15.2652C14.6645 15.1948 14.625 15.0995 14.625 15V14.625Z" stroke="#00303E" stroke-width="0.75" stroke-linecap="round" stroke-linejoin="round"/>
</svg>
