<svg width="18" height="18" viewBox="0 0 18 18" fill="none" xmlns="http://www.w3.org/2000/svg">
<path d="M14.625 6.75H3.375C2.96079 6.75 2.625 7.08579 2.625 7.5V16.875C2.625 17.2892 2.96079 17.625 3.375 17.625H14.625C15.0392 17.625 15.375 17.2892 15.375 16.875V7.5C15.375 7.08579 15.0392 6.75 14.625 6.75Z" stroke="white" stroke-width="0.75" stroke-linecap="round" stroke-linejoin="round"/>
<path d="M4.875 4.5C4.875 3.40598 5.3096 2.35677 6.08318 1.58318C6.85677 0.809597 7.90598 0.375 9 0.375C10.094 0.375 11.1432 0.809597 11.9168 1.58318C12.6904 2.35677 13.125 3.40598 13.125 4.5V6.75H4.875V4.5Z" stroke="white" stroke-width="0.75" stroke-linecap="round" stroke-linejoin="round"/>
<path d="M11.625 12H15.372" stroke="white" stroke-width="0.75" stroke-linecap="round" stroke-linejoin="round"/>
<path d="M15.375 9.75H12.375C12.1761 9.75 11.9853 9.82902 11.8447 9.96967C11.704 10.1103 11.625 10.3011 11.625 10.5V13.5C11.625 13.6989 11.704 13.8897 11.8447 14.0303C11.9853 14.171 12.1761 14.25 12.375 14.25H15.375" stroke="white" stroke-width="0.75" stroke-linecap="round" stroke-linejoin="round"/>
</svg>
