<svg width="353" height="56" viewBox="0 0 353 56" fill="none" xmlns="http://www.w3.org/2000/svg">
<g filter="url(#filter0_d_201_6510)">
<g filter="url(#filter1_b_201_6510)">
<rect x="4" width="345" height="48" rx="24" fill="url(#paint0_linear_201_6510)"/>
<path d="M115.648 17.12C115.936 17.12 116.182 17.2213 116.384 17.424C116.587 17.6267 116.688 17.872 116.688 18.16C116.688 18.4373 116.587 18.6773 116.384 18.88C116.182 19.0827 115.936 19.184 115.648 19.184C115.371 19.184 115.131 19.0827 114.928 18.88C114.726 18.6773 114.624 18.4373 114.624 18.16C114.624 17.872 114.726 17.6267 114.928 17.424C115.131 17.2213 115.371 17.12 115.648 17.12ZM118.096 17.12C118.384 17.12 118.624 17.2213 118.816 17.424C119.019 17.6267 119.12 17.872 119.12 18.16C119.12 18.448 119.019 18.6933 118.816 18.896C118.624 19.088 118.384 19.184 118.096 19.184C117.808 19.184 117.563 19.0827 117.36 18.88C117.158 18.6773 117.056 18.4373 117.056 18.16C117.056 17.872 117.158 17.6267 117.36 17.424C117.563 17.2213 117.808 17.12 118.096 17.12ZM116.752 28C115.59 28 114.662 27.584 113.968 26.752C113.414 26.0587 113.136 25.1627 113.136 24.064C113.136 23.0613 113.456 22.2133 114.096 21.52C114.811 20.8053 115.728 20.448 116.848 20.448C117.67 20.448 118.368 20.6453 118.944 21.04C119.712 21.5947 120.096 22.384 120.096 23.408V26.368H120.608V28H120.08C120.006 29.1947 119.563 30.128 118.752 30.8C117.952 31.4827 116.886 31.824 115.552 31.824H113.968C112.496 31.824 111.355 31.4133 110.544 30.592C109.798 29.8667 109.424 28.8747 109.424 27.616V25.84L110.416 25.04H111.376V27.44C111.376 28.4427 111.627 29.1467 112.128 29.552C112.64 29.968 113.515 30.176 114.752 30.176C115.83 30.176 116.603 30.0427 117.072 29.776C117.67 29.4347 118.011 28.8427 118.096 28H116.752ZM118.144 23.408C118.144 22.992 118 22.656 117.712 22.4C117.467 22.1867 117.179 22.08 116.848 22.08C116.336 22.08 115.926 22.2507 115.616 22.592C115.254 22.9547 115.072 23.504 115.072 24.24C115.072 24.8373 115.227 25.3227 115.536 25.696C115.878 26.144 116.379 26.368 117.04 26.368H118.144V23.408ZM125.307 20.64V26.24C125.307 26.656 125.168 27.04 124.891 27.392C124.539 27.7973 124.102 28 123.579 28H120.491V26.368H122.955C123.072 26.368 123.174 26.3253 123.259 26.24C123.334 26.1653 123.371 26.0747 123.371 25.968V20.64H125.307ZM121.803 29.168C122.091 29.168 122.336 29.2693 122.539 29.472C122.742 29.6747 122.843 29.92 122.843 30.208C122.843 30.496 122.742 30.7413 122.539 30.944C122.336 31.1467 122.091 31.248 121.803 31.248C121.526 31.248 121.286 31.1467 121.083 30.944C120.88 30.7413 120.779 30.496 120.779 30.208C120.779 29.92 120.88 29.6747 121.083 29.472C121.286 29.2693 121.526 29.168 121.803 29.168ZM124.251 29.168C124.539 29.168 124.779 29.2693 124.971 29.472C125.174 29.6747 125.275 29.92 125.275 30.208C125.275 30.496 125.174 30.7413 124.971 30.944C124.779 31.1467 124.539 31.248 124.251 31.248C123.963 31.248 123.718 31.1467 123.515 30.944C123.312 30.7413 123.211 30.496 123.211 30.208C123.211 29.92 123.312 29.6747 123.515 29.472C123.718 29.2693 123.963 29.168 124.251 29.168ZM132.014 20.64V26.368H132.83V28H131.998C131.912 29.28 131.406 30.2613 130.478 30.944C129.71 31.5093 128.766 31.792 127.646 31.792C127.454 31.792 127.246 31.7867 127.022 31.776L126.238 30.8V30.112C126.579 30.1653 126.91 30.192 127.23 30.192C129.118 30.192 130.062 29.2747 130.062 27.44V20.64H132.014ZM137.525 16.544V23.328C138.955 21.3973 140.731 20.432 142.853 20.432C144.123 20.432 145.168 20.8373 145.989 21.648C146.747 22.384 147.125 23.296 147.125 24.384V26.24C147.125 26.7413 146.939 27.168 146.565 27.52C146.224 27.84 145.835 28 145.397 28H132.709V26.368H135.589V16.544H137.525ZM145.173 24.48C145.163 23.8187 144.944 23.2853 144.517 22.88C144.027 22.368 143.36 22.112 142.517 22.112C141.664 22.112 140.848 22.3947 140.069 22.96C139.067 23.6853 138.219 24.8213 137.525 26.368H144.773C145.04 26.368 145.173 26.2347 145.173 25.968V24.48ZM157.217 20.448C157.505 20.448 157.751 20.5493 157.953 20.752C158.156 20.9547 158.257 21.2 158.257 21.488C158.257 21.776 158.156 22.0213 157.953 22.224C157.751 22.4267 157.505 22.528 157.217 22.528C156.94 22.528 156.7 22.4267 156.497 22.224C156.295 22.0213 156.193 21.776 156.193 21.488C156.193 21.2 156.295 20.9547 156.497 20.752C156.7 20.5493 156.94 20.448 157.217 20.448ZM162.657 20.64V26.368H163.457V28H162.641C162.556 29.2587 162.081 30.2187 161.217 30.88C160.407 31.5093 159.372 31.824 158.113 31.824H156.529C155.164 31.824 154.076 31.472 153.265 30.768C152.412 30.0213 151.985 28.9707 151.985 27.616V24.752L152.977 23.952H153.937V27.44C153.937 28.4533 154.188 29.1627 154.689 29.568C155.201 29.984 156.081 30.192 157.329 30.192C158.535 30.192 159.383 30.0053 159.873 29.632C160.428 29.2053 160.705 28.4747 160.705 27.44V20.64H162.657ZM166.645 26.368C166.453 26.144 166.282 25.84 166.133 25.456C165.973 25.008 165.893 24.5387 165.893 24.048C165.893 22.832 166.325 21.8987 167.189 21.248C167.893 20.7147 168.778 20.448 169.845 20.448C170.41 20.448 170.997 20.5387 171.605 20.72V22.256C170.997 22.1173 170.474 22.048 170.037 22.048C168.575 22.048 167.845 22.7787 167.845 24.24C167.845 24.7093 167.957 25.1253 168.181 25.488C168.554 26.0747 169.098 26.368 169.813 26.368H172.917V27.008L172.117 28H163.429V26.368H166.645ZM188.284 16.544V27.616C188.284 28.8853 187.9 29.888 187.132 30.624C186.321 31.424 185.19 31.824 183.74 31.824H182.156C180.758 31.824 179.654 31.456 178.844 30.72C178.022 29.984 177.612 28.9493 177.612 27.616V24.752L178.604 23.952H179.564V27.44C179.564 28.4533 179.814 29.1627 180.316 29.568C180.828 29.984 181.708 30.192 182.956 30.192C184.161 30.192 185.009 30.0053 185.5 29.632C186.054 29.2053 186.332 28.4747 186.332 27.44V16.544H188.284ZM193.895 28C192.721 28 191.799 27.6 191.127 26.8C190.561 26.1173 190.279 25.2747 190.279 24.272C190.279 23.0773 190.615 22.144 191.287 21.472C191.991 20.7893 192.892 20.448 193.991 20.448C194.791 20.448 195.484 20.6453 196.071 21.04C196.839 21.5947 197.223 22.384 197.223 23.408V26.368H197.735V28H197.207C197.132 29.152 196.727 30.0533 195.991 30.704C195.479 31.1627 194.865 31.4773 194.151 31.648C193.649 31.7653 193.159 31.824 192.679 31.824C192.519 31.824 192.289 31.8133 191.991 31.792H191.943L191.127 30.784V30.08C191.564 30.1547 191.975 30.192 192.359 30.192C194.108 30.192 195.063 29.4613 195.223 28H193.895ZM195.271 23.408C195.271 22.9813 195.132 22.6453 194.855 22.4C194.609 22.1867 194.321 22.08 193.991 22.08C193.447 22.08 193.015 22.272 192.695 22.656C192.375 23.04 192.215 23.568 192.215 24.24C192.215 24.8907 192.391 25.408 192.743 25.792C193.095 26.176 193.575 26.368 194.183 26.368H195.271V23.408ZM202.672 17.12C202.96 17.12 203.205 17.2213 203.408 17.424C203.611 17.6267 203.712 17.872 203.712 18.16C203.712 18.4373 203.611 18.6773 203.408 18.88C203.205 19.0827 202.96 19.184 202.672 19.184C202.395 19.184 202.155 19.0827 201.952 18.88C201.749 18.6773 201.648 18.4373 201.648 18.16C201.648 17.872 201.749 17.6267 201.952 17.424C202.155 17.2213 202.395 17.12 202.672 17.12ZM199.744 20.912C200.8 20.6027 201.723 20.448 202.512 20.448C203.803 20.448 204.843 20.8533 205.632 21.664C206.347 22.4 206.704 23.3173 206.704 24.416V26.24C206.704 26.6773 206.555 27.072 206.256 27.424C205.904 27.808 205.477 28 204.976 28H197.616V26.368H204.352C204.619 26.368 204.752 26.2347 204.752 25.968V24.528C204.752 23.7813 204.507 23.1947 204.016 22.768C203.536 22.3413 202.869 22.128 202.016 22.128C201.525 22.128 200.768 22.24 199.744 22.464V20.912ZM209.842 20.544C210.205 20.48 210.626 20.448 211.106 20.448C212.333 20.448 213.325 20.8427 214.082 21.632C214.754 22.3467 215.09 23.232 215.09 24.288V25.824C215.09 26.0693 215.085 26.2507 215.074 26.368H215.49V28H215.282L214.754 27.344H214.706C214.621 27.44 214.53 27.5307 214.434 27.616C214.114 27.872 213.757 28 213.362 28H208.226V26.368H212.738C213.005 26.368 213.138 26.2347 213.138 25.968V24.48C213.138 23.744 212.914 23.152 212.466 22.704C212.05 22.288 211.447 22.064 210.658 22.032C210.295 22.032 210.023 22.0533 209.842 22.096V20.544ZM220.198 16.544V26.24C220.198 26.688 220.054 27.072 219.766 27.392C219.435 27.7973 219.003 28 218.47 28H215.382V26.368H217.846C217.963 26.368 218.064 26.3253 218.15 26.24C218.224 26.1653 218.262 26.0747 218.262 25.968V16.544H220.198ZM224.361 16.544V27.6L223.369 28.4H222.409V16.544H224.361ZM240.19 16.544V26.368H240.99V28H240.174C240.1 29.1733 239.662 30.1067 238.862 30.8C238.041 31.4827 236.969 31.824 235.646 31.824H234.062C232.622 31.824 231.492 31.4293 230.67 30.64C229.902 29.8933 229.518 28.8853 229.518 27.616V24.752L230.51 23.952H231.47V27.44C231.47 28.4533 231.726 29.1627 232.238 29.568C232.75 29.984 233.625 30.192 234.862 30.192C236.068 30.192 236.916 30.0053 237.406 29.632C237.961 29.2053 238.238 28.4747 238.238 27.44V16.544H240.19ZM245.698 20.64V26.128V26.368H246.514V28H245.954L245.362 27.344H245.33C244.967 27.7813 244.514 28 243.97 28H240.882V26.368H243.298C243.447 26.368 243.554 26.3253 243.618 26.24C243.714 26.1547 243.762 26.048 243.762 25.92V20.64H245.698ZM242.226 29.168C242.514 29.168 242.759 29.2693 242.962 29.472C243.164 29.6747 243.266 29.92 243.266 30.208C243.266 30.496 243.164 30.7413 242.962 30.944C242.759 31.1467 242.514 31.248 242.226 31.248C241.938 31.248 241.692 31.1467 241.49 30.944C241.287 30.7413 241.186 30.496 241.186 30.208C241.186 29.92 241.287 29.6747 241.49 29.472C241.692 29.2693 241.938 29.168 242.226 29.168ZM244.658 29.168C244.946 29.168 245.191 29.2693 245.394 29.472C245.596 29.6747 245.698 29.92 245.698 30.208C245.698 30.496 245.596 30.7413 245.394 30.944C245.191 31.1467 244.946 31.248 244.658 31.248C244.38 31.248 244.14 31.1467 243.938 30.944C243.735 30.7413 243.634 30.496 243.634 30.208C243.634 29.92 243.735 29.6747 243.938 29.472C244.14 29.2693 244.38 29.168 244.658 29.168ZM248.509 20.912C249.523 20.6027 250.445 20.448 251.277 20.448C252.568 20.448 253.608 20.8533 254.397 21.664C255.112 22.3893 255.469 23.3067 255.469 24.416V26.128V26.368H255.997V28H255.661L255.133 27.344H255.101C254.739 27.7813 254.285 28 253.741 28H246.381V26.368H253.117C253.384 26.368 253.517 26.2347 253.517 25.968V24.528C253.517 23.8027 253.272 23.2213 252.781 22.784C252.301 22.336 251.667 22.112 250.877 22.112C250.355 22.112 249.565 22.2293 248.509 22.464V20.912ZM250.749 29.168C251.037 29.168 251.283 29.2693 251.485 29.472C251.688 29.6747 251.789 29.92 251.789 30.208C251.789 30.496 251.688 30.7413 251.485 30.944C251.283 31.1467 251.037 31.248 250.749 31.248C250.472 31.248 250.232 31.1467 250.029 30.944C249.827 30.7413 249.725 30.496 249.725 30.208C249.725 29.92 249.827 29.6747 250.029 29.472C250.232 29.2693 250.472 29.168 250.749 29.168ZM272.858 20.64V25.872V26.368H273.674V28H273.05L272.522 27.344H272.49C272.127 27.7813 271.674 28 271.13 28H267.706L267.178 27.344H267.13C266.778 27.7813 266.33 28 265.786 28H262.346L261.818 27.344H261.77C261.418 27.7813 260.97 28 260.426 28H255.882V26.368H259.802C260.068 26.368 260.202 26.2347 260.202 25.968V22.48H262.154V25.872C262.154 26.096 262.148 26.2613 262.138 26.368H265.162C265.428 26.368 265.562 26.2347 265.562 25.968V21.552H267.514V25.824C267.514 25.888 267.508 25.984 267.498 26.112C267.498 26.2293 267.498 26.3147 267.498 26.368H270.506C270.772 26.368 270.906 26.2347 270.906 25.968V20.64H272.858ZM275.105 17.12C275.393 17.12 275.639 17.2213 275.841 17.424C276.044 17.6267 276.145 17.872 276.145 18.16C276.145 18.4373 276.044 18.6773 275.841 18.88C275.639 19.0827 275.393 19.184 275.105 19.184C274.817 19.184 274.572 19.0827 274.369 18.88C274.167 18.6773 274.065 18.4373 274.065 18.16C274.065 17.872 274.167 17.6267 274.369 17.424C274.572 17.2213 274.817 17.12 275.105 17.12ZM277.537 17.12C277.825 17.12 278.071 17.2213 278.273 17.424C278.476 17.6267 278.577 17.872 278.577 18.16C278.577 18.4373 278.476 18.6773 278.273 18.88C278.071 19.0827 277.825 19.184 277.537 19.184C277.26 19.184 277.02 19.0827 276.817 18.88C276.615 18.6773 276.513 18.4373 276.513 18.16C276.513 17.872 276.615 17.6267 276.817 17.424C277.02 17.2213 277.26 17.12 277.537 17.12ZM278.369 20.64V26.24C278.369 26.656 278.231 27.04 277.953 27.392C277.601 27.7973 277.164 28 276.641 28H273.553V26.368H276.017C276.135 26.368 276.236 26.3253 276.321 26.24C276.396 26.1653 276.433 26.0747 276.433 25.968V20.64H278.369Z" fill="#ECE9F9"/>
<g clip-path="url(#clip0_201_6510)">
<path d="M94.8782 15.7778C94.8764 16.7222 94.3981 17.2462 93.5262 17.2598C92.6756 17.2735 92.0998 16.6764 92.0933 15.7758C92.0868 14.8733 92.6533 14.283 93.5169 14.2908C94.3619 14.2987 94.8791 14.8636 94.8773 15.7778H94.8782Z" fill="white"/>
<path d="M105 15.5054C105 16.4625 104.532 16.9698 103.652 16.9698C102.807 16.9698 102.224 16.362 102.222 15.4761C102.219 14.597 102.812 13.9892 103.663 13.9999C104.493 14.0106 105.001 14.5824 105 15.5054Z" fill="white"/>
<path d="M74.8202 28.9698C73.9854 28.9698 73.1497 28.9591 72.3158 28.9747C71.9518 28.9815 71.935 28.8791 72.1013 28.5688C72.3966 28.0185 72.6649 27.4516 72.9203 26.8799C73.1237 26.4233 73.444 26.2438 73.9167 26.2564C74.7664 26.2799 75.6179 26.2779 76.4676 26.273C77.2402 26.2691 77.5986 25.8896 77.6228 25.0856C77.6683 23.5558 77.0545 22.3821 75.8482 21.5615C75.4712 21.3049 75.4248 21.102 75.6755 20.7185C75.9894 20.2385 76.2494 19.7185 76.5214 19.2092C76.6505 18.9672 76.7712 18.9008 77.0322 19.0579C79.5589 20.581 80.8488 23.6875 80.1449 26.595C79.7614 28.1785 78.8383 28.9366 77.2328 28.9659C76.4286 28.9805 75.6244 28.9688 74.8212 28.9688L74.8202 28.9698Z" fill="white"/>
<path d="M75.3709 15.4538C75.3765 14.5825 75.9383 14 76.7759 14C77.6302 14 78.1707 14.5952 78.1586 15.523C78.1465 16.448 77.6386 16.9758 76.7684 16.966C75.9039 16.9563 75.3653 16.3738 75.3709 15.4538Z" fill="white"/>
<path d="M104.796 19.1993C104.071 19.5964 103.341 20.0121 102.596 20.3975C102.301 20.5497 102.206 20.7526 102.209 21.0882C102.223 22.3722 102.216 23.6552 102.209 24.9392C102.206 25.7168 101.904 26.1295 101.163 26.233C100.631 26.3081 100.083 26.27 99.5425 26.273C98.6863 26.2779 97.8302 26.2739 96.9508 26.2739C98.0846 23.3723 97.7661 21.0268 96.0825 19.6403C94.6915 18.4949 92.4396 18.4666 91.0105 19.5818C90.2481 20.177 89.7949 20.9878 89.534 21.9351C89.1198 23.4338 89.3287 24.8495 90.1079 26.2749C88.9926 26.2749 87.973 26.2798 86.9534 26.273C86.5067 26.27 86.0591 26.311 85.6143 26.1949C85.1955 26.0856 84.9439 25.832 84.8352 25.3949C84.7711 25.1392 84.7591 24.8836 84.7591 24.6231C84.76 21.5029 84.76 18.3827 84.7591 15.2625C84.7591 14.6898 84.7563 14.6898 84.2632 14.962C83.6624 15.2937 83.0671 15.6391 82.4561 15.9494C82.1682 16.0957 82.0577 16.2753 82.0596 16.6216C82.0745 19.4335 82.0689 22.2444 82.0661 25.0563C82.0661 25.4339 82.1181 25.8007 82.2165 26.1598C82.7105 27.9687 83.9976 28.9219 85.8752 28.9766C88.9462 29.0653 92.0143 28.8595 95.0852 28.957C97.0938 29.0205 99.1052 28.9766 101.115 28.9668C103.372 28.9561 104.89 27.3579 104.901 24.987C104.909 23.183 104.903 21.379 104.899 19.575C104.899 19.4579 104.957 19.3154 104.794 19.1984L104.796 19.1993ZM95.062 23.3528C95.0852 24.3733 94.6488 25.1519 93.9049 25.7764C93.6134 26.0212 93.3728 25.9988 93.0803 25.7666C92.1499 25.028 91.7032 23.6221 92.0542 22.4552C92.2854 21.6863 92.8788 21.3107 93.7211 21.4005C94.4305 21.4766 94.9701 22.0825 95.0601 22.9147C95.0759 23.0591 95.062 23.2064 95.062 23.3528Z" fill="white"/>
</g>
</g>
</g>
<defs>
<filter id="filter0_d_201_6510" x="0" y="0" width="353" height="56" filterUnits="userSpaceOnUse" color-interpolation-filters="sRGB">
<feFlood flood-opacity="0" result="BackgroundImageFix"/>
<feColorMatrix in="SourceAlpha" type="matrix" values="0 0 0 0 0 0 0 0 0 0 0 0 0 0 0 0 0 0 127 0" result="hardAlpha"/>
<feOffset dy="4"/>
<feGaussianBlur stdDeviation="2"/>
<feComposite in2="hardAlpha" operator="out"/>
<feColorMatrix type="matrix" values="0 0 0 0 0 0 0 0 0 0 0 0 0 0 0 0 0 0 0.25 0"/>
<feBlend mode="normal" in2="BackgroundImageFix" result="effect1_dropShadow_201_6510"/>
<feBlend mode="normal" in="SourceGraphic" in2="effect1_dropShadow_201_6510" result="shape"/>
</filter>
<filter id="filter1_b_201_6510" x="-56" y="-60" width="465" height="168" filterUnits="userSpaceOnUse" color-interpolation-filters="sRGB">
<feFlood flood-opacity="0" result="BackgroundImageFix"/>
<feGaussianBlur in="BackgroundImageFix" stdDeviation="30"/>
<feComposite in2="SourceAlpha" operator="in" result="effect1_backgroundBlur_201_6510"/>
<feBlend mode="normal" in="SourceGraphic" in2="effect1_backgroundBlur_201_6510" result="shape"/>
</filter>
<linearGradient id="paint0_linear_201_6510" x1="3.99997" y1="-6" x2="25.2836" y2="110.262" gradientUnits="userSpaceOnUse">
<stop stop-color="#9E98AF"/>
<stop offset="0.484375" stop-color="#5E597D"/>
<stop offset="0.979167" stop-color="#414069"/>
</linearGradient>
<clipPath id="clip0_201_6510">
<rect width="33" height="15" fill="white" transform="translate(72 14)"/>
</clipPath>
</defs>
</svg>
