<svg width="345" height="48" viewBox="0 0 345 48" fill="none" xmlns="http://www.w3.org/2000/svg">
<g filter="url(#filter0_b_201_3234)">
<rect width="345" height="48" rx="24" fill="url(#paint0_linear_201_3234)"/>
<path d="M123.997 16.544V26.032H129.485V28H121.645V16.544H123.997ZM134.447 19.344C135.844 19.344 136.916 19.792 137.663 20.688C138.314 21.456 138.639 22.48 138.639 23.76C138.639 25.232 138.218 26.3627 137.375 27.152C136.639 27.8347 135.663 28.176 134.447 28.176C133.05 28.176 131.978 27.7333 131.231 26.848C130.58 26.0693 130.255 25.04 130.255 23.76C130.255 22.2987 130.676 21.1733 131.519 20.384C132.255 19.6907 133.231 19.344 134.447 19.344ZM134.447 21.12C133.85 21.12 133.37 21.3653 133.007 21.856C132.644 22.336 132.463 22.9707 132.463 23.76C132.463 24.6133 132.666 25.2853 133.071 25.776C133.434 26.192 133.892 26.4 134.447 26.4C135.044 26.4 135.524 26.16 135.887 25.68C136.26 25.1893 136.447 24.5493 136.447 23.76C136.447 22.9173 136.239 22.2507 135.823 21.76C135.46 21.3333 135.002 21.12 134.447 21.12ZM145.641 19.52H147.737V27.92C147.737 29.232 147.327 30.1707 146.505 30.736C145.812 31.1947 144.863 31.424 143.657 31.424C142.399 31.424 141.439 31.152 140.777 30.608C140.233 30.1707 139.951 29.6427 139.929 29.024H142.201C142.383 29.6853 142.905 30.016 143.769 30.016C144.313 30.016 144.772 29.8453 145.145 29.504C145.476 29.2053 145.641 28.7413 145.641 28.112V26.848C145.236 27.3493 144.857 27.696 144.505 27.888C144.153 28.08 143.727 28.176 143.225 28.176C142.127 28.176 141.257 27.728 140.617 26.832C140.052 26.064 139.769 25.088 139.769 23.904C139.769 22.5067 140.148 21.3653 140.905 20.48C141.567 19.7227 142.367 19.344 143.305 19.344C144.223 19.344 145.001 19.7867 145.641 20.672V19.52ZM143.753 21.184C143.22 21.184 142.788 21.4293 142.457 21.92C142.137 22.4107 141.977 23.0507 141.977 23.84C141.977 24.5973 142.137 25.2053 142.457 25.664C142.788 26.1227 143.22 26.352 143.753 26.352C144.308 26.352 144.767 26.1173 145.129 25.648C145.471 25.2107 145.641 24.6027 145.641 23.824C145.641 22.9813 145.444 22.3147 145.049 21.824C144.708 21.3973 144.276 21.184 143.753 21.184ZM152.068 19.52V28H149.86V19.52H152.068ZM150.948 16.608C151.236 16.608 151.476 16.7093 151.668 16.912C151.871 17.1147 151.972 17.36 151.972 17.648C151.972 17.936 151.871 18.1813 151.668 18.384C151.476 18.576 151.236 18.672 150.948 18.672C150.66 18.672 150.415 18.576 150.212 18.384C150.009 18.1813 149.908 17.936 149.908 17.648C149.908 17.36 150.009 17.1147 150.212 16.912C150.415 16.7093 150.66 16.608 150.948 16.608ZM154.203 19.52H156.411V20.72C157.008 19.8027 157.851 19.344 158.939 19.344C159.91 19.344 160.646 19.632 161.147 20.208C161.574 20.72 161.787 21.4133 161.787 22.288V28H159.595V22.736C159.595 21.7227 159.12 21.216 158.171 21.216C157.638 21.216 157.211 21.3707 156.891 21.68C156.571 21.9787 156.411 22.3787 156.411 22.88V28H154.203V19.52ZM171.23 28H168.91L165.95 19.52H168.286L170.11 25.728L171.838 19.52H174.142L171.23 28ZM177.677 19.52V28H175.469V19.52H177.677ZM176.557 16.608C176.845 16.608 177.085 16.7093 177.277 16.912C177.48 17.1147 177.581 17.36 177.581 17.648C177.581 17.936 177.48 18.1813 177.277 18.384C177.085 18.576 176.845 18.672 176.557 18.672C176.269 18.672 176.024 18.576 175.821 18.384C175.619 18.1813 175.517 17.936 175.517 17.648C175.517 17.36 175.619 17.1147 175.821 16.912C176.024 16.7093 176.269 16.608 176.557 16.608ZM187.06 27.44V28H184.66C184.5 27.7973 184.415 27.5093 184.404 27.136C183.818 27.8293 182.964 28.176 181.844 28.176C181.023 28.176 180.362 27.9253 179.86 27.424C179.455 27.0187 179.252 26.4587 179.252 25.744C179.252 24.6773 179.679 23.92 180.532 23.472C180.895 23.28 181.615 23.088 182.692 22.896L184.42 22.576L184.404 21.968C184.394 21.4027 183.967 21.12 183.124 21.12C182.58 21.12 182.196 21.2053 181.972 21.376C181.759 21.536 181.626 21.8347 181.572 22.272H179.46C179.588 20.32 180.794 19.344 183.076 19.344C184.335 19.344 185.242 19.568 185.796 20.016C186.298 20.4427 186.548 21.088 186.548 21.952V26.688C186.548 27.072 186.719 27.3227 187.06 27.44ZM184.42 23.904L182.804 24.272C182.346 24.3787 182.004 24.5333 181.78 24.736C181.567 24.9387 181.46 25.1893 181.46 25.488C181.46 26.096 181.855 26.4 182.644 26.4C183.786 26.4 184.372 25.776 184.404 24.528L184.42 23.904Z" fill="#ECE9F9"/>
<g clip-path="url(#clip0_201_3234)">
<path d="M214.878 15.7777C214.876 16.7221 214.398 17.246 213.526 17.2597C212.675 17.2734 212.1 16.6762 212.093 15.7757C212.087 14.8732 212.653 14.2829 213.517 14.2907C214.362 14.2985 214.879 14.8634 214.877 15.7777H214.878Z" fill="white"/>
<path d="M225 15.5055C225 16.4626 224.532 16.97 223.652 16.97C222.807 16.97 222.224 16.3621 222.222 15.4762C222.219 14.5971 222.812 13.9893 223.663 14C224.493 14.0108 225.001 14.5825 225 15.5055Z" fill="white"/>
<path d="M194.82 28.9698C193.985 28.9698 193.15 28.9591 192.316 28.9747C191.952 28.9815 191.935 28.8791 192.101 28.5688C192.397 28.0185 192.665 27.4516 192.92 26.8799C193.124 26.4233 193.444 26.2438 193.917 26.2564C194.766 26.2799 195.618 26.2779 196.468 26.273C197.24 26.2691 197.599 25.8896 197.623 25.0856C197.668 23.5558 197.054 22.3821 195.848 21.5615C195.471 21.3049 195.425 21.102 195.675 20.7185C195.989 20.2385 196.249 19.7185 196.521 19.2092C196.65 18.9672 196.771 18.9008 197.032 19.0579C199.559 20.581 200.849 23.6875 200.145 26.595C199.761 28.1785 198.838 28.9366 197.233 28.9659C196.429 28.9805 195.624 28.9688 194.821 28.9688L194.82 28.9698Z" fill="white"/>
<path d="M195.371 15.4538C195.376 14.5825 195.938 14 196.776 14C197.63 14 198.171 14.5952 198.159 15.523C198.146 16.448 197.639 16.9758 196.768 16.966C195.904 16.9563 195.365 16.3738 195.371 15.4538Z" fill="white"/>
<path d="M224.796 19.1993C224.071 19.5964 223.341 20.0121 222.596 20.3975C222.301 20.5497 222.206 20.7526 222.21 21.0882C222.223 22.3722 222.216 23.6552 222.21 24.9392C222.206 25.7168 221.904 26.1295 221.163 26.233C220.631 26.3081 220.083 26.27 219.543 26.273C218.686 26.2779 217.83 26.2739 216.951 26.2739C218.085 23.3723 217.766 21.0268 216.083 19.6403C214.691 18.4949 212.44 18.4666 211.01 19.5818C210.248 20.177 209.795 20.9878 209.534 21.9351C209.12 23.4338 209.329 24.8495 210.108 26.2749C208.993 26.2749 207.973 26.2798 206.953 26.273C206.507 26.27 206.059 26.311 205.614 26.1949C205.196 26.0856 204.944 25.832 204.835 25.3949C204.771 25.1392 204.759 24.8836 204.759 24.6231C204.76 21.5029 204.76 18.3827 204.759 15.2625C204.759 14.6898 204.756 14.6898 204.263 14.962C203.662 15.2937 203.067 15.6391 202.456 15.9494C202.168 16.0957 202.058 16.2753 202.06 16.6216C202.074 19.4335 202.069 22.2444 202.066 25.0563C202.066 25.4339 202.118 25.8007 202.217 26.1598C202.711 27.9687 203.998 28.9219 205.875 28.9766C208.946 29.0653 212.014 28.8595 215.085 28.957C217.094 29.0205 219.105 28.9766 221.115 28.9668C223.372 28.9561 224.89 27.3579 224.901 24.987C224.909 23.183 224.903 21.379 224.899 19.575C224.899 19.4579 224.957 19.3154 224.794 19.1984L224.796 19.1993ZM215.062 23.3528C215.085 24.3733 214.649 25.1519 213.905 25.7764C213.613 26.0212 213.373 25.9988 213.08 25.7666C212.15 25.028 211.703 23.6221 212.054 22.4552C212.285 21.6863 212.879 21.3107 213.721 21.4005C214.431 21.4766 214.97 22.0825 215.06 22.9147C215.076 23.0591 215.062 23.2064 215.062 23.3528Z" fill="white"/>
</g>
</g>
<defs>
<filter id="filter0_b_201_3234" x="-60" y="-60" width="465" height="168" filterUnits="userSpaceOnUse" color-interpolation-filters="sRGB">
<feFlood flood-opacity="0" result="BackgroundImageFix"/>
<feGaussianBlur in="BackgroundImageFix" stdDeviation="30"/>
<feComposite in2="SourceAlpha" operator="in" result="effect1_backgroundBlur_201_3234"/>
<feBlend mode="normal" in="SourceGraphic" in2="effect1_backgroundBlur_201_3234" result="shape"/>
</filter>
<linearGradient id="paint0_linear_201_3234" x1="-2.52225e-05" y1="-6" x2="21.2836" y2="110.262" gradientUnits="userSpaceOnUse">
<stop stop-color="#9E98AF"/>
<stop offset="0.484375" stop-color="#5E597D"/>
<stop offset="0.979167" stop-color="#414069"/>
</linearGradient>
<clipPath id="clip0_201_3234">
<rect width="33" height="15" fill="white" transform="translate(192 14)"/>
</clipPath>
</defs>
</svg>
