<svg width="18" height="18" viewBox="0 0 18 18" fill="none" xmlns="http://www.w3.org/2000/svg">
<g clip-path="url(#clip0_201_5720)">
<path d="M10.125 3.75V1.125C10.125 0.926088 10.046 0.735322 9.90533 0.59467C9.76468 0.454018 9.57391 0.375 9.375 0.375H1.125C0.926088 0.375 0.735322 0.454018 0.59467 0.59467C0.454018 0.735322 0.375 0.926088 0.375 1.125V16.875C0.375 17.0739 0.454018 17.2647 0.59467 17.4053C0.735322 17.546 0.926088 17.625 1.125 17.625H9.375C9.57391 17.625 9.76468 17.546 9.90533 17.4053C10.046 17.2647 10.125 17.0739 10.125 16.875V14.25" stroke="white" stroke-width="0.75" stroke-linecap="round" stroke-linejoin="round"/>
<path d="M17.625 9H3.375" stroke="white" stroke-width="0.75" stroke-linecap="round" stroke-linejoin="round"/>
<path d="M13.875 12.75L17.625 9L13.875 5.25" stroke="white" stroke-width="0.75" stroke-linecap="round" stroke-linejoin="round"/>
</g>
<defs>
<clipPath id="clip0_201_5720">
<rect width="18" height="18" fill="white"/>
</clipPath>
</defs>
</svg>
