<svg width="24" height="24" viewBox="0 0 24 24" fill="none" xmlns="http://www.w3.org/2000/svg">
<path d="M15.209 1.70799L8.5 6.49999V22.385C8.60433 22.3851 8.70608 22.3526 8.791 22.292L15.5 17.5V1.61499C15.3957 1.61487 15.2939 1.64739 15.209 1.70799Z" fill="#DFF9FF"/>
<path d="M2.291 2.06502C2.21623 2.01151 2.12816 1.97965 2.03646 1.97295C1.94476 1.96625 1.85299 1.98495 1.77124 2.02702C1.68948 2.06909 1.62091 2.13288 1.57306 2.21139C1.5252 2.2899 1.49993 2.38008 1.5 2.47202V17.243C1.49994 17.3226 1.51887 17.401 1.55522 17.4718C1.59157 17.5426 1.64429 17.6037 1.709 17.65L8.209 22.292C8.29392 22.3526 8.39567 22.3851 8.5 22.385V6.50002L2.291 2.06502Z" fill="#9FEAFF"/>
<path d="M22.291 6.34999L15.791 1.70799C15.7061 1.64739 15.6043 1.61487 15.5 1.61499V17.5L21.709 21.935C21.7838 21.9885 21.8718 22.0204 21.9635 22.0271C22.0552 22.0338 22.147 22.0151 22.2288 21.973C22.3105 21.9309 22.3791 21.8671 22.4269 21.7886C22.4748 21.7101 22.5001 21.6199 22.5 21.528V6.75699C22.5001 6.67741 22.4811 6.59897 22.4448 6.52818C22.4084 6.45739 22.3557 6.3963 22.291 6.34999Z" fill="#9FEAFF"/>
<path d="M8.791 22.292C8.70613 22.3528 8.60437 22.3854 8.5 22.3854C8.39563 22.3854 8.29387 22.3528 8.209 22.292L1.709 17.65C1.64429 17.6037 1.59157 17.5426 1.55522 17.4718C1.51887 17.401 1.49994 17.3226 1.5 17.243V2.47203C1.49993 2.38009 1.5252 2.2899 1.57306 2.21139C1.62091 2.13289 1.68948 2.06909 1.77124 2.02703C1.85299 1.98496 1.94476 1.96625 2.03646 1.97296C2.12816 1.97966 2.21623 2.01152 2.291 2.06503L8.5 6.50003L15.209 1.70803C15.2939 1.64729 15.3956 1.61462 15.5 1.61462C15.6044 1.61462 15.7061 1.64729 15.791 1.70803L22.291 6.35003C22.3557 6.39634 22.4084 6.45743 22.4448 6.52822C22.4811 6.59901 22.5001 6.67745 22.5 6.75703V21.528C22.5001 21.62 22.4748 21.7102 22.4269 21.7887C22.3791 21.8672 22.3105 21.931 22.2288 21.973C22.147 22.0151 22.0552 22.0338 21.9635 22.0271C21.8718 22.0204 21.7838 21.9885 21.709 21.935L15.5 17.5L8.791 22.292Z" stroke="#00303E" stroke-linecap="round" stroke-linejoin="round"/>
<path d="M8.5 6.5V22.386" stroke="#00303E" stroke-linecap="round" stroke-linejoin="round"/>
<path d="M15.5 17.5V1.61401" stroke="#00303E" stroke-linecap="round" stroke-linejoin="round"/>
</svg>
