<svg width="18" height="18" viewBox="0 0 18 18" fill="none" xmlns="http://www.w3.org/2000/svg">
<path d="M0.75 4.875V16.875C0.75 17.0739 0.829018 17.2647 0.96967 17.4053C1.11032 17.546 1.30109 17.625 1.5 17.625H16.5C16.6989 17.625 16.8897 17.546 17.0303 17.4053C17.171 17.2647 17.25 17.0739 17.25 16.875V4.875C17.2483 4.74961 17.2395 4.62441 17.2238 4.5H0.77625C0.760488 4.62441 0.751725 4.74961 0.75 4.875Z" fill="#9FEAFF"/>
<path d="M16.0282 1.071C15.9366 0.872252 15.7924 0.702347 15.6111 0.579671C15.4299 0.456994 15.2186 0.386218 15 0.375H3C2.78143 0.386218 2.57009 0.456994 2.38885 0.579671C2.20761 0.702347 2.06338 0.872252 1.97175 1.071L1.02825 3.429C0.902507 3.77487 0.817925 4.13435 0.776245 4.5H17.2237C17.1821 4.13435 17.0975 3.77487 16.9717 3.429L16.0282 1.071Z" fill="#DFF9FF"/>
<path d="M17.25 6.75V4.875C17.2483 4.74961 17.2395 4.62441 17.2238 4.5H0.77625C0.760488 4.62441 0.751725 4.74961 0.75 4.875V6.75H17.25Z" fill="#DFF9FF"/>
<path d="M16.9717 3.429C17.1405 3.89323 17.2344 4.38131 17.25 4.875V16.875C17.25 17.0739 17.171 17.2647 17.0303 17.4053C16.8897 17.546 16.6989 17.625 16.5 17.625H1.5C1.30109 17.625 1.11032 17.546 0.96967 17.4053C0.829018 17.2647 0.75 17.0739 0.75 16.875V4.875C0.765613 4.38131 0.859532 3.89323 1.02825 3.429L1.97175 1.071C2.06338 0.872252 2.20762 0.702347 2.38886 0.579671C2.5701 0.456994 2.78143 0.386218 3 0.375H15C15.2186 0.386218 15.4299 0.456994 15.6111 0.579671C15.7924 0.702347 15.9366 0.872252 16.0283 1.071L16.9717 3.429Z" stroke="#00303E" stroke-width="0.75" stroke-linecap="round" stroke-linejoin="round"/>
<path d="M0.775513 4.5H17.2245" stroke="#00303E" stroke-width="0.75" stroke-linecap="round" stroke-linejoin="round"/>
<path d="M9 4.5V0.375" stroke="#00303E" stroke-width="0.75" stroke-linecap="round" stroke-linejoin="round"/>
<path d="M12.75 10.5L9 6.75L5.25 10.5" stroke="#00303E" stroke-width="0.75" stroke-linecap="round" stroke-linejoin="round"/>
<path d="M9 6.75V14.625" stroke="#00303E" stroke-width="0.75" stroke-linecap="round" stroke-linejoin="round"/>
</svg>
