<svg width="16" height="16" viewBox="0 0 16 16" fill="none" xmlns="http://www.w3.org/2000/svg">
<g clip-path="url(#clip0_455_3695)">
<path d="M4.33325 4.3335V1.00016C4.33325 0.823352 4.40349 0.653783 4.52851 0.528758C4.65354 0.403734 4.82311 0.333496 4.99992 0.333496H11.6666L15.6666 4.3335V15.0002C15.6666 15.177 15.5963 15.3465 15.4713 15.4716C15.3463 15.5966 15.1767 15.6668 14.9999 15.6668H10.3333" stroke="black" stroke-width="0.666667" stroke-linecap="round" stroke-linejoin="round"/>
<path d="M11.6667 0.333496V3.66683C11.6667 3.84364 11.737 4.01321 11.862 4.13823C11.987 4.26326 12.1566 4.3335 12.3334 4.3335H15.6667" stroke="black" stroke-width="0.666667" stroke-linecap="round" stroke-linejoin="round"/>
<path d="M1 13.6665H9V14.9998C9 15.1766 8.92976 15.3462 8.80474 15.4712C8.67971 15.5963 8.51014 15.6665 8.33333 15.6665H1.66667C1.48986 15.6665 1.32029 15.5963 1.19526 15.4712C1.07024 15.3462 1 15.1766 1 14.9998V13.6665Z" stroke="black" stroke-width="0.666667" stroke-linecap="round" stroke-linejoin="round"/>
<path d="M6.99992 11.6665C6.65278 11.6666 6.31928 11.5314 6.07029 11.2895C5.82131 11.0476 5.67648 10.7182 5.66659 10.3712V10.3712C5.66057 10.1578 5.70586 9.94609 5.79867 9.75386C5.89148 9.56163 6.02909 9.3945 6.19992 9.2665C6.53573 9.01464 6.78379 8.66351 6.90895 8.26284C7.03411 7.86217 7.03003 7.43227 6.89729 7.03405C6.76454 6.63582 6.50987 6.28946 6.16934 6.04402C5.82881 5.79858 5.41968 5.6665 4.99992 5.6665C4.58015 5.6665 4.17103 5.79858 3.8305 6.04402C3.48997 6.28946 3.23529 6.63582 3.10255 7.03405C2.96981 7.43227 2.96573 7.86217 3.09089 8.26284C3.21605 8.66351 3.46411 9.01464 3.79992 9.2665C3.97021 9.39485 4.10743 9.56196 4.20018 9.75396C4.29294 9.94597 4.33856 10.1573 4.33325 10.3705V10.3705C4.32353 10.7176 4.17877 11.0472 3.92977 11.2893C3.68077 11.5313 3.34717 11.6666 2.99992 11.6665H1.66659C1.31296 11.6665 0.973825 11.807 0.723776 12.057C0.473728 12.3071 0.333252 12.6462 0.333252 12.9998C0.333252 13.1766 0.40349 13.3462 0.528514 13.4712C0.653538 13.5963 0.823108 13.6665 0.999919 13.6665H8.99992C9.17673 13.6665 9.3463 13.5963 9.47132 13.4712C9.59635 13.3462 9.66659 13.1766 9.66659 12.9998C9.66659 12.6462 9.52611 12.3071 9.27606 12.057C9.02601 11.807 8.68687 11.6665 8.33325 11.6665H6.99992Z" stroke="black" stroke-width="0.666667" stroke-linecap="round" stroke-linejoin="round"/>
<path d="M14.0001 6.99951H8.66675" stroke="black" stroke-width="0.666667" stroke-linecap="round" stroke-linejoin="round"/>
<path d="M13.9999 12.3325H11.3333" stroke="black" stroke-width="0.666667" stroke-linecap="round" stroke-linejoin="round"/>
<path d="M14.0001 9.66602H9.66675" stroke="black" stroke-width="0.666667" stroke-linecap="round" stroke-linejoin="round"/>
</g>
<defs>
<clipPath id="clip0_455_3695">
<rect width="16" height="16" fill="white"/>
</clipPath>
</defs>
</svg>
