<svg width="16" height="16" viewBox="0 0 16 16" fill="none" xmlns="http://www.w3.org/2000/svg">
<g clip-path="url(#clip0_455_3736)">
<path d="M8.66675 4.20817C8.66675 4.38498 8.73699 4.55455 8.86201 4.67958C8.98703 4.8046 9.1566 4.87484 9.33341 4.87484C9.51023 4.87484 9.67979 4.8046 9.80482 4.67958C9.92984 4.55455 10.0001 4.38498 10.0001 4.20817C10.0001 4.03136 9.92984 3.86179 9.80482 3.73677C9.67979 3.61174 9.51023 3.5415 9.33341 3.5415C9.1566 3.5415 8.98703 3.61174 8.86201 3.73677C8.73699 3.86179 8.66675 4.03136 8.66675 4.20817Z" stroke="black" stroke-width="0.666667" stroke-linecap="round" stroke-linejoin="round"/>
<path d="M5.66675 4.20817C5.66675 4.38498 5.73699 4.55455 5.86201 4.67958C5.98703 4.8046 6.1566 4.87484 6.33341 4.87484C6.51023 4.87484 6.67979 4.8046 6.80482 4.67958C6.92984 4.55455 7.00008 4.38498 7.00008 4.20817C7.00008 4.03136 6.92984 3.86179 6.80482 3.73677C6.67979 3.61174 6.51023 3.5415 6.33341 3.5415C6.1566 3.5415 5.98703 3.61174 5.86201 3.73677C5.73699 3.86179 5.66675 4.03136 5.66675 4.20817Z" stroke="black" stroke-width="0.666667" stroke-linecap="round" stroke-linejoin="round"/>
<path d="M10.3333 1.00016C10.3333 1.17697 10.4035 1.34654 10.5285 1.47157C10.6535 1.59659 10.8231 1.66683 10.9999 1.66683C11.1767 1.66683 11.3463 1.59659 11.4713 1.47157C11.5963 1.34654 11.6666 1.17697 11.6666 1.00016C11.6666 0.823352 11.5963 0.653783 11.4713 0.528758C11.3463 0.403734 11.1767 0.333496 10.9999 0.333496C10.8231 0.333496 10.6535 0.403734 10.5285 0.528758C10.4035 0.653783 10.3333 0.823352 10.3333 1.00016V1.00016Z" stroke="black" stroke-width="0.666667" stroke-linecap="round" stroke-linejoin="round"/>
<path d="M4.33325 1.00016C4.33325 1.17697 4.40349 1.34654 4.52851 1.47157C4.65354 1.59659 4.82311 1.66683 4.99992 1.66683C5.17673 1.66683 5.3463 1.59659 5.47132 1.47157C5.59635 1.34654 5.66659 1.17697 5.66659 1.00016C5.66659 0.823352 5.59635 0.653783 5.47132 0.528758C5.3463 0.403734 5.17673 0.333496 4.99992 0.333496C4.82311 0.333496 4.65354 0.403734 4.52851 0.528758C4.40349 0.653783 4.33325 0.823352 4.33325 1.00016V1.00016Z" stroke="black" stroke-width="0.666667" stroke-linecap="round" stroke-linejoin="round"/>
<path d="M10.3333 15.0002C10.3333 15.177 10.4035 15.3465 10.5285 15.4716C10.6535 15.5966 10.8231 15.6668 10.9999 15.6668C11.1767 15.6668 11.3463 15.5966 11.4713 15.4716C11.5963 15.3465 11.6666 15.177 11.6666 15.0002C11.6666 14.8234 11.5963 14.6538 11.4713 14.5288C11.3463 14.4037 11.1767 14.3335 10.9999 14.3335C10.8231 14.3335 10.6535 14.4037 10.5285 14.5288C10.4035 14.6538 10.3333 14.8234 10.3333 15.0002Z" stroke="black" stroke-width="0.666667" stroke-linecap="round" stroke-linejoin="round"/>
<path d="M4.33325 15.0002C4.33325 15.177 4.40349 15.3465 4.52851 15.4716C4.65354 15.5966 4.82311 15.6668 4.99992 15.6668C5.17673 15.6668 5.3463 15.5966 5.47132 15.4716C5.59635 15.3465 5.66659 15.177 5.66659 15.0002C5.66659 14.8234 5.59635 14.6538 5.47132 14.5288C5.3463 14.4037 5.17673 14.3335 4.99992 14.3335C4.82311 14.3335 4.65354 14.4037 4.52851 14.5288C4.40349 14.6538 4.33325 14.8234 4.33325 15.0002Z" stroke="black" stroke-width="0.666667" stroke-linecap="round" stroke-linejoin="round"/>
<path d="M14.3333 11.0002C14.3333 11.177 14.4035 11.3465 14.5285 11.4716C14.6535 11.5966 14.8231 11.6668 14.9999 11.6668C15.1767 11.6668 15.3463 11.5966 15.4713 11.4716C15.5963 11.3465 15.6666 11.177 15.6666 11.0002C15.6666 10.8234 15.5963 10.6538 15.4713 10.5288C15.3463 10.4037 15.1767 10.3335 14.9999 10.3335C14.8231 10.3335 14.6535 10.4037 14.5285 10.5288C14.4035 10.6538 14.3333 10.8234 14.3333 11.0002Z" stroke="black" stroke-width="0.666667" stroke-linecap="round" stroke-linejoin="round"/>
<path d="M14.3333 5.00016C14.3333 5.17697 14.4035 5.34654 14.5285 5.47157C14.6535 5.59659 14.8231 5.66683 14.9999 5.66683C15.1767 5.66683 15.3463 5.59659 15.4713 5.47157C15.5963 5.34654 15.6666 5.17697 15.6666 5.00016C15.6666 4.82335 15.5963 4.65378 15.4713 4.52876C15.3463 4.40373 15.1767 4.3335 14.9999 4.3335C14.8231 4.3335 14.6535 4.40373 14.5285 4.52876C14.4035 4.65378 14.3333 4.82335 14.3333 5.00016Z" stroke="black" stroke-width="0.666667" stroke-linecap="round" stroke-linejoin="round"/>
<path d="M0.333252 11.0002C0.333252 11.177 0.40349 11.3465 0.528514 11.4716C0.653538 11.5966 0.823108 11.6668 0.999919 11.6668C1.17673 11.6668 1.3463 11.5966 1.47132 11.4716C1.59635 11.3465 1.66659 11.177 1.66659 11.0002C1.66659 10.8234 1.59635 10.6538 1.47132 10.5288C1.3463 10.4037 1.17673 10.3335 0.999919 10.3335C0.823108 10.3335 0.653538 10.4037 0.528514 10.5288C0.40349 10.6538 0.333252 10.8234 0.333252 11.0002V11.0002Z" stroke="black" stroke-width="0.666667" stroke-linecap="round" stroke-linejoin="round"/>
<path d="M0.333252 5.00016C0.333252 5.17697 0.40349 5.34654 0.528514 5.47157C0.653538 5.59659 0.823108 5.66683 0.999919 5.66683C1.17673 5.66683 1.3463 5.59659 1.47132 5.47157C1.59635 5.34654 1.66659 5.17697 1.66659 5.00016C1.66659 4.82335 1.59635 4.65378 1.47132 4.52876C1.3463 4.40373 1.17673 4.3335 0.999919 4.3335C0.823108 4.3335 0.653538 4.40373 0.528514 4.52876C0.40349 4.65378 0.333252 4.82335 0.333252 5.00016V5.00016Z" stroke="black" stroke-width="0.666667" stroke-linecap="round" stroke-linejoin="round"/>
<path d="M8.66675 11.5412C8.66675 11.718 8.73699 11.8876 8.86201 12.0126C8.98703 12.1376 9.1566 12.2078 9.33341 12.2078C9.51023 12.2078 9.67979 12.1376 9.80482 12.0126C9.92984 11.8876 10.0001 11.718 10.0001 11.5412C10.0001 11.3644 9.92984 11.1948 9.80482 11.0698C9.67979 10.9447 9.51023 10.8745 9.33341 10.8745C9.1566 10.8745 8.98703 10.9447 8.86201 11.0698C8.73699 11.1948 8.66675 11.3644 8.66675 11.5412Z" stroke="black" stroke-width="0.666667" stroke-linecap="round" stroke-linejoin="round"/>
<path d="M5.66675 11.5412C5.66675 11.718 5.73699 11.8876 5.86201 12.0126C5.98703 12.1376 6.1566 12.2078 6.33341 12.2078C6.51023 12.2078 6.67979 12.1376 6.80482 12.0126C6.92984 11.8876 7.00008 11.718 7.00008 11.5412C7.00008 11.3644 6.92984 11.1948 6.80482 11.0698C6.67979 10.9447 6.51023 10.8745 6.33341 10.8745C6.1566 10.8745 5.98703 10.9447 5.86201 11.0698C5.73699 11.1948 5.66675 11.3644 5.66675 11.5412Z" stroke="black" stroke-width="0.666667" stroke-linecap="round" stroke-linejoin="round"/>
<path d="M10.8333 9.37467C10.8333 9.55149 10.9035 9.72105 11.0285 9.84608C11.1535 9.9711 11.3231 10.0413 11.4999 10.0413C11.6767 10.0413 11.8463 9.9711 11.9713 9.84608C12.0963 9.72105 12.1666 9.55149 12.1666 9.37467C12.1666 9.19786 12.0963 9.02829 11.9713 8.90327C11.8463 8.77825 11.6767 8.70801 11.4999 8.70801C11.3231 8.70801 11.1535 8.77825 11.0285 8.90327C10.9035 9.02829 10.8333 9.19786 10.8333 9.37467Z" stroke="black" stroke-width="0.666667" stroke-linecap="round" stroke-linejoin="round"/>
<path d="M10.8333 6.37467C10.8333 6.55149 10.9035 6.72105 11.0285 6.84608C11.1535 6.9711 11.3231 7.04134 11.4999 7.04134C11.6767 7.04134 11.8463 6.9711 11.9713 6.84608C12.0963 6.72105 12.1666 6.55149 12.1666 6.37467C12.1666 6.19786 12.0963 6.02829 11.9713 5.90327C11.8463 5.77825 11.6767 5.70801 11.4999 5.70801C11.3231 5.70801 11.1535 5.77825 11.0285 5.90327C10.9035 6.02829 10.8333 6.19786 10.8333 6.37467Z" stroke="black" stroke-width="0.666667" stroke-linecap="round" stroke-linejoin="round"/>
<path d="M3.5 9.37467C3.5 9.55149 3.57024 9.72105 3.69526 9.84608C3.82029 9.9711 3.98986 10.0413 4.16667 10.0413C4.34348 10.0413 4.51305 9.9711 4.63807 9.84608C4.7631 9.72105 4.83333 9.55149 4.83333 9.37467C4.83333 9.19786 4.7631 9.02829 4.63807 8.90327C4.51305 8.77825 4.34348 8.70801 4.16667 8.70801C3.98986 8.70801 3.82029 8.77825 3.69526 8.90327C3.57024 9.02829 3.5 9.19786 3.5 9.37467Z" stroke="black" stroke-width="0.666667" stroke-linecap="round" stroke-linejoin="round"/>
<path d="M3.5 6.37467C3.5 6.55149 3.57024 6.72105 3.69526 6.84608C3.82029 6.9711 3.98986 7.04134 4.16667 7.04134C4.34348 7.04134 4.51305 6.9711 4.63807 6.84608C4.7631 6.72105 4.83333 6.55149 4.83333 6.37467C4.83333 6.19786 4.7631 6.02829 4.63807 5.90327C4.51305 5.77825 4.34348 5.70801 4.16667 5.70801C3.98986 5.70801 3.82029 5.77825 3.69526 5.90327C3.57024 6.02829 3.5 6.19786 3.5 6.37467Z" stroke="black" stroke-width="0.666667" stroke-linecap="round" stroke-linejoin="round"/>
</g>
<defs>
<clipPath id="clip0_455_3736">
<rect width="16" height="16" fill="white"/>
</clipPath>
</defs>
</svg>
