<svg width="18" height="18" viewBox="0 0 18 18" fill="none" xmlns="http://www.w3.org/2000/svg">
<g clip-path="url(#clip0_201_5762)">
<path d="M6.05556 7.65902C5.75358 7.05428 5.25623 6.56925 4.64411 6.28253C4.03199 5.99581 3.34098 5.92422 2.68308 6.07934C2.02518 6.23447 1.43895 6.60724 1.0194 7.13722C0.599855 7.6672 0.371582 8.32333 0.371582 8.99927C0.371582 9.67521 0.599855 10.3313 1.0194 10.8613C1.43895 11.3913 2.02518 11.7641 2.68308 11.9192C3.34098 12.0743 4.03199 12.0027 4.64411 11.716C5.25623 11.4293 5.75358 10.9443 6.05556 10.3395" stroke="white" stroke-width="0.75" stroke-linecap="round" stroke-linejoin="round"/>
<path d="M14.625 6.3751C15.2798 6.37671 15.9172 6.16457 16.4405 5.77092C16.9637 5.37727 17.3442 4.82361 17.5241 4.19403C17.704 3.56445 17.6736 2.89336 17.4374 2.28266C17.2012 1.67197 16.7721 1.15505 16.2153 0.810408C15.6586 0.465769 15.0046 0.312244 14.3526 0.373149C13.7007 0.434054 13.0864 0.706062 12.6032 1.14786C12.1199 1.58966 11.794 2.17711 11.675 2.82099C11.556 3.46487 11.6503 4.12999 11.9438 4.71535" stroke="white" stroke-width="0.75" stroke-linecap="round" stroke-linejoin="round"/>
<path d="M11.9437 13.284C11.6519 13.8679 11.5586 14.5311 11.6778 15.1729C11.797 15.8147 12.1223 16.4001 12.6043 16.8403C13.0864 17.2805 13.6988 17.5514 14.3488 17.612C14.9987 17.6727 15.6507 17.5196 16.2058 17.1761C16.7609 16.8327 17.1889 16.3175 17.4247 15.7088C17.6605 15.1001 17.6914 14.4311 17.5126 13.8033C17.3338 13.1755 16.9551 12.6231 16.434 12.23C15.9129 11.8369 15.2777 11.6245 14.625 11.625" stroke="white" stroke-width="0.75" stroke-linecap="round" stroke-linejoin="round"/>
<path d="M14.625 6.37508C14.0681 6.37458 13.5223 6.21905 13.0488 5.92591C12.5752 5.63277 12.1926 5.2136 11.9438 4.71533L6.05554 7.65908C6.26561 8.07475 6.37506 8.53397 6.37506 8.99971C6.37506 9.46544 6.26561 9.92466 6.05554 10.3403L11.9438 13.2848C12.1926 12.7866 12.5752 12.3674 13.0488 12.0743C13.5223 11.7811 14.0681 11.6256 14.625 11.6251" stroke="white" stroke-width="0.75" stroke-linecap="round" stroke-linejoin="round"/>
</g>
<defs>
<clipPath id="clip0_201_5762">
<rect width="18" height="18" fill="white"/>
</clipPath>
</defs>
</svg>
