<svg width="18" height="18" viewBox="0 0 18 18" fill="none" xmlns="http://www.w3.org/2000/svg">
<path d="M14.625 3.375V0.75C14.625 0.650544 14.5855 0.555161 14.5152 0.484835C14.4448 0.414509 14.3495 0.375 14.25 0.375H4.125C3.72718 0.375 3.34564 0.533035 3.06434 0.81434C2.78304 1.09564 2.625 1.47718 2.625 1.875C2.625 2.27282 2.78304 2.65436 3.06434 2.93566C3.34564 3.21696 3.72718 3.375 4.125 3.375H14.625Z" fill="#9FEAFF"/>
<path d="M13.125 1.875H4.125V3.375H13.125V1.875Z" fill="white"/>
<path d="M4.125 1.875H13.125V3.375" stroke="#00303E" stroke-width="0.75" stroke-linecap="round" stroke-linejoin="round"/>
<path d="M2.625 1.875C2.625 2.27282 2.78304 2.65436 3.06434 2.93566C3.34564 3.21696 3.72718 3.375 4.125 3.375H15C15.0995 3.375 15.1948 3.41451 15.2652 3.48484C15.3355 3.55516 15.375 3.65054 15.375 3.75V17.25C15.375 17.3495 15.3355 17.4448 15.2652 17.5152C15.1948 17.5855 15.0995 17.625 15 17.625H4.125C3.72718 17.625 3.34564 17.467 3.06434 17.1857C2.78304 16.9044 2.625 16.5228 2.625 16.125V1.875Z" fill="#9FEAFF"/>
<path d="M9 3.375H4.125C3.72718 3.375 3.34564 3.21696 3.06434 2.93566C2.78304 2.65436 2.625 2.27282 2.625 1.875V16.125C2.625 16.5228 2.78304 16.9044 3.06434 17.1857C3.34564 17.467 3.72718 17.625 4.125 17.625H9V3.375Z" fill="#9FEAFF"/>
<path d="M14.625 3.375V0.75C14.625 0.650544 14.5855 0.555161 14.5152 0.484835C14.4448 0.414509 14.3495 0.375 14.25 0.375H4.125C3.72718 0.375 3.34564 0.533035 3.06434 0.81434C2.78304 1.09564 2.625 1.47718 2.625 1.875C2.625 2.27282 2.78304 2.65436 3.06434 2.93566C3.34564 3.21696 3.72718 3.375 4.125 3.375H15C15.0995 3.375 15.1948 3.41451 15.2652 3.48484C15.3355 3.55516 15.375 3.65054 15.375 3.75V17.25C15.375 17.3495 15.3355 17.4448 15.2652 17.5152C15.1948 17.5855 15.0995 17.625 15 17.625H4.125C3.72718 17.625 3.34564 17.467 3.06434 17.1857C2.78304 16.9044 2.625 16.5228 2.625 16.125V1.875" stroke="#00303E" stroke-width="0.75" stroke-linecap="round" stroke-linejoin="round"/>
<path d="M9 15C11.4853 15 13.5 12.9853 13.5 10.5C13.5 8.01472 11.4853 6 9 6C6.51472 6 4.5 8.01472 4.5 10.5C4.5 12.9853 6.51472 15 9 15Z" fill="#DFF9FF" stroke="#00303E" stroke-width="0.75" stroke-linecap="round" stroke-linejoin="round"/>
<path d="M4.90796 12.3735H13.092" stroke="#00303E" stroke-width="0.75" stroke-linecap="round" stroke-linejoin="round"/>
<path d="M4.90796 8.625H13.092" stroke="#00303E" stroke-width="0.75" stroke-linecap="round" stroke-linejoin="round"/>
<path d="M7.125 6.40796V14.592" stroke="#00303E" stroke-width="0.75" stroke-linecap="round" stroke-linejoin="round"/>
<path d="M10.875 6.40796V14.592" stroke="#00303E" stroke-width="0.75" stroke-linecap="round" stroke-linejoin="round"/>
</svg>
