<svg width="16" height="16" viewBox="0 0 16 16" fill="none" xmlns="http://www.w3.org/2000/svg">
<g clip-path="url(#clip0_455_3711)">
<path d="M6.35066 10.2326C5.38206 10.4336 4.3756 10.3428 3.45864 9.9716C2.54167 9.60043 1.75542 8.96559 1.19937 8.14742C0.643319 7.32925 0.34246 6.36452 0.334864 5.37531C0.327268 4.3861 0.613276 3.41687 1.1567 2.59026C1.70012 1.76364 2.47653 1.1168 3.38768 0.731588C4.29884 0.346371 5.30378 0.24009 6.27536 0.426194C7.24693 0.612298 8.14147 1.08242 8.84578 1.77708C9.55008 2.47173 10.0325 3.3597 10.232 4.32861" stroke="black" stroke-width="0.666667" stroke-linecap="round" stroke-linejoin="round"/>
<path d="M2.21875 9.24083L2.66675 7.00016H3.14608C3.24742 7.00016 3.34742 6.97706 3.43849 6.93261C3.52956 6.88815 3.60929 6.82353 3.67164 6.74364C3.73398 6.66375 3.77729 6.5707 3.79828 6.47156C3.81927 6.37242 3.81737 6.2698 3.79275 6.1715L3.45942 4.83816C3.4233 4.694 3.34005 4.56604 3.22289 4.4746C3.10572 4.38316 2.96137 4.3335 2.81275 4.3335H0.434082" stroke="black" stroke-width="0.666667" stroke-linecap="round" stroke-linejoin="round"/>
<path d="M9.32673 2.3335H7.52073C7.37212 2.3335 7.22776 2.38316 7.1106 2.4746C6.99343 2.56604 6.91018 2.694 6.87407 2.83816L6.54073 4.1715C6.51611 4.2698 6.51422 4.37242 6.5352 4.47156C6.55619 4.5707 6.5995 4.66375 6.66184 4.74364C6.72419 4.82353 6.80393 4.88815 6.89499 4.93261C6.98606 4.97706 7.08606 5.00016 7.1874 5.00016H7.3334" stroke="black" stroke-width="0.666667" stroke-linecap="round" stroke-linejoin="round"/>
<path d="M14.3334 5.6665H9.00008C8.2637 5.6665 7.66675 6.26346 7.66675 6.99984V14.3332C7.66675 15.0696 8.2637 15.6665 9.00008 15.6665H14.3334C15.0698 15.6665 15.6667 15.0696 15.6667 14.3332V6.99984C15.6667 6.26346 15.0698 5.6665 14.3334 5.6665Z" stroke="black" stroke-width="0.666667" stroke-linecap="round" stroke-linejoin="round"/>
<path d="M11.6667 12.9998C13.1394 12.9998 14.3333 11.8059 14.3333 10.3332C14.3333 8.86041 13.1394 7.6665 11.6667 7.6665C10.1939 7.6665 9 8.86041 9 10.3332C9 11.8059 10.1939 12.9998 11.6667 12.9998Z" stroke="black" stroke-width="0.666667" stroke-linecap="round" stroke-linejoin="round"/>
<path d="M11.6667 12.9998C12.219 12.9998 12.6667 11.8059 12.6667 10.3332C12.6667 8.86041 12.219 7.6665 11.6667 7.6665C11.1145 7.6665 10.6667 8.86041 10.6667 10.3332C10.6667 11.8059 11.1145 12.9998 11.6667 12.9998Z" stroke="black" stroke-width="0.666667" stroke-linecap="round" stroke-linejoin="round"/>
<path d="M9 10.3335H14.3333" stroke="black" stroke-width="0.666667" stroke-linecap="round" stroke-linejoin="round"/>
</g>
<defs>
<clipPath id="clip0_455_3711">
<rect width="16" height="16" fill="white"/>
</clipPath>
</defs>
</svg>
