<svg width="16" height="16" viewBox="0 0 16 16" fill="none" xmlns="http://www.w3.org/2000/svg">
<path d="M3.66675 1.6665H11.6667V2.99984" stroke="black" stroke-width="0.666667" stroke-linecap="round" stroke-linejoin="round"/>
<path d="M12.9999 3.00016V0.666829C12.9999 0.578424 12.9648 0.493639 12.9023 0.431127C12.8398 0.368615 12.755 0.333496 12.6666 0.333496H3.66659C3.31296 0.333496 2.97382 0.473972 2.72378 0.72402C2.47373 0.974069 2.33325 1.31321 2.33325 1.66683C2.33325 2.02045 2.47373 2.35959 2.72378 2.60964C2.97382 2.85969 3.31296 3.00016 3.66659 3.00016H13.3333C13.4217 3.00016 13.5064 3.03528 13.569 3.09779C13.6315 3.16031 13.6666 3.24509 13.6666 3.3335V15.3335C13.6666 15.4219 13.6315 15.5067 13.569 15.5692C13.5064 15.6317 13.4217 15.6668 13.3333 15.6668H3.66659C3.31296 15.6668 2.97382 15.5264 2.72378 15.2763C2.47373 15.0263 2.33325 14.6871 2.33325 14.3335V1.66683" stroke="black" stroke-width="0.666667" stroke-linecap="round" stroke-linejoin="round"/>
<path d="M4 9.3335C4 10.3944 4.42143 11.4118 5.17157 12.1619C5.92172 12.9121 6.93913 13.3335 8 13.3335C9.06087 13.3335 10.0783 12.9121 10.8284 12.1619C11.5786 11.4118 12 10.3944 12 9.3335C12 8.27263 11.5786 7.25521 10.8284 6.50507C10.0783 5.75492 9.06087 5.3335 8 5.3335C6.93913 5.3335 5.92172 5.75492 5.17157 6.50507C4.42143 7.25521 4 8.27263 4 9.3335V9.3335Z" stroke="black" stroke-width="0.666667" stroke-linecap="round" stroke-linejoin="round"/>
<path d="M4.36255 10.9985H11.6372" stroke="black" stroke-width="0.666667" stroke-linecap="round" stroke-linejoin="round"/>
<path d="M4.36255 7.6665H11.6372" stroke="black" stroke-width="0.666667" stroke-linecap="round" stroke-linejoin="round"/>
<path d="M6.33325 5.6958V12.9705" stroke="black" stroke-width="0.666667" stroke-linecap="round" stroke-linejoin="round"/>
<path d="M9.66675 5.6958V12.9705" stroke="black" stroke-width="0.666667" stroke-linecap="round" stroke-linejoin="round"/>
</svg>
