<svg width="18" height="18" viewBox="0 0 18 18" fill="none" xmlns="http://www.w3.org/2000/svg">
<g clip-path="url(#clip0_201_7188)">
<path d="M6.81456 5.55006C7.1395 5.22454 7.32201 4.78338 7.32201 4.32343C7.32201 3.86348 7.1395 3.42233 6.81456 3.09681L4.97406 1.25856C4.64873 0.933245 4.2075 0.750488 3.74743 0.750488C3.28736 0.750488 2.84613 0.933245 2.52081 1.25856L1.51206 2.26806C1.08763 2.69181 0.822935 3.2494 0.762919 3.84615C0.702902 4.44289 0.851261 5.04202 1.18281 5.54181C4.15348 10.0132 7.98689 13.8466 12.4583 16.8173C12.9583 17.1484 13.5573 17.2966 14.154 17.2369C14.7506 17.1772 15.3084 16.9132 15.7328 16.4896L16.7416 15.4801C16.9027 15.319 17.0306 15.1278 17.1178 14.9173C17.205 14.7069 17.2499 14.4813 17.2499 14.2534C17.2499 14.0256 17.205 13.8 17.1178 13.5895C17.0306 13.3791 16.9027 13.1878 16.7416 13.0268L14.9018 11.1871C14.7408 11.0259 14.5496 10.898 14.3391 10.8108C14.1286 10.7236 13.903 10.6787 13.6752 10.6787C13.4473 10.6787 13.2218 10.7236 13.0113 10.8108C12.8008 10.898 12.6096 11.0259 12.4486 11.1871L11.8351 11.8006C9.7792 10.1087 7.89236 8.22136 6.20106 6.16506L6.81456 5.55006Z" stroke="#403F61" stroke-width="0.75" stroke-linecap="round" stroke-linejoin="round"/>
</g>
<defs>
<clipPath id="clip0_201_7188">
<rect width="18" height="18" fill="white"/>
</clipPath>
</defs>
</svg>
