<svg width="18" height="18" viewBox="0 0 18 18" fill="none" xmlns="http://www.w3.org/2000/svg">
<g clip-path="url(#clip0_400_1920)">
<path d="M6.1875 7.30642C6.18672 6.77574 6.33603 6.25565 6.61817 5.80619C6.90031 5.35672 7.3038 4.9962 7.78208 4.76623C8.26035 4.53626 8.7939 4.44622 9.32115 4.50649C9.8484 4.56677 10.3478 4.77491 10.7618 5.10689C11.1759 5.43887 11.4876 5.88116 11.661 6.38271C11.8344 6.88426 11.8625 7.42462 11.7419 7.94143C11.6214 8.45826 11.3572 8.93046 10.9798 9.30351C10.6024 9.67663 10.1272 9.93538 9.609 10.0499C9.43905 10.0834 9.28575 10.1744 9.17483 10.3075C9.06398 10.4407 9.00225 10.6079 9 10.7812V11.6159" stroke="black" stroke-width="0.75" stroke-linecap="round" stroke-linejoin="round"/>
<path d="M9 17.6257C13.7635 17.6257 17.625 13.7642 17.625 9.00075C17.625 4.23728 13.7635 0.375732 9 0.375732C4.23655 0.375732 0.375 4.23728 0.375 9.00075C0.375 13.7642 4.23655 17.6257 9 17.6257Z" stroke="black" stroke-width="0.75" stroke-linecap="round" stroke-linejoin="round"/>
<path d="M9.00146 13.8689C8.89789 13.8689 8.81396 13.785 8.81396 13.6814C8.81396 13.5779 8.89789 13.4939 9.00146 13.4939" stroke="black" stroke-width="0.75"/>
<path d="M9.00146 13.8689C9.10504 13.8689 9.18896 13.785 9.18896 13.6814C9.18896 13.5779 9.10504 13.4939 9.00146 13.4939" stroke="black" stroke-width="0.75"/>
</g>
<defs>
<clipPath id="clip0_400_1920">
<rect width="18" height="18" fill="white"/>
</clipPath>
</defs>
</svg>
