<svg width="24" height="24" viewBox="0 0 24 24" fill="none" xmlns="http://www.w3.org/2000/svg">
<path d="M12 22.5C17.799 22.5 22.5 17.799 22.5 12C22.5 6.20101 17.799 1.5 12 1.5C6.20101 1.5 1.5 6.20101 1.5 12C1.5 17.799 6.20101 22.5 12 22.5Z" fill="#DFF9FF"/>
<path d="M8.5 4.49799H23.5" stroke="#00303E" stroke-linecap="round" stroke-linejoin="round"/>
<path d="M8.5 12.498H23.5" stroke="#00303E" stroke-linecap="round" stroke-linejoin="round"/>
<path d="M8.5 20.498H23.5" stroke="#00303E" stroke-linecap="round" stroke-linejoin="round"/>
<path d="M3.5 2.49799H1.5C0.947715 2.49799 0.5 2.9457 0.5 3.49799V5.49799C0.5 6.05027 0.947715 6.49799 1.5 6.49799H3.5C4.05228 6.49799 4.5 6.05027 4.5 5.49799V3.49799C4.5 2.9457 4.05228 2.49799 3.5 2.49799Z" fill="#9FEAFF" stroke="#00303E" stroke-linecap="round" stroke-linejoin="round"/>
<path d="M3.5 10.498H1.5C0.947715 10.498 0.5 10.9457 0.5 11.498V13.498C0.5 14.0503 0.947715 14.498 1.5 14.498H3.5C4.05228 14.498 4.5 14.0503 4.5 13.498V11.498C4.5 10.9457 4.05228 10.498 3.5 10.498Z" fill="#9FEAFF" stroke="#00303E" stroke-linecap="round" stroke-linejoin="round"/>
<path d="M3.5 18.498H1.5C0.947715 18.498 0.5 18.9457 0.5 19.498V21.498C0.5 22.0503 0.947715 22.498 1.5 22.498H3.5C4.05228 22.498 4.5 22.0503 4.5 21.498V19.498C4.5 18.9457 4.05228 18.498 3.5 18.498Z" fill="#9FEAFF" stroke="#00303E" stroke-linecap="round" stroke-linejoin="round"/>
</svg>
