<svg width="121" height="121" viewBox="0 0 121 121" fill="none" xmlns="http://www.w3.org/2000/svg">
<path d="M14.572 59.671C14.572 72.5075 19.6713 84.8182 28.7481 93.895C37.8248 102.972 50.1355 108.071 62.972 108.071C75.8085 108.071 88.1192 102.972 97.196 93.895C106.273 84.8182 111.372 72.5075 111.372 59.671C111.372 46.8345 106.273 34.5238 97.196 25.447C88.1192 16.3703 75.8085 11.271 62.972 11.271C50.1355 11.271 37.8248 16.3703 28.7481 25.447C19.6713 34.5238 14.572 46.8345 14.572 59.671Z" fill="#D9EDFF"/>
<path d="M101.413 94.0801C97.9822 86.8339 92.5465 80.7228 85.7495 76.4712C78.9525 72.2195 71.0792 70.0054 63.0624 70.0913C55.0457 70.1771 47.2216 72.5592 40.5171 76.9554C33.8127 81.3516 28.5091 87.5776 25.2346 94.8956C30.1265 100.133 36.0556 104.295 42.6443 107.115C49.233 109.935 56.3369 111.352 63.5033 111.275C70.6698 111.198 77.7416 109.63 84.2685 106.669C90.7953 103.709 96.634 99.4213 101.413 94.0801Z" fill="#B0D9FF"/>
<path d="M75.5947 71.8545H69.3547C68.0024 71.8242 66.6825 72.2707 65.6264 73.1158C64.5702 73.9609 63.8451 75.1506 63.5781 76.4767C63.443 77.2738 63.4833 78.0908 63.6964 78.8707C63.9094 79.6506 64.29 80.3747 64.8116 80.9924C65.3333 81.6101 65.9834 82.1066 66.7166 82.4472C67.4498 82.7879 68.2485 82.9645 69.057 82.9647C69.738 82.9654 70.4098 83.1223 71.0206 83.4232C71.6315 83.7242 72.1652 84.1613 72.5807 84.7009C72.9961 85.2405 73.2823 85.8682 73.4171 86.5357C73.552 87.2032 73.532 87.8927 73.3586 88.5513C73.0811 89.5185 72.4916 90.3667 71.6819 90.964C70.8721 91.5613 69.8876 91.8739 68.8816 91.8534H53.0197C47.0036 91.8534 41.6106 96.3582 41.296 102.366C41.217 103.885 41.4509 105.404 41.9833 106.828C49.1623 110.018 56.9744 111.528 64.825 111.244C72.6756 110.959 80.3578 108.887 87.2869 105.185H86.8343C86.5425 105.185 86.2535 105.128 85.9838 105.016C85.7141 104.905 85.4691 104.741 85.2627 104.535C85.0563 104.329 84.8925 104.084 84.7808 103.814C84.6691 103.544 84.6116 103.255 84.6116 102.964V100.188C84.6114 99.8959 84.6688 99.6068 84.7804 99.337C84.8921 99.0673 85.0558 98.8222 85.2623 98.6158C85.4687 98.4093 85.7138 98.2456 85.9835 98.1339C86.2533 98.0223 86.5424 97.9649 86.8343 97.9651H96.334C96.8213 97.9608 97.3058 97.8924 97.7752 97.7618C99.0545 96.5921 100.272 95.3595 101.428 94.064C98.9086 88.7655 95.3088 84.0524 90.8599 80.2276C86.4109 76.4027 81.2112 73.5506 75.5947 71.8545Z" fill="white"/>
<path d="M101.413 94.0801C97.9822 86.8339 92.5465 80.7228 85.7495 76.4712C78.9525 72.2195 71.0792 70.0054 63.0624 70.0913C55.0457 70.1771 47.2216 72.5592 40.5171 76.9554C33.8127 81.3516 28.5091 87.5776 25.2346 94.8956" stroke="#020064" stroke-width="1.21" stroke-linecap="round" stroke-linejoin="round"/>
<path d="M87.2869 105.185H86.8343C86.5425 105.186 86.2535 105.128 85.9838 105.017C85.7141 104.905 85.4691 104.741 85.2627 104.535C85.0563 104.329 84.8925 104.084 84.7808 103.814C84.6691 103.545 84.6116 103.256 84.6116 102.964V100.188C84.6114 99.8962 84.6688 99.607 84.7804 99.3373C84.8921 99.0675 85.0558 98.8224 85.2623 98.616C85.4687 98.4096 85.7138 98.2458 85.9835 98.1342C86.2533 98.0225 86.5424 97.9652 86.8343 97.9653H96.3341C96.8213 97.9611 97.3058 97.8927 97.7752 97.762C99.0545 96.5924 100.272 95.3598 101.428 94.0643C98.9085 88.766 95.3086 84.0531 90.8597 80.2285C86.4107 76.4039 81.2111 73.552 75.5947 71.8559H69.3547C68.0024 71.8256 66.6825 72.2721 65.6264 73.1172C64.5702 73.9623 63.8451 75.1521 63.5781 76.4781C63.443 77.2753 63.4833 78.0923 63.6964 78.8722C63.9094 79.6521 64.29 80.3762 64.8116 80.9939C65.3333 81.6116 65.9834 82.108 66.7166 82.4487C67.4498 82.7893 68.2485 82.9659 69.057 82.9662C69.738 82.9669 70.4098 83.1237 71.0206 83.4247C71.6315 83.7257 72.1652 84.1628 72.5806 84.7024C72.9961 85.242 73.2823 85.8696 73.4171 86.5371C73.552 87.2046 73.532 87.8942 73.3586 88.5527C73.0811 89.5199 72.4916 90.3682 71.6819 90.9655C70.8721 91.5627 69.8876 91.8754 68.8816 91.8548H53.0197C47.0036 91.8548 41.6106 96.3596 41.296 102.367C41.217 103.886 41.4509 105.405 41.9833 106.83" stroke="#020064" stroke-width="1.21" stroke-linecap="round" stroke-linejoin="round"/>
<path d="M38.8143 80.8802C36.8619 81.8235 35.3641 83.5034 34.6501 85.5508C33.936 87.5981 34.0642 89.8452 35.0064 91.798C36.6411 95.186 44.6174 98.6357 47.2274 99.6993C47.3338 99.7421 47.448 99.7622 47.5627 99.7584C47.6774 99.7545 47.7899 99.7267 47.8933 99.6769C47.9966 99.627 48.0883 99.5561 48.1626 99.4687C48.237 99.3813 48.2922 99.2793 48.3249 99.1693C49.115 96.4638 51.368 88.076 49.7321 84.688C49.2654 83.721 48.6128 82.8554 47.8114 82.1407C47.0101 81.4259 46.0759 80.876 45.062 80.5224C44.0481 80.1688 42.9746 80.0184 41.9026 80.0798C40.8306 80.1412 39.7811 80.4131 38.8143 80.8802ZM43.2743 90.5311C42.8373 90.7424 42.3474 90.8193 41.8667 90.7521C41.3859 90.6849 40.9359 90.4766 40.5736 90.1536C40.2112 89.8306 39.9528 89.4074 39.831 88.9375C39.7092 88.4676 39.7295 87.9722 39.8894 87.5138C40.0492 87.0555 40.3414 86.6548 40.729 86.3626C41.1165 86.0703 41.5821 85.8996 42.0667 85.8719C42.5513 85.8443 43.0333 85.961 43.4516 86.2073C43.8698 86.4536 44.2057 86.8185 44.4166 87.2557C44.557 87.5457 44.6388 87.8605 44.6574 88.1822C44.676 88.5039 44.631 88.8261 44.5249 89.1303C44.4188 89.4346 44.2537 89.7149 44.0391 89.9553C43.8245 90.1957 43.5646 90.3913 43.2743 90.5311Z" fill="white"/>
<path d="M38.8143 80.8802C36.8619 81.8235 35.3641 83.5034 34.6501 85.5508C33.936 87.5981 34.0642 89.8452 35.0064 91.798C36.6411 95.186 44.6174 98.6357 47.2274 99.6993C47.3338 99.7421 47.448 99.7622 47.5627 99.7584C47.6774 99.7545 47.7899 99.7267 47.8933 99.6769C47.9966 99.627 48.0883 99.5561 48.1626 99.4687C48.237 99.3813 48.2922 99.2793 48.3249 99.1693C49.115 96.4638 51.368 88.076 49.7321 84.688C49.2654 83.721 48.6128 82.8554 47.8114 82.1407C47.0101 81.4259 46.0759 80.876 45.062 80.5224C44.0481 80.1688 42.9746 80.0184 41.9026 80.0798C40.8306 80.1412 39.7811 80.4131 38.8143 80.8802V80.8802ZM43.2743 90.5311C42.8373 90.7424 42.3474 90.8193 41.8667 90.7521C41.3859 90.6849 40.9359 90.4766 40.5736 90.1536C40.2112 89.8306 39.9528 89.4074 39.831 88.9375C39.7092 88.4676 39.7295 87.9722 39.8894 87.5138C40.0492 87.0555 40.3414 86.6548 40.729 86.3626C41.1165 86.0703 41.5821 85.8996 42.0667 85.8719C42.5513 85.8443 43.0333 85.961 43.4516 86.2073C43.8698 86.4536 44.2057 86.8185 44.4166 87.2557C44.557 87.5457 44.6388 87.8605 44.6574 88.1822C44.676 88.5039 44.631 88.8261 44.5249 89.1303C44.4188 89.4346 44.2537 89.7149 44.0391 89.9553C43.8245 90.1957 43.5646 90.3913 43.2743 90.5311V90.5311Z" stroke="#020064" stroke-width="1.21" stroke-linecap="round" stroke-linejoin="round"/>
<path d="M103.946 69.5558C102.325 68.3299 100.284 67.7975 98.271 68.0756C96.2579 68.3538 94.4375 69.4197 93.2099 71.0393C91.0815 73.8501 91.609 81.9789 91.8353 84.6119C91.8451 84.719 91.8772 84.8228 91.9294 84.9169C91.9816 85.0109 92.0529 85.093 92.1386 85.1579C92.2244 85.2228 92.3227 85.2691 92.4274 85.2938C92.532 85.3186 92.6407 85.3212 92.7464 85.3016C95.3419 84.8055 103.302 83.103 105.431 80.2922C106.039 79.4898 106.482 78.5756 106.737 77.6017C106.991 76.6279 107.051 75.6134 106.913 74.6164C106.775 73.6194 106.442 72.6592 105.933 71.7909C105.424 70.9226 104.749 70.1631 103.946 69.5558ZM97.7982 77.3979C97.4357 77.1234 97.1628 76.7476 97.0139 76.318C96.865 75.8883 96.8468 75.4242 96.9617 74.9843C97.0765 74.5444 97.3193 74.1484 97.6592 73.8464C97.9991 73.5444 98.4209 73.35 98.8713 73.2877C99.3217 73.2255 99.7804 73.2982 100.19 73.4966C100.599 73.695 100.94 74.0103 101.17 74.4026C101.399 74.7949 101.508 75.2465 101.481 75.7004C101.454 76.1543 101.294 76.59 101.019 76.9526C100.837 77.1933 100.609 77.3958 100.349 77.5485C100.088 77.7012 99.8 77.8011 99.5009 77.8424C99.2018 77.8838 98.8975 77.8658 98.6053 77.7895C98.3132 77.7132 98.0389 77.5801 97.7982 77.3979Z" fill="white"/>
<path d="M103.946 69.5558C102.325 68.3299 100.284 67.7975 98.271 68.0756C96.2579 68.3538 94.4375 69.4197 93.2099 71.0393C91.0815 73.8501 91.609 81.9789 91.8353 84.6119C91.8451 84.719 91.8772 84.8228 91.9294 84.9169C91.9816 85.0109 92.0529 85.093 92.1386 85.1579C92.2244 85.2228 92.3227 85.2691 92.4274 85.2938C92.532 85.3186 92.6407 85.3212 92.7464 85.3016C95.3419 84.8055 103.302 83.103 105.431 80.2922C106.039 79.4898 106.482 78.5756 106.737 77.6017C106.991 76.6279 107.051 75.6134 106.913 74.6164C106.775 73.6194 106.442 72.6592 105.933 71.7909C105.424 70.9226 104.749 70.1631 103.946 69.5558V69.5558ZM97.7982 77.3979C97.4357 77.1234 97.1628 76.7476 97.0139 76.318C96.865 75.8883 96.8468 75.4242 96.9617 74.9843C97.0765 74.5444 97.3193 74.1484 97.6592 73.8464C97.9991 73.5444 98.4209 73.35 98.8713 73.2877C99.3217 73.2255 99.7804 73.2982 100.19 73.4966C100.599 73.695 100.94 74.0103 101.17 74.4026C101.399 74.7949 101.508 75.2465 101.481 75.7004C101.454 76.1543 101.294 76.59 101.019 76.9526C100.837 77.1933 100.609 77.3958 100.349 77.5485C100.088 77.7012 99.8 77.8011 99.5009 77.8424C99.2018 77.8838 98.8975 77.8658 98.6053 77.7895C98.3132 77.7132 98.0389 77.5801 97.7982 77.3979V77.3979Z" stroke="#020064" stroke-width="1.21" stroke-linecap="round" stroke-linejoin="round"/>
<path d="M36.4209 57.7654C36.6399 56.8867 36.5797 55.9615 36.2484 55.1185C35.9172 54.2756 35.3314 53.5569 34.5727 53.0624C33.814 52.5679 32.92 52.3222 32.0151 52.3595C31.1102 52.3967 30.2394 52.7151 29.5239 53.2703C28.3624 51.9038 26.8096 50.9266 25.0751 50.4706C23.3406 50.0146 21.508 50.1018 19.8246 50.7204C18.1412 51.339 16.6882 52.4592 15.6617 53.9298C14.6352 55.4004 14.0846 57.1505 14.0843 58.944C14.0843 58.9621 14.0843 58.9803 14.0843 58.9996C13.9022 58.9688 13.7183 58.9502 13.5337 58.944C12.3711 58.944 11.256 59.4058 10.4339 60.2279C9.61177 61.0501 9.1499 62.1651 9.1499 63.3278C9.1499 64.4904 9.61177 65.6055 10.4339 66.4276C11.256 67.2497 12.3711 67.7116 13.5337 67.7116H33.2567C34.4196 67.7127 35.5527 67.3434 36.4915 66.6571C37.4304 65.9709 38.1262 65.0034 38.4781 63.895C38.8301 62.7866 38.8198 61.595 38.4488 60.4928C38.0778 59.3907 37.3654 58.4354 36.4148 57.7654H36.4209Z" fill="white"/>
<path d="M36.4209 57.7654C36.6399 56.8867 36.5797 55.9615 36.2484 55.1185C35.9172 54.2756 35.3314 53.5569 34.5727 53.0624C33.814 52.5679 32.92 52.3222 32.0151 52.3595C31.1102 52.3967 30.2394 52.7151 29.5239 53.2703C28.3624 51.9038 26.8096 50.9266 25.0751 50.4706C23.3406 50.0146 21.508 50.1018 19.8246 50.7204C18.1412 51.339 16.6882 52.4592 15.6617 53.9298C14.6352 55.4004 14.0846 57.1505 14.0843 58.944C14.0843 58.9621 14.0843 58.9803 14.0843 58.9996C13.9022 58.9688 13.7183 58.9502 13.5337 58.944C12.3711 58.944 11.256 59.4058 10.4339 60.2279C9.61177 61.0501 9.1499 62.1651 9.1499 63.3278C9.1499 64.4904 9.61177 65.6055 10.4339 66.4276C11.256 67.2497 12.3711 67.7116 13.5337 67.7116H33.2567C34.4196 67.7127 35.5527 67.3434 36.4915 66.6571C37.4304 65.9709 38.1262 65.0034 38.4781 63.895C38.8301 62.7866 38.8198 61.595 38.4488 60.4928C38.0778 59.3907 37.3654 58.4354 36.4148 57.7654H36.4209Z" stroke="#020064" stroke-width="1.21" stroke-linecap="round" stroke-linejoin="round"/>
<path d="M58.3074 61.5371H68.6045V67.7154H58.3074V61.5371Z" fill="white"/>
<path d="M58.3074 61.5371H68.6045V67.7154H58.3074V61.5371Z" stroke="#020064" stroke-width="1.21" stroke-linecap="round" stroke-linejoin="round"/>
<path d="M76.8423 71.8342H50.0686C50.0686 70.7431 50.502 69.6967 51.2736 68.9252C52.0451 68.1537 53.0915 67.7202 54.1826 67.7202H72.721C73.2619 67.7193 73.7976 67.825 74.2976 68.0313C74.7976 68.2376 75.252 68.5405 75.6347 68.9226C76.0175 69.3047 76.3212 69.7586 76.5284 70.2582C76.7356 70.7578 76.8423 71.2934 76.8423 71.8342Z" fill="white" stroke="#020064" stroke-width="1.21" stroke-linecap="round" stroke-linejoin="round"/>
<path d="M90.2284 14.1689H36.6822C35.3168 14.1689 34.0072 14.7114 33.0417 15.6769C32.0761 16.6425 31.5337 17.952 31.5337 19.3175V53.2991H95.3781V19.3175C95.3778 17.9519 94.8351 16.6424 93.8694 15.6768C92.9036 14.7113 91.594 14.1689 90.2284 14.1689Z" fill="#B0D9FF"/>
<path d="M71.1927 14.1689H36.6822C35.3168 14.1689 34.0072 14.7114 33.0417 15.6769C32.0761 16.6425 31.5337 17.952 31.5337 19.3175V53.2991H32.0649L71.1927 14.1689Z" fill="white"/>
<path d="M90.2284 14.1689H36.6822C35.3168 14.1689 34.0072 14.7114 33.0417 15.6769C32.0761 16.6425 31.5337 17.952 31.5337 19.3175V53.2991H95.3781V19.3175C95.3778 17.9519 94.8351 16.6424 93.8694 15.6768C92.9036 14.7113 91.594 14.1689 90.2284 14.1689V14.1689Z" stroke="#020064" stroke-width="1.21" stroke-linecap="round" stroke-linejoin="round"/>
<path d="M90.2284 61.537C90.9048 61.5372 91.5746 61.404 92.1996 61.1452C92.8245 60.8864 93.3923 60.507 93.8706 60.0286C94.3488 59.5502 94.7281 58.9823 94.9868 58.3573C95.2455 57.7323 95.3784 57.0624 95.3781 56.386V53.2993H31.5337V56.386C31.5337 57.7515 32.0761 59.0611 33.0417 60.0266C34.0072 60.9921 35.3168 61.5346 36.6822 61.5346L90.2284 61.537Z" fill="white" stroke="#020064" stroke-width="1.21" stroke-linecap="round" stroke-linejoin="round"/>
<path d="M62.5981 57.4179C62.5981 57.6455 62.6885 57.8637 62.8494 58.0246C63.0103 58.1855 63.2285 58.2758 63.456 58.2758C63.6836 58.2758 63.9018 58.1855 64.0627 58.0246C64.2235 57.8637 64.3139 57.6455 64.3139 57.4179C64.3139 57.1904 64.2235 56.9722 64.0627 56.8113C63.9018 56.6504 63.6836 56.5601 63.456 56.5601C63.2285 56.5601 63.0103 56.6504 62.8494 56.8113C62.6885 56.9722 62.5981 57.1904 62.5981 57.4179Z" fill="#020064" stroke="#020064" stroke-width="1.21"/>
<path d="M70.7511 46.2062C70.1279 46.2056 69.5305 45.9578 69.0898 45.5173C68.649 45.0768 68.401 44.4795 68.4 43.8564V29.2323L66.441 31.1889C66.2229 31.4072 65.9638 31.5803 65.6788 31.6984C65.3937 31.8166 65.0881 31.8774 64.7795 31.8775C64.4709 31.8775 64.1654 31.8168 63.8802 31.6988C63.5951 31.5807 63.336 31.4077 63.1178 31.1895C62.8995 30.9713 62.7264 30.7123 62.6082 30.4272C62.4901 30.1422 62.4293 29.8366 62.4292 29.528C62.4291 29.2194 62.4899 28.9138 62.6079 28.6287C62.726 28.3436 62.899 28.0845 63.1172 27.8662L69.0909 21.8937C69.3091 21.6754 69.5682 21.5022 69.8534 21.384C70.1386 21.2659 70.4442 21.2051 70.7529 21.2051C71.0615 21.2051 71.3672 21.2659 71.6523 21.384C71.9375 21.5022 72.1966 21.6754 72.4148 21.8937L78.3874 27.8662C78.828 28.3072 79.0754 28.9051 79.0752 29.5284C79.0749 30.1518 78.8271 30.7495 78.3862 31.1901C77.9452 31.6307 77.3473 31.8781 76.724 31.8779C76.1006 31.8777 75.5029 31.6298 75.0623 31.1889L73.1045 29.2323V43.8564C73.1035 44.4799 72.8552 45.0776 72.4139 45.5182C71.9727 45.9588 71.3746 46.2062 70.7511 46.2062Z" fill="white" stroke="#020064" stroke-width="1.21" stroke-linecap="round" stroke-linejoin="round"/>
<path d="M55.3188 46.2073C55.0099 46.2082 54.7039 46.1478 54.4185 46.0296C54.1331 45.9114 53.874 45.7378 53.6562 45.5188L47.6849 39.5463C47.4667 39.3279 47.2937 39.0688 47.1757 38.7836C47.0576 38.4984 46.997 38.1927 46.9971 37.8841C46.9972 37.5754 47.0581 37.2698 47.1763 36.9847C47.2945 36.6996 47.4677 36.4406 47.6861 36.2224C47.9044 36.0042 48.1636 35.8312 48.4488 35.7132C48.734 35.5952 49.0396 35.5345 49.3483 35.5346C49.6569 35.5347 49.9625 35.5956 50.2476 35.7138C50.5327 35.8321 50.7918 36.0053 51.0099 36.2236L52.9677 38.1802V23.5561C52.9677 22.9326 53.2154 22.3346 53.6563 21.8937C54.0972 21.4528 54.6952 21.2051 55.3188 21.2051C55.9423 21.2051 56.5403 21.4528 56.9812 21.8937C57.4221 22.3346 57.6698 22.9326 57.6698 23.5561V38.1802L59.6288 36.2236C60.0694 35.7828 60.667 35.5351 61.2903 35.535C61.9135 35.5349 62.5113 35.7824 62.952 36.223C63.3928 36.6636 63.6405 37.2613 63.6406 37.8845C63.6407 38.5077 63.3933 39.1055 62.9526 39.5463L56.9813 45.5188C56.7634 45.7377 56.5043 45.9113 56.2189 46.0294C55.9336 46.1476 55.6276 46.2081 55.3188 46.2073Z" fill="white" stroke="#020064" stroke-width="1.21" stroke-linecap="round" stroke-linejoin="round"/>
<path d="M103.601 42.1601C103.707 41.7365 103.714 41.2944 103.622 40.8676C103.53 40.4408 103.342 40.0406 103.072 39.6978C102.802 39.3549 102.457 39.0784 102.063 38.8894C101.67 38.7005 101.238 38.6041 100.802 38.6076C100.173 38.6094 99.563 38.8182 99.0652 39.2017C98.3012 38.3013 97.2791 37.6571 96.1372 37.3563C94.9952 37.0554 93.7885 37.1124 92.6799 37.5195C91.5714 37.9267 90.6146 38.6643 89.9389 39.6327C89.2631 40.6011 88.9009 41.7536 88.9012 42.9345V42.972C88.7812 42.9515 88.6599 42.939 88.5382 42.9345C88.1543 42.9267 87.7728 42.9955 87.4158 43.137C87.0589 43.2784 86.7338 43.4897 86.4595 43.7584C86.1852 44.0271 85.9674 44.3478 85.8186 44.7018C85.6699 45.0557 85.5933 45.4358 85.5933 45.8198C85.5933 46.2037 85.6699 46.5838 85.8186 46.9378C85.9674 47.2917 86.1852 47.6125 86.4595 47.8812C86.7338 48.1499 87.0589 48.3611 87.4158 48.5026C87.7728 48.6441 88.1543 48.7129 88.5382 48.705H101.519C102.284 48.7061 103.03 48.4633 103.648 48.0118C104.266 47.5603 104.724 46.9236 104.956 46.1941C105.188 45.4647 105.181 44.6803 104.937 43.9549C104.693 43.2296 104.224 42.6009 103.598 42.1601H103.601Z" fill="white"/>
<path d="M103.601 42.1601C103.707 41.7365 103.714 41.2944 103.622 40.8676C103.53 40.4408 103.342 40.0406 103.072 39.6978C102.802 39.3549 102.457 39.0784 102.063 38.8894C101.67 38.7005 101.238 38.6041 100.802 38.6076C100.173 38.6094 99.563 38.8182 99.0652 39.2017C98.3012 38.3013 97.2791 37.6571 96.1372 37.3563C94.9952 37.0554 93.7885 37.1124 92.6799 37.5195C91.5714 37.9267 90.6146 38.6643 89.9389 39.6327C89.2631 40.6011 88.9009 41.7536 88.9012 42.9345V42.972C88.7812 42.9515 88.6599 42.939 88.5382 42.9345C88.1543 42.9267 87.7728 42.9955 87.4158 43.137C87.0589 43.2784 86.7338 43.4897 86.4595 43.7584C86.1852 44.0271 85.9674 44.3478 85.8186 44.7018C85.6699 45.0557 85.5933 45.4358 85.5933 45.8198C85.5933 46.2037 85.6699 46.5838 85.8186 46.9378C85.9674 47.2917 86.1852 47.6125 86.4595 47.8812C86.7338 48.1499 87.0589 48.3611 87.4158 48.5026C87.7728 48.6441 88.1543 48.7129 88.5382 48.705H101.519C102.284 48.7061 103.03 48.4633 103.648 48.0118C104.266 47.5603 104.724 46.9236 104.956 46.1941C105.188 45.4647 105.181 44.6803 104.937 43.9549C104.693 43.2296 104.224 42.6009 103.598 42.1601H103.601Z" stroke="#020064" stroke-width="1.21" stroke-linecap="round" stroke-linejoin="round"/>
</svg>
