<svg width="24" height="24" viewBox="0 0 24 24" fill="none" xmlns="http://www.w3.org/2000/svg">
<path d="M15.619 8.57203C15.385 9.04651 15.2795 9.57404 15.3131 10.102C15.3466 10.63 15.5179 11.1399 15.81 11.581L15.848 11.637C16.5645 12.4785 17.2345 13.3585 17.855 14.273C17.9628 14.6562 17.9169 15.0663 17.727 15.4161C17.537 15.7659 17.2181 16.0278 16.838 16.146C16.65 16.198 16.4535 16.2119 16.26 16.1868C16.0665 16.1618 15.8801 16.0983 15.7115 16.0001C15.5429 15.9018 15.3957 15.7709 15.2785 15.615C15.1613 15.459 15.0765 15.2812 15.029 15.092C14.783 14.182 15.348 14.098 14.463 13.076C14.001 12.542 13.057 13.55 12.75 14.587C12.5114 15.257 12.3588 15.9546 12.296 16.663C12.4274 16.8626 12.5167 17.087 12.5582 17.3224C12.5998 17.5578 12.5927 17.7991 12.5376 18.0317C12.4824 18.2642 12.3803 18.483 12.2374 18.6747C12.0946 18.8663 11.9141 19.0267 11.707 19.146C11.5145 19.251 11.3029 19.3159 11.0847 19.3369C10.8665 19.358 10.6463 19.3347 10.4373 19.2685C10.2284 19.2022 10.035 19.0944 9.86874 18.9516C9.7025 18.8087 9.56687 18.6337 9.47 18.437C9.36273 18.2299 9.29817 18.0034 9.28014 17.7709C9.2621 17.5384 9.29098 17.3046 9.36503 17.0834C9.43909 16.8623 9.55683 16.6583 9.71126 16.4835C9.86568 16.3087 10.0537 16.1668 10.264 16.066C10.87 14.3991 11.3782 12.6982 11.786 10.972C10.5 13.714 9.725 12.384 8.7 14.423C8.60831 14.605 8.48075 14.7666 8.325 14.898C8.17781 15.0226 8.00683 15.116 7.82245 15.1725C7.63806 15.229 7.44412 15.2474 7.25239 15.2266C7.06067 15.2059 6.87516 15.1464 6.70715 15.0517C6.53913 14.9571 6.3921 14.8292 6.275 14.676C6.03129 14.3624 5.91757 13.9669 5.95741 13.5717C5.99725 13.1765 6.18759 12.8118 6.489 12.553C6.66479 12.4059 6.87328 12.303 7.097 12.253C8.044 12.039 10.416 10.067 11.212 9.44003C8.906 10.73 8.243 10.276 8.243 10.276C8.16745 10.3747 8.07899 10.4629 7.98 10.538C7.84184 10.6412 7.68418 10.7153 7.51656 10.7558C7.34895 10.7964 7.17485 10.8025 7.00481 10.7738C6.83477 10.7451 6.67231 10.6822 6.52728 10.5889C6.38224 10.4956 6.25764 10.3739 6.161 10.231C5.95869 9.93906 5.87648 9.58045 5.9314 9.22951C5.98632 8.87857 6.17417 8.56222 6.456 8.34602C6.6861 8.17299 6.96823 8.08342 7.256 8.09203C8.256 8.12503 11.51 8.96502 13.007 6.05103C13.007 6.05103 13.488 5.17403 14.082 4.09403C14.676 3.01403 14.633 1.82903 13.982 1.45103L12.809 0.760025C12.4758 0.588779 12.1066 0.499451 11.732 0.499451C11.3574 0.499451 10.9882 0.588779 10.655 0.760025L2.577 5.47703C2.26098 5.68913 1.99899 5.97225 1.81198 6.30373C1.62497 6.63521 1.51812 7.00586 1.5 7.38603V16.61C1.51817 16.9901 1.62492 17.3606 1.81174 17.6921C1.99856 18.0235 2.26028 18.3067 2.576 18.519L10.659 23.239C10.992 23.4103 11.3611 23.4996 11.7355 23.4996C12.11 23.4996 12.479 23.4103 12.812 23.239L21.332 18.51C21.6592 18.3015 21.9344 18.021 22.1368 17.6901C22.3392 17.3591 22.4634 16.9863 22.5 16.6V7.37503C22.4639 6.98826 22.3399 6.61485 22.1375 6.28332C21.935 5.95178 21.6595 5.67087 21.332 5.46203C21.332 5.46203 20.732 5.11303 20 4.68303C18.381 3.73403 16.335 7.28103 15.619 8.57203Z" fill="#9FEAFF"/>
<path d="M11.611 11.32L11.725 11.206C11.756 11.087 11.779 11 11.786 10.972C11.726 11.1 11.669 11.209 11.611 11.32Z" fill="#00303E"/>
<path d="M6.276 14.676C6.03229 14.3624 5.91857 13.9669 5.95841 13.5717C5.99825 13.1765 6.18859 12.8118 6.49 12.553C6.66579 12.4059 6.87428 12.303 7.098 12.253C8.045 12.039 10.417 10.067 11.213 9.44003C8.907 10.73 8.244 10.276 8.244 10.276C8.1687 10.3747 8.0802 10.4625 7.981 10.537C7.84295 10.6404 7.68536 10.7147 7.51775 10.7554C7.35015 10.796 7.17603 10.8023 7.00596 10.7736C6.83588 10.745 6.67338 10.6822 6.52831 10.5889C6.38324 10.4956 6.25862 10.3739 6.162 10.231C5.95969 9.93906 5.87748 9.58045 5.9324 9.22951C5.98732 8.87857 6.17517 8.56222 6.457 8.34602C6.6871 8.17299 6.96923 8.08342 7.257 8.09203C8.257 8.12503 11.511 8.96502 13.008 6.05103C13.008 6.05103 13.489 5.17403 14.083 4.09403C14.677 3.01403 14.634 1.82903 13.983 1.45103L12.809 0.760025C12.4758 0.588779 12.1066 0.499451 11.732 0.499451C11.3574 0.499451 10.9882 0.588779 10.655 0.760025L2.577 5.47703C2.26098 5.68913 1.99899 5.97225 1.81198 6.30373C1.62497 6.63521 1.51812 7.00586 1.5 7.38603V16.61C1.51817 16.9901 1.62492 17.3606 1.81174 17.6921C1.99856 18.0235 2.26028 18.3067 2.576 18.519L3.735 19.196L7.741 15.19C7.47325 15.2548 7.19248 15.2407 6.93254 15.1495C6.67261 15.0583 6.4446 14.8939 6.276 14.676Z" fill="#DFF9FF"/>
<path d="M8.96698 13.964L9.74598 13.184C9.42892 13.3796 9.16211 13.6467 8.96698 13.964Z" fill="#00303E"/>
<path d="M15.619 8.57203C15.385 9.04651 15.2795 9.57404 15.3131 10.102C15.3466 10.63 15.5179 11.1399 15.81 11.581L15.848 11.637C16.5645 12.4785 17.2345 13.3585 17.855 14.273C17.9628 14.6562 17.9169 15.0663 17.727 15.4161C17.537 15.7659 17.2181 16.0278 16.838 16.146C16.65 16.198 16.4535 16.2119 16.26 16.1868C16.0665 16.1618 15.8801 16.0983 15.7115 16.0001C15.5429 15.9018 15.3957 15.7709 15.2785 15.615C15.1613 15.459 15.0765 15.2812 15.029 15.092C14.783 14.182 15.348 14.098 14.463 13.076C14.001 12.542 13.057 13.55 12.75 14.587C12.5114 15.257 12.3588 15.9546 12.296 16.663C12.4274 16.8626 12.5167 17.087 12.5582 17.3224C12.5998 17.5578 12.5927 17.7991 12.5376 18.0317C12.4824 18.2642 12.3803 18.483 12.2374 18.6747C12.0946 18.8663 11.9141 19.0267 11.707 19.146C11.5145 19.251 11.3029 19.3159 11.0847 19.3369C10.8665 19.358 10.6463 19.3347 10.4373 19.2685C10.2284 19.2022 10.035 19.0944 9.86874 18.9516C9.7025 18.8087 9.56687 18.6337 9.47 18.437C9.36273 18.2299 9.29817 18.0034 9.28014 17.7709C9.2621 17.5384 9.29098 17.3046 9.36503 17.0834C9.43909 16.8623 9.55683 16.6583 9.71126 16.4835C9.86568 16.3087 10.0537 16.1668 10.264 16.066C10.87 14.3991 11.3782 12.6982 11.786 10.972C10.5 13.714 9.725 12.384 8.7 14.423C8.60831 14.605 8.48075 14.7666 8.325 14.898C8.17781 15.0226 8.00683 15.116 7.82245 15.1725C7.63806 15.229 7.44412 15.2474 7.25239 15.2266C7.06067 15.2059 6.87516 15.1464 6.70715 15.0517C6.53913 14.9571 6.3921 14.8292 6.275 14.676C6.03129 14.3624 5.91757 13.9669 5.95741 13.5717C5.99725 13.1765 6.18759 12.8118 6.489 12.553C6.66479 12.4059 6.87328 12.303 7.097 12.253C8.044 12.039 10.416 10.067 11.212 9.44003C8.906 10.73 8.243 10.276 8.243 10.276C8.16745 10.3747 8.07899 10.4629 7.98 10.538C7.84184 10.6412 7.68418 10.7153 7.51656 10.7558C7.34895 10.7964 7.17485 10.8025 7.00481 10.7738C6.83477 10.7451 6.67231 10.6822 6.52728 10.5889C6.38224 10.4956 6.25764 10.3739 6.161 10.231C5.95869 9.93906 5.87648 9.58045 5.9314 9.22951C5.98632 8.87857 6.17417 8.56222 6.456 8.34602C6.6861 8.17299 6.96823 8.08342 7.256 8.09203C8.256 8.12503 11.51 8.96503 13.007 6.05103C13.007 6.05103 13.488 5.17403 14.082 4.09403C14.676 3.01403 14.633 1.82903 13.982 1.45103L12.809 0.760025C12.4758 0.588779 12.1066 0.499451 11.732 0.499451C11.3574 0.499451 10.9882 0.588779 10.655 0.760025L2.577 5.47703C2.26098 5.68913 1.99899 5.97225 1.81198 6.30373C1.62497 6.63521 1.51812 7.00586 1.5 7.38603V16.61C1.51817 16.9901 1.62492 17.3606 1.81174 17.6921C1.99856 18.0235 2.26028 18.3067 2.576 18.519L10.659 23.239C10.992 23.4103 11.3611 23.4996 11.7355 23.4996C12.11 23.4996 12.479 23.4103 12.812 23.239L21.332 18.51C21.6592 18.3015 21.9344 18.021 22.1368 17.6901C22.3392 17.3591 22.4634 16.9863 22.5 16.6V7.37503C22.4639 6.98826 22.3399 6.61485 22.1375 6.28332C21.935 5.95178 21.6595 5.67087 21.332 5.46203C21.332 5.46203 20.732 5.11303 20 4.68303C18.381 3.73403 16.335 7.28103 15.619 8.57203Z" stroke="#00303E" stroke-linecap="round" stroke-linejoin="round"/>
</svg>
