<svg width="18" height="18" viewBox="0 0 18 18" fill="none" xmlns="http://www.w3.org/2000/svg">
<g clip-path="url(#clip0_201_5690)">
<path d="M15.1905 10.125H16.875C17.0739 10.125 17.2647 10.046 17.4053 9.90533C17.546 9.76468 17.625 9.57391 17.625 9.375V8.625C17.625 8.42609 17.546 8.23532 17.4053 8.09467C17.2647 7.95402 17.0739 7.875 16.875 7.875H15.1898C15.0368 7.1148 14.7847 6.37799 14.4398 5.6835L15.6315 4.4925C15.7721 4.35185 15.8511 4.16112 15.8511 3.96225C15.8511 3.76338 15.7721 3.57265 15.6315 3.432L14.568 2.3715C14.4274 2.2309 14.2366 2.15191 14.0377 2.15191C13.8389 2.15191 13.6481 2.2309 13.5075 2.3715L12.315 3.56325C11.6211 3.2182 10.8848 2.96603 10.125 2.81325V1.125C10.125 0.926088 10.046 0.735322 9.90533 0.59467C9.76468 0.454018 9.57391 0.375 9.375 0.375H8.625C8.42609 0.375 8.23532 0.454018 8.09467 0.59467C7.95402 0.735322 7.875 0.926088 7.875 1.125V2.81175C7.115 2.96453 6.37842 3.2167 5.68425 3.56175L4.49175 2.3715C4.3511 2.2309 4.16037 2.15191 3.9615 2.15191C3.76263 2.15191 3.5719 2.2309 3.43125 2.3715L2.37 3.43275C2.2294 3.5734 2.15041 3.76413 2.15041 3.963C2.15041 4.16187 2.2294 4.3526 2.37 4.49325L3.5625 5.685C3.2178 6.37932 2.96565 7.11585 2.8125 7.87575H1.125C0.926088 7.87575 0.735322 7.95477 0.59467 8.09542C0.454018 8.23607 0.375 8.42684 0.375 8.62575V9.37575C0.375 9.57466 0.454018 9.76543 0.59467 9.90608C0.735322 10.0467 0.926088 10.1258 1.125 10.1258H2.8095C2.96265 10.8856 3.2148 11.6222 3.5595 12.3165L2.367 13.509C2.2264 13.6496 2.14741 13.8404 2.14741 14.0392C2.14741 14.2381 2.2264 14.4289 2.367 14.5695L3.43125 15.63C3.5719 15.7706 3.76263 15.8496 3.9615 15.8496C4.16037 15.8496 4.3511 15.7706 4.49175 15.63L5.6835 14.4375C6.37799 14.7824 7.1148 15.0346 7.875 15.1875V16.875C7.875 17.0739 7.95402 17.2647 8.09467 17.4053C8.23532 17.546 8.42609 17.625 8.625 17.625H9.375C9.57391 17.625 9.76468 17.546 9.90533 17.4053C10.046 17.2647 10.125 17.0739 10.125 16.875V15.1912C10.8847 15.0382 11.621 14.7861 12.315 14.4412L13.5082 15.633C13.6489 15.7736 13.8396 15.8526 14.0385 15.8526C14.2374 15.8526 14.4281 15.7736 14.5687 15.633L15.6293 14.5725C15.7699 14.4319 15.8488 14.2411 15.8488 14.0422C15.8488 13.8434 15.7699 13.6526 15.6293 13.512L14.4375 12.3195C14.7835 11.6241 15.0367 10.8863 15.1905 10.125V10.125Z" stroke="white" stroke-width="0.75" stroke-linecap="round" stroke-linejoin="round"/>
<path d="M5.625 9.00098C5.625 9.89608 5.98058 10.7545 6.61351 11.3875C7.24645 12.0204 8.10489 12.376 9 12.376C9.89511 12.376 10.7535 12.0204 11.3865 11.3875C12.0194 10.7545 12.375 9.89608 12.375 9.00098C12.375 8.10587 12.0194 7.24743 11.3865 6.61449C10.7535 5.98156 9.89511 5.62598 9 5.62598C8.10489 5.62598 7.24645 5.98156 6.61351 6.61449C5.98058 7.24743 5.625 8.10587 5.625 9.00098V9.00098Z" stroke="white" stroke-width="0.75" stroke-linecap="round" stroke-linejoin="round"/>
</g>
<defs>
<clipPath id="clip0_201_5690">
<rect width="18" height="18" fill="white"/>
</clipPath>
</defs>
</svg>
