<svg width="18" height="18" viewBox="0 0 18 18" fill="none" xmlns="http://www.w3.org/2000/svg">
<g clip-path="url(#clip0_201_7202)">
<path d="M6.05556 7.65878C5.75358 7.05404 5.25623 6.569 4.64411 6.28229C4.03199 5.99557 3.34098 5.92397 2.68308 6.0791C2.02518 6.23423 1.43895 6.60699 1.0194 7.13697C0.599855 7.66695 0.371582 8.32308 0.371582 8.99903C0.371582 9.67497 0.599855 10.3311 1.0194 10.8611C1.43895 11.3911 2.02518 11.7638 2.68308 11.919C3.34098 12.0741 4.03199 12.0025 4.64411 11.7158C5.25623 11.429 5.75358 10.944 6.05556 10.3393" stroke="#403F61" stroke-width="0.75" stroke-linecap="round" stroke-linejoin="round"/>
<path d="M14.625 6.37486C15.2798 6.37646 15.9172 6.16433 16.4405 5.77068C16.9637 5.37703 17.3442 4.82337 17.5241 4.19379C17.704 3.56421 17.6736 2.89311 17.4374 2.28242C17.2012 1.67172 16.7721 1.1548 16.2153 0.810164C15.6586 0.465525 15.0046 0.312 14.3526 0.372905C13.7007 0.43381 13.0864 0.705818 12.6032 1.14762C12.1199 1.58941 11.794 2.17686 11.675 2.82074C11.556 3.46462 11.6503 4.12975 11.9438 4.71511" stroke="#403F61" stroke-width="0.75" stroke-linecap="round" stroke-linejoin="round"/>
<path d="M11.9437 13.284C11.6519 13.8679 11.5586 14.5311 11.6778 15.1729C11.797 15.8147 12.1223 16.4001 12.6043 16.8403C13.0864 17.2805 13.6988 17.5514 14.3488 17.612C14.9987 17.6727 15.6507 17.5196 16.2058 17.1761C16.7609 16.8327 17.1889 16.3175 17.4247 15.7088C17.6605 15.1001 17.6914 14.4311 17.5126 13.8033C17.3338 13.1755 16.9551 12.6231 16.434 12.23C15.9129 11.8369 15.2777 11.6245 14.625 11.625" stroke="#403F61" stroke-width="0.75" stroke-linecap="round" stroke-linejoin="round"/>
<path d="M14.625 6.37508C14.0681 6.37458 13.5223 6.21905 13.0488 5.92591C12.5752 5.63277 12.1926 5.2136 11.9438 4.71533L6.05554 7.65908C6.26561 8.07475 6.37506 8.53397 6.37506 8.99971C6.37506 9.46544 6.26561 9.92466 6.05554 10.3403L11.9438 13.2848C12.1926 12.7866 12.5752 12.3674 13.0488 12.0743C13.5223 11.7811 14.0681 11.6256 14.625 11.6251" stroke="#403F61" stroke-width="0.75" stroke-linecap="round" stroke-linejoin="round"/>
</g>
<defs>
<clipPath id="clip0_201_7202">
<rect width="18" height="18" fill="white"/>
</clipPath>
</defs>
</svg>
