<svg width="68" height="23" viewBox="0 0 68 23" fill="none" xmlns="http://www.w3.org/2000/svg">
<g clip-path="url(#clip0_201_6611)">
<path d="M18.625 11L1.375 11" stroke="#403F61" stroke-width="0.75" stroke-linecap="round" stroke-linejoin="round"/>
<path d="M6.4375 15.875L1.375 11L6.4375 6.125" stroke="#403F61" stroke-width="0.75" stroke-linecap="round" stroke-linejoin="round"/>
</g>
<path d="M27.9253 16.016C27.9253 15.76 27.9466 15.488 27.9893 15.2C28.0426 14.9013 28.1173 14.5867 28.2133 14.256C28.32 13.9147 28.448 13.5573 28.5973 13.184L29.7493 13.632C29.6426 13.9307 29.5466 14.2133 29.4613 14.48C29.3866 14.7467 29.328 14.9973 29.2853 15.232C29.2533 15.4667 29.2373 15.6907 29.2373 15.904C29.2373 16.352 29.3333 16.7307 29.5253 17.04C29.728 17.36 30.0053 17.6213 30.3573 17.824C30.7093 18.0267 31.1093 18.176 31.5573 18.272C32.016 18.368 32.5013 18.416 33.0133 18.416C33.632 18.416 34.208 18.3627 34.7413 18.256C35.2853 18.1493 35.76 17.9947 36.1653 17.792C36.5813 17.6 36.9066 17.376 37.1413 17.12C37.376 16.8747 37.4933 16.608 37.4933 16.32C37.4933 16.1813 37.44 16.0533 37.3333 15.936C37.2266 15.8187 37.0666 15.7067 36.8533 15.6C36.64 15.4933 36.384 15.392 36.0853 15.296C35.7866 15.1893 35.4453 15.0827 35.0613 14.976L35.3653 13.648C35.92 13.8613 36.4106 14.0427 36.8373 14.192C37.264 14.3307 37.6373 14.4427 37.9573 14.528C38.2773 14.6133 38.5546 14.6773 38.7893 14.72C39.024 14.752 39.2213 14.768 39.3813 14.768C39.6053 14.768 39.7653 14.832 39.8613 14.96C39.968 15.0773 40.0213 15.2213 40.0213 15.392C40.0213 15.5627 39.9466 15.7227 39.7973 15.872C39.648 16.0107 39.456 16.08 39.2213 16.08C39.1573 16.08 39.0933 16.08 39.0293 16.08C38.9653 16.08 38.896 16.08 38.8213 16.08C38.7573 16.08 38.6933 16.08 38.6293 16.08C38.6506 16.176 38.6666 16.2507 38.6773 16.304C38.688 16.368 38.6933 16.448 38.6933 16.544C38.6933 16.9387 38.5546 17.3227 38.2773 17.696C38.0106 18.0693 37.616 18.4053 37.0933 18.704C36.5706 19.0133 35.936 19.2587 35.1893 19.44C34.4533 19.6213 33.6106 19.712 32.6613 19.712C31.8186 19.712 31.0346 19.5733 30.3093 19.296C29.5946 19.0293 29.0186 18.624 28.5813 18.08C28.144 17.536 27.9253 16.848 27.9253 16.016ZM33.8133 22.736C33.5893 22.736 33.3973 22.656 33.2373 22.496C33.088 22.3467 33.0133 22.1653 33.0133 21.952C33.0133 21.7387 33.088 21.552 33.2373 21.392C33.3973 21.232 33.5893 21.152 33.8133 21.152C34.0266 21.152 34.208 21.232 34.3573 21.392C34.5173 21.552 34.5973 21.7387 34.5973 21.952C34.5973 22.1653 34.5173 22.3467 34.3573 22.496C34.208 22.656 34.0266 22.736 33.8133 22.736ZM31.6213 22.736C31.3973 22.736 31.2053 22.656 31.0453 22.496C30.896 22.3467 30.8213 22.1653 30.8213 21.952C30.8213 21.7387 30.896 21.552 31.0453 21.392C31.2053 21.232 31.3973 21.152 31.6213 21.152C31.8346 21.152 32.016 21.232 32.1653 21.392C32.3253 21.552 32.4053 21.7387 32.4053 21.952C32.4053 22.1653 32.3253 22.3467 32.1653 22.496C32.016 22.656 31.8346 22.736 31.6213 22.736ZM50.5866 16.08C50.3092 16.08 49.9572 16.0533 49.5306 16C49.1146 15.936 48.6879 15.8293 48.2506 15.68C47.8239 15.5307 47.4612 15.3227 47.1626 15.056L48.4746 14.4C48.8479 14.5493 49.2319 14.6507 49.6266 14.704C50.0319 14.7467 50.4052 14.768 50.7466 14.768C50.9706 14.768 51.1306 14.832 51.2266 14.96C51.3332 15.0773 51.3866 15.2213 51.3866 15.392C51.3866 15.5627 51.3119 15.7227 51.1626 15.872C51.0132 16.0107 50.8212 16.08 50.5866 16.08ZM39.2266 16.08L39.3866 14.768H42.7306C43.6586 14.768 44.4586 14.7307 45.1306 14.656C45.8132 14.5707 46.3732 14.448 46.8106 14.288C47.2479 14.128 47.5732 13.9253 47.7866 13.68C47.9999 13.424 48.1066 13.1253 48.1066 12.784C48.1066 12.6027 48.0479 12.4053 47.9306 12.192C47.8132 11.9787 47.6319 11.7973 47.3866 11.648C47.1412 11.488 46.8159 11.408 46.4106 11.408C45.8986 11.408 45.3866 11.5413 44.8746 11.808C44.3732 12.0747 43.8932 12.4107 43.4346 12.816C42.9866 13.2107 42.5866 13.616 42.2346 14.032C41.8826 14.448 41.5999 14.8107 41.3866 15.12L39.9946 15.072C40.3359 14.5173 40.7412 13.952 41.2106 13.376C41.6906 12.7893 42.2132 12.2507 42.7786 11.76C43.3546 11.2587 43.9572 10.8587 44.5866 10.56C45.2159 10.2507 45.8559 10.096 46.5066 10.096C47.0932 10.096 47.5946 10.2187 48.0106 10.464C48.4372 10.6987 48.7626 11.0187 48.9866 11.424C49.2212 11.8293 49.3386 12.288 49.3386 12.8C49.3386 13.3013 49.1572 13.808 48.7946 14.32C48.4319 14.8213 47.8079 15.216 46.9226 15.504C46.4746 15.6533 45.9626 15.7707 45.3866 15.856C44.8106 15.9413 44.1546 16 43.4186 16.032C42.6826 16.064 41.8452 16.08 40.9066 16.08H39.2266ZM40.7466 14.496L40.4266 4.576H41.7226L42.0426 13.376L40.7466 14.496ZM60.7779 16.08C60.3299 16.08 59.9193 16.0533 59.5459 16C59.1726 15.936 58.8366 15.824 58.5379 15.664C58.2393 15.504 57.9886 15.2747 57.7859 14.976C57.5833 14.6667 57.4286 14.2613 57.3219 13.76L58.2659 13.2C58.4046 13.6267 58.5753 13.952 58.7779 14.176C58.9806 14.4 59.2526 14.5547 59.5939 14.64C59.9459 14.7253 60.3939 14.768 60.9379 14.768C61.1619 14.768 61.3219 14.832 61.4179 14.96C61.5246 15.0773 61.5779 15.2213 61.5779 15.392C61.5779 15.5627 61.5033 15.7227 61.3539 15.872C61.2046 16.0107 61.0126 16.08 60.7779 16.08ZM50.5859 16.08L50.7299 14.768C51.2846 14.768 51.8286 14.7253 52.3619 14.64C52.8953 14.5547 53.4179 14.432 53.9299 14.272C54.4419 14.112 54.9326 13.92 55.4019 13.696C55.8819 13.4613 56.3353 13.1947 56.7619 12.896C56.4846 12.6507 56.1646 12.4373 55.8019 12.256C55.4393 12.0747 55.0393 11.936 54.6019 11.84C54.1753 11.7333 53.7219 11.68 53.2419 11.68C53.0713 11.68 52.9113 11.6853 52.7619 11.696C52.6126 11.7067 52.4633 11.728 52.3139 11.76C52.1646 11.7813 51.9939 11.8133 51.8019 11.856L51.5459 10.64C51.8339 10.5547 52.1219 10.4907 52.4099 10.448C52.6979 10.3947 52.9753 10.368 53.2419 10.368C53.7966 10.368 54.2979 10.4373 54.7459 10.576C55.1939 10.704 55.5993 10.864 55.9619 11.056C56.3353 11.248 56.6819 11.44 57.0019 11.632C57.3326 11.824 57.6526 11.9893 57.9619 12.128C58.2713 12.256 58.5913 12.32 58.9219 12.32H59.2579L59.3699 13.472C58.9113 13.472 58.4899 13.536 58.1059 13.664C57.7219 13.792 57.3433 13.9573 56.9699 14.16C56.6073 14.352 56.2233 14.56 55.8179 14.784C55.4126 14.9973 54.9646 15.2053 54.4739 15.408C53.9833 15.6 53.4179 15.76 52.7779 15.888C52.1486 16.016 51.4179 16.08 50.5859 16.08ZM53.0979 8.72C52.8739 8.72 52.6819 8.64533 52.5219 8.496C52.3726 8.336 52.2979 8.14933 52.2979 7.936C52.2979 7.72267 52.3726 7.536 52.5219 7.376C52.6819 7.216 52.8739 7.136 53.0979 7.136C53.3113 7.136 53.4926 7.216 53.6419 7.376C53.8019 7.536 53.8819 7.72267 53.8819 7.936C53.8819 8.14933 53.8019 8.336 53.6419 8.496C53.4926 8.64533 53.3113 8.72 53.0979 8.72ZM60.7734 16.08L60.9334 14.768C61.5628 14.768 62.0534 14.7467 62.4054 14.704C62.7574 14.6507 63.0081 14.528 63.1574 14.336C63.3068 14.1333 63.3814 13.8187 63.3814 13.392C63.3814 13.1253 63.3388 12.8107 63.2534 12.448C63.1681 12.0747 63.0561 11.68 62.9174 11.264C62.7788 10.848 62.6294 10.4373 62.4694 10.032L63.7654 9.552C63.9041 9.89333 64.0321 10.2827 64.1494 10.72C64.2774 11.1573 64.3841 11.5893 64.4694 12.016C64.5548 12.4427 64.5974 12.816 64.5974 13.136C64.5974 13.6693 64.5228 14.1227 64.3734 14.496C64.2348 14.8693 64.0108 15.1733 63.7014 15.408C63.3921 15.6427 62.9921 15.8133 62.5014 15.92C62.0214 16.0267 61.4454 16.08 60.7734 16.08ZM64.2614 7.888C64.0374 7.888 63.8454 7.81333 63.6854 7.664C63.5361 7.504 63.4614 7.31733 63.4614 7.104C63.4614 6.89067 63.5361 6.704 63.6854 6.544C63.8454 6.384 64.0374 6.304 64.2614 6.304C64.4748 6.304 64.6561 6.384 64.8054 6.544C64.9654 6.704 65.0454 6.89067 65.0454 7.104C65.0454 7.31733 64.9654 7.504 64.8054 7.664C64.6561 7.81333 64.4748 7.888 64.2614 7.888ZM62.0694 7.888C61.8454 7.888 61.6534 7.81333 61.4934 7.664C61.3441 7.504 61.2694 7.31733 61.2694 7.104C61.2694 6.89067 61.3441 6.704 61.4934 6.544C61.6534 6.384 61.8454 6.304 62.0694 6.304C62.2828 6.304 62.4641 6.384 62.6134 6.544C62.7734 6.704 62.8534 6.89067 62.8534 7.104C62.8534 7.31733 62.7734 7.504 62.6134 7.664C62.4641 7.81333 62.2828 7.888 62.0694 7.888Z" fill="#403F61"/>
<defs>
<clipPath id="clip0_201_6611">
<rect width="18" height="18" fill="white" transform="translate(18 20) rotate(-180)"/>
</clipPath>
</defs>
</svg>
