<svg width="57" height="22" viewBox="0 0 57 22" fill="none" xmlns="http://www.w3.org/2000/svg">
<g clip-path="url(#clip0_127_1304)">
<path d="M38.375 11H55.625" stroke="#403F61" stroke-width="0.75" stroke-linecap="round" stroke-linejoin="round"/>
<path d="M50.5625 6.125L55.625 11L50.5625 15.875" stroke="#403F61" stroke-width="0.75" stroke-linecap="round" stroke-linejoin="round"/>
</g>
<path d="M5.88263 16.128C5.37063 16.128 4.87463 16.0853 4.39463 16C3.91463 15.9147 3.46663 15.7867 3.05063 15.616C2.64529 15.4347 2.27729 15.216 1.94662 14.96C1.83996 14.8853 1.76529 14.8 1.72263 14.704C1.69063 14.5973 1.68529 14.5013 1.70663 14.416C1.73863 14.32 1.78663 14.24 1.85063 14.176C1.92529 14.112 2.01063 14.08 2.10663 14.08C2.20263 14.0693 2.30396 14.1013 2.41063 14.176C2.90129 14.5387 3.41863 14.8053 3.96263 14.976C4.51729 15.1467 5.15729 15.232 5.88263 15.232C6.89596 15.232 7.65329 15.0347 8.15463 14.64C8.66663 14.2453 8.92263 13.728 8.92263 13.088C8.92263 12.5547 8.73596 12.1387 8.36263 11.84C7.99996 11.5413 7.39729 11.3067 6.55463 11.136L4.93863 10.8C3.92529 10.5973 3.17329 10.256 2.68263 9.776C2.19196 9.296 1.94662 8.656 1.94662 7.856C1.94662 7.36533 2.04263 6.92267 2.23463 6.528C2.42663 6.12267 2.69863 5.776 3.05063 5.488C3.40263 5.2 3.81863 4.98133 4.29863 4.832C4.78929 4.672 5.32796 4.592 5.91463 4.592C6.60796 4.592 7.24263 4.688 7.81863 4.88C8.40529 5.072 8.93863 5.376 9.41863 5.792C9.51463 5.86667 9.57863 5.95733 9.61063 6.064C9.64263 6.16 9.64263 6.256 9.61063 6.352C9.57863 6.43733 9.53063 6.50667 9.46663 6.56C9.40263 6.61333 9.32263 6.64533 9.22663 6.656C9.13063 6.656 9.02929 6.61333 8.92263 6.528C8.47463 6.16533 8.00529 5.904 7.51463 5.744C7.03463 5.57333 6.50129 5.488 5.91463 5.488C5.31729 5.488 4.79463 5.584 4.34663 5.776C3.90929 5.968 3.56796 6.24 3.32263 6.592C3.07729 6.944 2.95463 7.36 2.95463 7.84C2.95463 8.39467 3.12529 8.83733 3.46663 9.168C3.80796 9.49867 4.35729 9.73867 5.11462 9.888L6.74663 10.224C7.82396 10.448 8.62396 10.784 9.14663 11.232C9.66929 11.6693 9.93062 12.272 9.93062 13.04C9.93062 13.4987 9.83463 13.92 9.64263 14.304C9.46129 14.6773 9.19463 15.0027 8.84263 15.28C8.49063 15.5573 8.06396 15.7707 7.56263 15.92C7.07196 16.0587 6.51196 16.128 5.88263 16.128ZM12.3854 16.096C12.2254 16.096 12.1027 16.0533 12.0174 15.968C11.932 15.8827 11.8894 15.76 11.8894 15.6V5.12C11.8894 4.94933 11.932 4.82667 12.0174 4.752C12.1027 4.66667 12.2254 4.624 12.3854 4.624C12.5347 4.624 12.652 4.66667 12.7374 4.752C12.8227 4.82667 12.8654 4.94933 12.8654 5.12V11.76H12.8974L16.4814 8.48C16.5987 8.37333 16.7 8.288 16.7854 8.224C16.8814 8.16 17.004 8.128 17.1534 8.128C17.2814 8.128 17.3827 8.16533 17.4574 8.24C17.532 8.31467 17.564 8.40533 17.5534 8.512C17.5534 8.608 17.5 8.71467 17.3934 8.832L13.5854 12.304V11.68L17.7294 15.36C17.8574 15.4773 17.9214 15.5947 17.9214 15.712C17.932 15.8187 17.9 15.9093 17.8254 15.984C17.7507 16.0587 17.6494 16.096 17.5214 16.096C17.3827 16.096 17.2654 16.064 17.1694 16C17.0734 15.9467 16.956 15.856 16.8174 15.728L12.8974 12.272H12.8654V15.6C12.8654 15.9307 12.7054 16.096 12.3854 16.096ZM20.1354 16.064C19.9754 16.064 19.8527 16.016 19.7674 15.92C19.682 15.824 19.6394 15.696 19.6394 15.536V8.688C19.6394 8.51733 19.682 8.38933 19.7674 8.304C19.8527 8.21867 19.9754 8.176 20.1354 8.176C20.2847 8.176 20.402 8.21867 20.4874 8.304C20.5727 8.38933 20.6154 8.51733 20.6154 8.688V15.536C20.6154 15.696 20.5727 15.824 20.4874 15.92C20.4127 16.016 20.2954 16.064 20.1354 16.064ZM20.1354 6.24C19.9114 6.24 19.7354 6.18133 19.6074 6.064C19.49 5.94667 19.4314 5.78133 19.4314 5.568C19.4314 5.35467 19.49 5.19467 19.6074 5.088C19.7354 4.97067 19.9114 4.912 20.1354 4.912C20.3594 4.912 20.53 4.97067 20.6474 5.088C20.7754 5.19467 20.8394 5.35467 20.8394 5.568C20.8394 5.78133 20.7754 5.94667 20.6474 6.064C20.53 6.18133 20.3594 6.24 20.1354 6.24ZM23.6823 18.976C23.5223 18.976 23.3996 18.9333 23.3143 18.848C23.2289 18.7627 23.1863 18.64 23.1863 18.48V8.64C23.1863 8.46933 23.2289 8.34133 23.3143 8.256C23.3996 8.17067 23.5223 8.128 23.6823 8.128C23.8316 8.128 23.9489 8.17067 24.0343 8.256C24.1196 8.34133 24.1623 8.46933 24.1623 8.64V10.272L23.9863 10.176C24.1676 9.536 24.5143 9.02933 25.0263 8.656C25.5383 8.28267 26.1569 8.096 26.8823 8.096C27.5756 8.096 28.1783 8.26133 28.6903 8.592C29.2129 8.92267 29.6129 9.38667 29.8903 9.984C30.1783 10.5813 30.3223 11.2907 30.3223 12.112C30.3223 12.9333 30.1783 13.648 29.8903 14.256C29.6129 14.8533 29.2183 15.3173 28.7063 15.648C28.1943 15.968 27.5863 16.128 26.8823 16.128C26.1569 16.128 25.5383 15.9413 25.0263 15.568C24.5143 15.1947 24.1676 14.6987 23.9863 14.08H24.1623V18.48C24.1623 18.64 24.1196 18.7627 24.0343 18.848C23.9489 18.9333 23.8316 18.976 23.6823 18.976ZM26.7383 15.312C27.2609 15.312 27.7143 15.1893 28.0983 14.944C28.4929 14.688 28.7969 14.32 29.0103 13.84C29.2236 13.36 29.3303 12.784 29.3303 12.112C29.3303 11.0987 29.0956 10.3147 28.6263 9.76C28.1569 9.20533 27.5276 8.928 26.7383 8.928C26.2156 8.928 25.7569 9.056 25.3623 9.312C24.9783 9.55733 24.6796 9.92 24.4663 10.4C24.2529 10.8693 24.1463 11.44 24.1463 12.112C24.1463 13.136 24.3809 13.9253 24.8503 14.48C25.3196 15.0347 25.9489 15.312 26.7383 15.312Z" fill="#403F61"/>
<defs>
<clipPath id="clip0_127_1304">
<rect width="18" height="18" fill="white" transform="translate(39 2)"/>
</clipPath>
</defs>
</svg>
