<svg width="15" height="18" viewBox="0 0 15 18" fill="none" xmlns="http://www.w3.org/2000/svg">
<g clip-path="url(#clip0_201_5698)">
<path d="M8.51233 4.44909L8.52042 4.44458L8.53301 4.45721L8.51233 4.44909ZM7.44052 1.29491L7.44502 1.33733L7.43693 1.33733L7.44142 1.29491L7.44052 1.29491ZM6.35613 4.45811L6.36872 4.44548L6.37681 4.44999L6.35613 4.45811ZM11.003 4.50414C11.003 4.50414 10.6793 4.04478 10.3898 3.82096C10.3898 3.82096 10.5453 3.78306 10.5876 3.83811C10.4365 3.66483 10.352 3.57278 9.84399 3.38236C9.84399 3.38236 10.0958 3.2894 10.201 3.2894C10.201 3.2894 9.41509 3.00692 9.03744 3.03219C9.03744 3.03219 9.11746 2.91397 9.16782 2.89321C9.16782 2.89321 8.84861 2.79664 8.60494 2.80928C8.58786 2.80116 8.57527 2.79664 8.56268 2.79213C8.56268 2.79213 9.25144 2.72896 9.56705 2.82552C9.56705 2.82552 9.5086 2.73257 9.44925 2.69015C9.44925 2.69015 9.85298 2.69466 10.1722 2.85079C10.1722 2.85079 10.1299 2.73708 10.0841 2.71993C10.0841 2.71993 10.1848 2.69466 10.8654 2.98526C10.8654 2.98526 10.8825 2.93924 10.8322 2.90494C10.8322 2.90494 10.9832 2.82913 11.5587 2.9979C11.5587 2.9979 11.5209 2.84177 11.0417 2.57644C11.0417 2.57644 11.1298 2.50063 11.2647 2.50514C11.2647 2.50514 10.6937 2.25606 10.3107 2.22267C10.3107 2.22267 10.4455 2.10895 10.5121 2.12971C10.2765 2.06202 10.1632 2.01149 9.6129 2.11256C9.6129 2.11256 9.7217 1.92665 9.81432 1.8725C9.81432 1.8725 9.11656 1.94831 8.72992 2.20101C8.72992 2.20101 8.73442 2.06563 8.7596 2.01509C8.7596 2.01509 8.41522 2.1243 8.17964 2.26418C8.28034 2.18386 8.42781 2.08729 8.58696 2.04488C8.58696 2.04488 8.49884 2.02773 8.39813 2.03675C8.39813 2.03675 8.93134 1.75879 9.20019 1.70374C9.20019 1.70374 9.09499 1.6532 9.02755 1.64056C9.02755 1.64056 9.35125 1.53949 9.67854 1.51783C9.67854 1.51783 9.6111 1.44653 9.57783 1.43751C9.57783 1.43751 9.58593 1.42487 10.2963 1.39148C10.2963 1.39148 10.263 1.34545 10.2207 1.32831C10.2207 1.32831 10.3044 1.25701 10.8717 1.17218C10.8717 1.17218 10.8088 1.02868 10.2621 1.01605C10.2621 1.01605 10.2954 0.91497 10.4132 0.872553C10.4132 0.872553 9.87096 0.868041 9.52209 0.981753C9.52209 0.981753 9.57244 0.838259 9.63988 0.825624C9.40879 0.863528 9.36294 0.846381 8.92145 1.12074C8.92145 1.12074 8.92954 0.960094 8.98888 0.888798C8.98888 0.888798 8.47636 1.15413 8.28304 1.50429C8.28304 1.50429 8.2156 1.38606 8.2201 1.34004C8.2201 1.34004 7.97643 1.53407 7.8928 1.71998C7.85953 1.7245 7.80469 1.73713 7.75433 1.7624C7.75433 1.7624 8.05645 1.32831 8.25427 1.19293C8.25427 1.19293 8.17065 1.15052 8.1113 1.16315C8.1113 1.16315 8.34239 0.977241 8.59055 0.830136C8.59055 0.830136 8.50244 0.804867 8.46467 0.825624C8.46467 0.825624 8.50693 0.729058 9.0743 0.479973C9.0743 0.479973 9.01586 0.462826 8.96551 0.475461C8.96551 0.475461 9.02845 0.327454 9.46095 0.0747589C9.46095 0.0747589 9.32247 0.00346281 8.85581 0.183959C8.85581 0.183959 8.85581 0.0747588 8.93583 -0.00195215C8.93583 -0.00195215 8.47816 0.187569 8.23449 0.403262C8.23449 0.403262 8.20931 0.289549 8.25966 0.255255C8.08702 0.360845 8.03667 0.386115 7.7849 0.782304C7.7849 0.782304 7.71747 0.609028 7.73905 0.525097C7.73905 0.525097 7.4657 0.896017 7.45311 1.2543C7.44502 0.896017 7.17168 0.525097 7.17168 0.525097C7.18876 0.609028 7.12582 0.782304 7.12582 0.782304C6.87405 0.386115 6.8273 0.364455 6.65106 0.255255C6.70141 0.285037 6.67624 0.403262 6.67624 0.403262C6.43706 0.188471 5.97489 -0.00195267 5.97489 -0.00195267C6.05491 0.0738558 6.05042 0.183959 6.05042 0.183959C5.58375 0.00255967 5.44528 0.0747582 5.44528 0.0747582C5.87778 0.331966 5.94072 0.47546 5.94072 0.47546C5.89037 0.462826 5.83192 0.479973 5.83192 0.479973C6.39929 0.729058 6.44155 0.825623 6.44155 0.825623C6.40379 0.804866 6.31567 0.830136 6.31567 0.830136C6.56384 0.978143 6.79493 1.16315 6.79493 1.16315C6.73648 1.15052 6.65196 1.19293 6.65196 1.19293C6.85337 1.32379 7.15639 1.7624 7.15639 1.7624C7.10604 1.73713 7.04759 1.7245 7.01792 1.71998C6.9298 1.53407 6.68613 1.34004 6.68613 1.34004C6.69422 1.38606 6.62319 1.50429 6.62319 1.50429C6.42987 1.15413 5.91734 0.888797 5.91734 0.888797C5.97219 0.960093 5.98478 1.12073 5.98478 1.12073C5.54779 0.84638 5.49743 0.863527 5.26635 0.825623C5.33379 0.833745 5.38414 0.981753 5.38414 0.981753C5.03526 0.86804 4.49307 0.872552 4.49307 0.872552C4.61086 0.914969 4.64413 1.01605 4.64413 1.01605C4.09834 1.02417 4.03449 1.17218 4.03449 1.17218C4.60187 1.26062 4.68549 1.32831 4.68549 1.32831C4.64323 1.34545 4.60996 1.39148 4.60996 1.39148C5.3203 1.42487 5.32839 1.43751 5.32839 1.43751C5.29512 1.44563 5.22768 1.51783 5.22768 1.51783C5.55498 1.53858 5.87868 1.64056 5.87868 1.64056C5.81124 1.6532 5.70604 1.70374 5.70604 1.70374C5.97489 1.75879 6.50809 2.03675 6.50809 2.03675C6.40739 2.02863 6.31927 2.04488 6.31927 2.04488C6.48292 2.08729 6.62588 2.18025 6.73108 2.26418C6.4955 2.1252 6.14663 2.01509 6.14663 2.01509C6.17181 2.06112 6.1763 2.20101 6.1763 2.20101C5.78966 1.94831 5.09191 1.8725 5.09191 1.8725C5.18003 1.92755 5.29332 2.11256 5.29332 2.11256C4.74304 2.01148 4.62974 2.06202 4.39416 2.12971C4.4616 2.10895 4.59557 2.22267 4.59557 2.22267C4.20893 2.26057 3.64156 2.50514 3.64156 2.50514C3.77194 2.50063 3.86455 2.57644 3.86455 2.57644C3.3853 2.84628 3.34753 3.00241 3.34753 3.00241C3.923 2.83365 4.07406 2.90945 4.07406 2.90945C4.0237 2.94285 4.04079 2.98977 4.04079 2.98977C4.72145 2.69466 4.82666 2.72445 4.82666 2.72445C4.7763 2.74159 4.73404 2.8553 4.73404 2.8553C5.04875 2.69918 5.45697 2.69466 5.45697 2.69466C5.39852 2.73708 5.33918 2.83004 5.33918 2.83004C5.65389 2.73347 6.34355 2.79664 6.34355 2.79664C6.33096 2.80116 6.31837 2.80928 6.30129 2.81379C6.06211 2.80116 5.73841 2.89772 5.73841 2.89772C5.78876 2.92299 5.86879 3.0367 5.86879 3.0367C5.48664 3.01143 4.70077 3.29391 4.70077 3.29391C4.80598 3.29391 5.05774 3.38687 5.05774 3.38687C4.54971 3.57639 4.46519 3.66934 4.31413 3.84262C4.35639 3.79208 4.51195 3.82999 4.51195 3.82999C4.22242 4.0538 3.89872 4.51316 3.89872 4.51316C3.99943 4.44187 4.15498 4.47075 4.15498 4.47075C3.87804 4.95538 3.9158 5.13678 3.9158 5.13678C4.28176 4.7063 4.48318 4.66027 4.48318 4.66027C4.4625 4.71532 4.50386 4.77849 4.50386 4.77849C4.87791 4.19188 4.9957 4.15037 4.9957 4.15037C4.96603 4.18827 5.0002 4.28935 5.0002 4.28935C5.19801 4.0529 5.5379 3.80833 5.5379 3.80833C5.51721 3.8715 5.50822 3.99424 5.50822 3.99424C5.63411 3.85886 5.84811 3.73252 5.9659 3.66934C6.02884 3.6901 6.09628 3.7244 6.11696 3.73252L6.11696 3.73703C5.48215 3.95633 5.2133 4.31011 5.2133 4.31011C5.27624 4.28935 5.41111 4.28935 5.537 4.30198C5.11709 4.65215 5.07932 4.73608 4.9948 4.95177C5.01998 4.8886 5.18812 4.87145 5.18812 4.87145C4.98671 5.1792 4.84824 5.73603 4.84824 5.73603C4.92377 5.63495 5.07932 5.60968 5.07932 5.60968C4.97412 6.162 5.11259 6.27571 5.11259 6.27571C5.3185 5.74866 5.46147 5.66022 5.46147 5.66022C5.45697 5.71888 5.51991 5.75317 5.51991 5.75317C5.68356 5.07451 5.751 5.0366 5.751 5.0366C5.73841 5.08263 5.82203 5.15934 5.82203 5.15934C5.93083 4.86874 6.12865 4.56009 6.12865 4.56009C6.12865 4.58536 6.13314 4.62327 6.14123 4.65666C5.92274 4.89311 5.81394 5.18371 5.81394 5.18371C5.88138 5.11602 6.08728 5.06097 6.08728 5.06097C5.88137 5.5077 5.89396 5.55824 5.90655 5.76491C5.90206 5.70625 6.02884 5.65571 6.02884 5.65571C5.98658 5.9806 6.11246 6.46523 6.11246 6.46523C6.13314 6.35603 6.23834 6.28835 6.23834 6.28835C6.37681 6.77298 6.53686 6.84066 6.53686 6.84066C6.49101 6.33889 6.58722 6.19539 6.58722 6.19539C6.6079 6.24142 6.66275 6.27932 6.66275 6.27932C6.51978 5.67195 6.58272 5.579 6.58272 5.579C6.59081 5.62141 6.67084 5.67556 6.67084 5.67556C6.64117 5.38496 6.66634 5.08534 6.66634 5.08534C6.69602 5.13588 6.79223 5.1819 6.79223 5.1819C6.78414 4.94184 6.99364 4.42743 6.99364 4.42743C7.01072 4.51587 7.06108 4.58807 7.06108 4.58807C7.06557 4.46172 7.11593 4.33086 7.16988 4.22076L7.01432 11.1744C7.01432 11.1744 6.37591 11.5029 6.24553 11.9415L8.649 11.9415C8.55638 11.4948 7.88471 11.1744 7.88471 11.1744L7.74174 4.17022C7.80019 4.28393 7.86763 4.44006 7.87662 4.58807C7.87662 4.58807 7.92697 4.51677 7.94406 4.42743C7.94406 4.42743 8.15446 4.93733 8.14547 5.1819C8.14547 5.1819 8.23808 5.13949 8.26775 5.08534C8.26775 5.08534 8.29293 5.38496 8.26326 5.67556C8.26326 5.67556 8.34328 5.62051 8.35138 5.579C8.35138 5.579 8.41432 5.67195 8.27135 6.27932C8.27135 6.27932 8.3217 6.24142 8.34238 6.19539C8.34238 6.19539 8.435 6.33889 8.39274 6.84067C8.39274 6.84067 8.55279 6.77298 8.69126 6.29286C8.69126 6.29286 8.79646 6.36055 8.81714 6.46975C8.81714 6.46975 8.94303 5.98511 8.90076 5.66022C8.90076 5.66022 9.02665 5.71076 9.02305 5.76942C9.04014 5.56275 9.04823 5.51221 8.84682 5.06548C8.84682 5.06548 9.05272 5.12054 9.12016 5.18822C9.12016 5.18822 9.01136 4.89311 8.79287 4.66117C8.79736 4.62778 8.80545 4.58988 8.80545 4.56461C8.80545 4.56461 8.99877 4.87686 9.11207 5.16385C9.11207 5.16385 9.20019 5.09256 9.1831 5.04112C9.1831 5.04112 9.25054 5.07451 9.41419 5.75769C9.41419 5.75769 9.47713 5.71978 9.47263 5.66473C9.47263 5.66473 9.6156 5.75317 9.81701 6.28022C9.81701 6.28022 9.95548 6.16651 9.85028 5.61419C9.85028 5.61419 10.0058 5.63946 10.0814 5.74054C10.0814 5.74054 9.9429 5.18371 9.74148 4.87596C9.74148 4.87596 9.90963 4.89311 9.9348 4.95628C9.84668 4.74149 9.80892 4.65666 9.39261 4.3065C9.51849 4.28935 9.65336 4.29386 9.71631 4.31462C9.71631 4.31462 9.44746 3.95994 8.81265 3.74154L8.81265 3.73703C8.83333 3.72891 8.90077 3.69461 8.96371 3.67386C9.0815 3.73703 9.2955 3.86338 9.42138 3.99875C9.42138 3.99875 9.41329 3.88053 9.39171 3.81284C9.39171 3.81284 9.73159 4.05741 9.92941 4.29386C9.92941 4.29386 9.95908 4.19278 9.9339 4.15488C9.9339 4.15488 10.0517 4.1973 10.4257 4.78301C10.4257 4.78301 10.468 4.71983 10.4464 4.66478C10.4464 4.66478 10.6478 4.71081 11.0138 5.14129C11.0138 5.14129 11.0516 4.95989 10.7746 4.47526C10.7449 4.46263 10.9005 4.43284 11.0012 4.50504" fill="white"/>
<path d="M12.1504 17.4884C11.9697 17.4884 11.8267 17.3152 11.8267 17.1049C11.8267 16.8946 11.9742 16.7213 12.1504 16.7213C12.3266 16.7213 12.4741 16.8946 12.4741 17.1049C12.4741 17.3152 12.3311 17.4884 12.1504 17.4884ZM8.97365 16.4172C9.61205 16.1176 10.2765 14.3343 11.0957 14.5491C10.4195 14.9416 9.66331 16.7547 8.97365 16.4172ZM5.88592 16.4172C5.19716 16.7547 4.44097 14.9416 3.7639 14.5491C4.58753 14.3343 5.24662 16.1176 5.88592 16.4172ZM2.71367 17.4884C2.53294 17.4884 2.38997 17.3152 2.38997 17.1049C2.38997 16.8946 2.53744 16.7213 2.71367 16.7213C2.88991 16.7213 3.03737 16.8946 3.03737 17.1049C3.03737 17.3152 2.88991 17.4884 2.71367 17.4884ZM11.5956 16.5399C11.5956 16.5399 10.9194 16.1817 10.6038 15.6627C10.6038 15.6627 10.9185 15.1149 11.4778 14.7142C12.1711 14.2206 10.8682 14.0735 10.4905 14.318C10.0994 14.5752 10.2136 14.5075 9.80987 14.8027C9.80987 14.8027 9.11212 14.0689 7.98187 13.1917C11.3133 10.6828 14.8596 10.3282 14.8596 10.3282C12.0991 9.92745 9.32162 11.412 7.43158 12.7784C5.54154 11.4111 2.76043 9.92655 -1.16286e-08 10.3273C-1.16286e-08 10.3273 3.5499 10.6855 6.88219 13.1908C5.75195 14.068 5.0506 14.8018 5.0506 14.8018C4.64687 14.5066 4.76107 14.5743 4.36993 14.3171C3.99138 14.068 2.6894 14.2206 3.38265 14.7133C3.94553 15.114 4.25664 15.6618 4.25664 15.6618C3.94193 16.1807 3.26486 16.539 3.26486 16.539C1.94938 16.0499 1.74797 17.6401 2.4664 17.9261C3.15157 18.196 3.67218 17.6355 3.67218 17.6355L4.89504 16.3793C5.08387 16.5309 5.44084 16.7204 5.44084 16.7204C6.50814 17.0201 6.17995 16.2566 6.09633 16.1049C6.0127 15.9533 5.60089 15.4723 5.60089 15.4723C6.17635 14.7639 6.79408 14.1565 7.42439 13.6249C8.0547 14.152 8.67243 14.7639 9.24789 15.4723C9.24789 15.4723 8.83158 15.9533 8.75245 16.1049C8.67243 16.2566 8.34513 17.0155 9.40794 16.7204C9.40794 16.7204 9.76491 16.5309 9.95374 16.3793L11.1766 17.6356C11.1766 17.6356 11.6972 18.196 12.3824 17.9261C13.1179 17.6392 12.9156 16.0454 11.5965 16.539" fill="white"/>
</g>
<defs>
<clipPath id="clip0_201_5698">
<rect width="14.8605" height="18" fill="white"/>
</clipPath>
</defs>
</svg>
