<svg width="18" height="18" viewBox="0 0 18 18" fill="none" xmlns="http://www.w3.org/2000/svg">
<path d="M17.25 4.97093L15.75 4.59593L16.5 3.09593L14.652 3.62093C14.1722 3.17332 13.5719 2.87599 12.925 2.76563C12.2782 2.65528 11.6132 2.73673 11.0122 2.99994C10.4111 3.26314 9.90026 3.69658 9.54269 4.24676C9.18511 4.79693 8.99646 5.43977 9 6.09593V6.84593C6.34575 7.39343 4.0245 5.94593 1.875 3.47093C1.5 5.47093 1.875 6.97093 3 7.97093L0.75 7.59593C1.05375 9.14768 1.7715 10.3709 3.75 10.5959L1.875 11.3459C2.625 12.8459 3.7995 13.0784 5.625 13.2209C4.20519 14.2354 2.49452 14.7618 0.75 14.7209C10.3163 18.9727 15.75 12.7229 15.75 7.22093V6.22493L17.25 4.97093Z" stroke="white" stroke-width="0.75" stroke-linecap="round" stroke-linejoin="round"/>
</svg>
