<svg width="18" height="18" viewBox="0 0 18 18" fill="none" xmlns="http://www.w3.org/2000/svg">
<g clip-path="url(#clip0_162_1720)">
<path d="M6 11.625C9.1066 11.625 11.625 9.1066 11.625 6C11.625 2.8934 9.1066 0.375 6 0.375C2.8934 0.375 0.375 2.8934 0.375 6C0.375 9.1066 2.8934 11.625 6 11.625Z" fill="#9FEAFF"/>
<path d="M1.87495 8.24994C1.87494 7.15891 2.19222 6.09142 2.78814 5.17751C3.38406 4.2636 4.2329 3.54272 5.23125 3.10268C6.22961 2.66264 7.33439 2.52244 8.41101 2.69915C9.48764 2.87586 10.4896 3.36186 11.295 4.09794C11.0061 3.29479 10.5382 2.56792 9.92676 1.97238C9.31534 1.37684 8.57641 0.928245 7.76595 0.660581C6.95548 0.392917 6.09472 0.313201 5.24888 0.42747C4.40304 0.541739 3.5943 0.846998 2.8839 1.32012C2.17351 1.79325 1.58011 2.42183 1.14863 3.15827C0.717154 3.8947 0.458925 4.71966 0.393502 5.57068C0.32808 6.42169 0.45718 7.27643 0.771023 8.07016C1.08487 8.86389 1.57522 9.57579 2.20495 10.1519C1.98588 9.54177 1.87422 8.89824 1.87495 8.24994Z" fill="#DFF9FF"/>
<path d="M3.53925 7.875C3.65326 7.875 3.76576 7.849 3.86821 7.799C3.97066 7.74899 4.06037 7.67629 4.1305 7.58641C4.20064 7.49653 4.24937 7.39185 4.27297 7.28032C4.29658 7.16878 4.29446 7.05334 4.26675 6.94275L3.89175 5.44275C3.85112 5.28056 3.75747 5.13661 3.62566 5.03374C3.49385 4.93088 3.33145 4.875 3.16425 4.875H0.487502C0.41263 5.24532 0.374942 5.62219 0.375002 6C0.374216 6.84567 0.564498 7.68058 0.931638 8.4424C1.29878 9.20421 1.83329 9.87323 2.49525 10.3995L3 7.875H3.53925Z" fill="#9FEAFF"/>
<path d="M10.5 2.625H8.4608C8.2936 2.625 8.1312 2.68088 7.99939 2.78374C7.86758 2.88661 7.77392 3.03057 7.7333 3.19275L7.3583 4.69275C7.33059 4.80334 7.32847 4.91878 7.35207 5.03032C7.37568 5.14185 7.42441 5.24653 7.49454 5.33641C7.56468 5.42629 7.65439 5.49899 7.75684 5.549C7.85929 5.599 7.97179 5.625 8.0858 5.625H9.00005L10.5293 9.336C11.2461 8.36273 11.6304 7.18442 11.6251 5.97566C11.6199 4.7669 11.2253 3.59199 10.5 2.625Z" fill="#9FEAFF"/>
<path d="M1.875 8.25C1.87305 7.0326 2.268 5.84774 3 4.875H0.487503C0.41263 5.24532 0.374943 5.62219 0.375003 6C0.374187 6.78104 0.536471 7.55365 0.851465 8.26836C1.16646 8.98307 1.62722 9.62413 2.20425 10.1505C1.98578 9.54071 1.87439 8.89774 1.875 8.25Z" fill="#DFF9FF"/>
<path d="M7.14452 11.5117C6.05485 11.7378 4.92258 11.6356 3.891 11.2181C2.85941 10.8005 1.97488 10.0863 1.34932 9.16584C0.723764 8.2454 0.385298 7.16008 0.376753 6.04722C0.368207 4.93436 0.689966 3.84398 1.30131 2.91404C1.91266 1.9841 2.78612 1.2564 3.81117 0.823036C4.83622 0.389667 5.96679 0.270102 7.05981 0.479468C8.15283 0.688835 9.15918 1.21772 9.95153 1.99921C10.7439 2.7807 11.2866 3.77966 11.511 4.86969" stroke="#00303E" stroke-width="0.75" stroke-linecap="round" stroke-linejoin="round"/>
<path d="M2.49603 10.3958L3.00003 7.875H3.53928C3.65329 7.875 3.76579 7.849 3.86824 7.799C3.97069 7.74899 4.0604 7.67629 4.13053 7.58641C4.20067 7.49653 4.24939 7.39185 4.273 7.28032C4.29661 7.16878 4.29448 7.05334 4.26678 6.94275L3.89178 5.44275C3.85115 5.28057 3.7575 5.13661 3.62569 5.03374C3.49388 4.93088 3.33148 4.875 3.16428 4.875H0.488281" stroke="#00303E" stroke-width="0.75" stroke-linecap="round" stroke-linejoin="round"/>
<path d="M10.4925 2.625H8.4608C8.2936 2.625 8.1312 2.68088 7.99939 2.78374C7.86758 2.88661 7.77392 3.03057 7.7333 3.19275L7.3583 4.69275C7.33059 4.80334 7.32847 4.91878 7.35207 5.03032C7.37568 5.14185 7.42441 5.24653 7.49454 5.33641C7.56468 5.42629 7.65439 5.49899 7.75684 5.549C7.85929 5.599 7.97179 5.625 8.0858 5.625H8.25005" stroke="#00303E" stroke-width="0.75" stroke-linecap="round" stroke-linejoin="round"/>
<path d="M16.125 6.375H10.125C9.29657 6.375 8.625 7.04657 8.625 7.875V16.125C8.625 16.9534 9.29657 17.625 10.125 17.625H16.125C16.9534 17.625 17.625 16.9534 17.625 16.125V7.875C17.625 7.04657 16.9534 6.375 16.125 6.375Z" fill="#9FEAFF"/>
<path d="M16.125 6.375H10.125C9.72718 6.375 9.34564 6.53304 9.06434 6.81434C8.78304 7.09564 8.625 7.47718 8.625 7.875V9.375C8.625 8.97718 8.78304 8.59564 9.06434 8.31434C9.34564 8.03304 9.72718 7.875 10.125 7.875H16.125C16.5228 7.875 16.9044 8.03304 17.1857 8.31434C17.467 8.59564 17.625 8.97718 17.625 9.375V7.875C17.625 7.47718 17.467 7.09564 17.1857 6.81434C16.9044 6.53304 16.5228 6.375 16.125 6.375Z" fill="#9FEAFF"/>
<path d="M16.125 6.375H10.125C9.29657 6.375 8.625 7.04657 8.625 7.875V16.125C8.625 16.9534 9.29657 17.625 10.125 17.625H16.125C16.9534 17.625 17.625 16.9534 17.625 16.125V7.875C17.625 7.04657 16.9534 6.375 16.125 6.375Z" stroke="#00303E" stroke-width="0.75" stroke-linecap="round" stroke-linejoin="round"/>
<path d="M13.125 14.625C14.7819 14.625 16.125 13.2819 16.125 11.625C16.125 9.96815 14.7819 8.625 13.125 8.625C11.4681 8.625 10.125 9.96815 10.125 11.625C10.125 13.2819 11.4681 14.625 13.125 14.625Z" fill="#DFF9FF" stroke="#00303E" stroke-width="0.75" stroke-linecap="round" stroke-linejoin="round"/>
<path d="M13.125 14.625C13.7463 14.625 14.25 13.2819 14.25 11.625C14.25 9.96815 13.7463 8.625 13.125 8.625C12.5037 8.625 12 9.96815 12 11.625C12 13.2819 12.5037 14.625 13.125 14.625Z" stroke="#00303E" stroke-width="0.75" stroke-linecap="round" stroke-linejoin="round"/>
<path d="M10.125 11.625H16.125" stroke="#00303E" stroke-width="0.75" stroke-linecap="round" stroke-linejoin="round"/>
</g>
<defs>
<clipPath id="clip0_162_1720">
<rect width="18" height="18" fill="white"/>
</clipPath>
</defs>
</svg>
